<?xml version="1.0" standalone="no"?><!DOCTYPE svg PUBLIC "-//W3C//DTD SVG 1.1//EN" "http://www.w3.org/Graphics/SVG/1.1/DTD/svg11.dtd" ><svg xmlns="http://www.w3.org/2000/svg"><metadata></metadata><defs><font id="fonteditor" horiz-adv-x="1000"><font-face font-family="HarmonyOS Sans SC" font-weight="400" font-stretch="normal" units-per-em="1000" panose-1="0 0 5 0 0 0 0 0 0 0" ascent="928" descent="-244" x-height="0" bbox="-119 -244 989 873" underline-thickness="50" underline-position="-75" unicode-range="U+0021-ffe5" /><missing-glyph horiz-adv-x="1000"  /><glyph glyph-name="A" unicode="a" d="M363 732 L657 0 L558 0 L477 210 L174 210 L97 0 L7 0 L288 732 L363 732 ZM446 290 L322 613 L204 290 L446 290 Z" /><glyph glyph-name="B" unicode="b" d="M477 384 Q614 345 614 207 Q614 109 547 54.5 Q480 0 349 0 L87 0 L87 732 L318 732 Q395 732 452 708 Q509 684 540 639 Q571 594 571 534 Q571 429 477 384 ZM176 653 L176 413 L303 413 Q386 413 431.5 445 Q477 477 477 534 Q477 589 431 621 Q385 653 303 653 L176 653 ZM333 78 Q427 78 473.5 112 Q520 146 520 207 Q520 269 473.5 304 Q427 339 333 339 L176 339 L176 78 L333 78 Z" /><glyph glyph-name="C" unicode="c" d="M381 71 Q501 71 557 182 L629 140 Q598 69 533 29 Q468 -11 383 -11 Q290 -11 214 37 Q138 85 94 171 Q50 257 50 367 Q50 477 94 563 Q138 649 214 696.5 Q290 744 383 744 Q468 744 533 704 Q598 664 629 593 L557 551 Q501 662 381 662 Q311 662 257 625 Q203 588 173.5 521 Q144 454 144 367 Q144 280 173.5 212.5 Q203 145 257 108 Q311 71 381 71 Z" /><glyph glyph-name="D" unicode="d" d="M287 732 Q394 732 479.5 689 Q565 646 614 563.5 Q663 481 663 367 Q663 252 614.5 169.5 Q566 87 480.5 43.5 Q395 0 287 0 L87 0 L87 732 L287 732 ZM275 79 Q413 79 491 154 Q569 229 569 367 Q569 503 490.5 578.5 Q412 654 275 654 L176 654 L176 79 L275 79 Z" /><glyph glyph-name="E" unicode="e" d="M498 339 L176 339 L176 79 L547 79 L547 0 L87 0 L87 733 L536 733 L536 654 L176 654 L176 418 L498 418 L498 339 Z" /><glyph glyph-name="F" unicode="f" d="M87 732 L536 732 L536 653 L176 653 L176 406 L498 406 L498 327 L176 327 L176 0 L87 0 L87 732 Z" /><glyph glyph-name="G" unicode="g" d="M409 303 L409 383 L653 383 L653 98 Q621 51 554 20 Q487 -11 403 -11 Q302 -11 221.5 36.5 Q141 84 95.5 170.5 Q50 257 50 368 Q50 478 95.5 563.5 Q141 649 220.5 696.5 Q300 744 397 744 Q483 744 550.5 707 Q618 670 649 604 L577 562 Q553 607 505 634.5 Q457 662 393 662 Q320 662 263.5 625 Q207 588 175.5 521.5 Q144 455 144 368 Q144 280 177 212.5 Q210 145 270 108 Q330 71 409 71 Q511 71 564 127 L564 303 L409 303 Z" /><glyph glyph-name="H" unicode="h" d="M176 420 L569 420 L569 732 L658 732 L658 0 L569 0 L569 340 L176 340 L176 0 L87 0 L87 732 L176 732 L176 420 Z" /><glyph glyph-name="I" unicode="i" d="M176 0 L87 0 L87 732 L176 732 L176 0 Z" /><glyph glyph-name="J" unicode="j" d="M180 -11 Q114 -11 65 21 Q16 53 0 119 L70 160 Q95 71 180 71 Q237 71 262.5 111 Q288 151 288 228 L288 732 L377 732 L377 219 Q377 100 322 44.5 Q267 -11 180 -11 Z" /><glyph glyph-name="K" unicode="k" d="M353 420 L675 0 L561 0 L291 354 L176 233 L176 0 L87 0 L87 732 L176 732 L176 343 L534 732 L650 732 L353 420 Z" /><glyph glyph-name="L" unicode="l" d="M87 732 L176 732 L176 80 L537 80 L537 0 L87 0 L87 732 Z" /><glyph glyph-name="M" unicode="m" d="M704 732 L777 732 L777 0 L690 0 L690 558 L459 189 L406 189 L173 560 L173 0 L87 0 L87 732 L165 732 L435 297 L704 732 Z" /><glyph glyph-name="N" unicode="n" d="M162 732 L569 159 L569 732 L653 732 L653 0 L578 0 L171 574 L171 0 L87 0 L87 732 L162 732 Z" /><glyph glyph-name="O" unicode="o" d="M50 367 Q50 480 93 566 Q136 652 211.5 698 Q287 744 381 744 Q475 744 550.5 697.5 Q626 651 669 565.5 Q712 480 712 367 Q712 253 668.5 167.5 Q625 82 550 35.5 Q475 -11 381 -11 Q287 -11 211.5 35 Q136 81 93 167 Q50 253 50 367 ZM144 367 Q144 280 172.5 213 Q201 146 255 108.5 Q309 71 381 71 Q453 71 506.5 108.5 Q560 146 589 213 Q618 280 618 367 Q618 455 589 522 Q560 589 506.5 626 Q453 663 381 663 Q309 663 255.5 626 Q202 589 173 522 Q144 455 144 367 Z" /><glyph glyph-name="P" unicode="p" d="M312 732 Q386 732 444.5 703 Q503 674 536 622.5 Q569 571 569 505 Q569 439 536.5 387.5 Q504 336 445.5 307.5 Q387 279 312 279 L176 279 L176 0 L87 0 L87 732 L312 732 ZM301 357 Q385 357 430 398.5 Q475 440 475 505 Q475 570 430 612 Q385 654 301 654 L176 654 L176 357 L301 357 Z" /><glyph glyph-name="Q" unicode="q" d="M770 -152 L636 -152 L444 -5 Q413 -11 381 -11 Q287 -11 211.5 35 Q136 81 93 167 Q50 253 50 367 Q50 480 93 566 Q136 652 211.5 698 Q287 744 381 744 Q475 744 550.5 697.5 Q626 651 669 565.5 Q712 480 712 367 Q712 249 665.5 161.5 Q619 74 539 29 L770 -152 ZM144 367 Q144 280 172.5 213 Q201 146 255 108.5 Q309 71 381 71 Q453 71 506.5 108.5 Q560 146 589 213 Q618 280 618 367 Q618 455 589 522 Q560 589 506.5 626 Q453 663 381 663 Q309 663 255.5 626 Q202 589 173 522 Q144 455 144 367 Z" /><glyph glyph-name="R" unicode="r" d="M642 0 L533 0 L321 300 L176 300 L176 0 L87 0 L87 732 L312 732 Q387 732 445.5 705 Q504 678 536.5 628.5 Q569 579 569 515 Q569 443 528 390.5 Q487 338 415 315 L642 0 ZM176 654 L176 378 L301 378 Q386 378 430.5 415.5 Q475 453 475 515 Q475 577 430.5 615.5 Q386 654 301 654 L176 654 Z" /><glyph glyph-name="S" unicode="s" d="M547 203 Q547 140 518 91.5 Q489 43 433 16 Q377 -11 300 -11 Q193 -11 117 39 Q41 89 17 172 L89 214 Q116 145 169 108 Q222 71 301 71 Q373 71 413 103 Q453 135 453 192 Q453 238 428 266.5 Q403 295 366.5 311 Q330 327 266 346 Q195 367 151.5 386 Q108 405 78 443 Q48 481 48 543 Q48 606 80 651.5 Q112 697 168.5 720.5 Q225 744 295 744 Q393 744 453.5 701 Q514 658 535 592 L463 550 Q440 603 399.5 633 Q359 663 292 663 Q224 663 183 632.5 Q142 602 142 551 Q142 513 164.5 489 Q187 465 221 451 Q255 437 314 420 Q389 398 435 377 Q481 356 514 314 Q547 272 547 203 Z" /><glyph glyph-name="T" unicode="t" d="M12 732 L556 732 L556 653 L328 653 L328 0 L239 0 L239 653 L12 653 L12 732 Z" /><glyph glyph-name="U" unicode="u" d="M562 732 L651 732 L651 296 Q651 202 617 132.5 Q583 63 518.5 26 Q454 -11 365 -11 Q231 -11 155.5 71 Q80 153 80 296 L80 732 L169 732 L169 310 Q169 194 219 132.5 Q269 71 365 71 Q461 71 511.5 132.5 Q562 194 562 310 L562 732 Z" /><glyph glyph-name="V" unicode="v" d="M106 732 L339 119 L561 732 L651 732 L373 0 L298 0 L7 732 L106 732 Z" /><glyph glyph-name="W" unicode="w" d="M525 733 L705 147 L871 732 L957 732 L736 0 L665 0 L485 567 L313 0 L243 0 L9 732 L103 732 L283 147 L450 733 L525 733 Z" /><glyph glyph-name="X" unicode="x" d="M639 732 L380 371 L646 0 L537 0 L325 299 L115 0 L12 0 L278 370 L19 732 L129 732 L333 441 L536 732 L639 732 Z" /><glyph glyph-name="Y" unicode="y" d="M319 400 L512 733 L609 733 L358 310 L358 0 L269 0 L269 313 L7 733 L113 733 L319 400 Z" /><glyph glyph-name="Z" unicode="z" d="M540 732 L540 689 L148 80 L554 80 L554 0 L25 0 L25 44 L417 653 L55 653 L55 732 L540 732 Z" /><glyph glyph-name="a" unicode="a" d="M277 531 Q365 531 421 477.5 Q477 424 477 325 L477 0 L402 0 Q399 51 398 66 Q374 28 333.5 8.5 Q293 -11 241 -11 Q191 -11 147.5 7.5 Q104 26 78 62.5 Q52 99 52 150 Q52 227 114.5 271.5 Q177 316 276 316 Q332 316 392 301 L392 310 Q392 383 362.5 418.5 Q333 454 273 454 Q225 454 193 434 Q161 414 139 375 L74 412 Q98 466 152.5 498.5 Q207 531 277 531 ZM392 230 Q329 246 277 246 Q212 246 176.5 221 Q141 196 141 151 Q141 109 171 85.5 Q201 62 249 62 Q308 62 350 96.5 Q392 131 392 192 L392 230 Z" /><glyph glyph-name="b" unicode="b" d="M332 531 Q391 531 443.5 498.5 Q496 466 528 404.5 Q560 343 560 260 Q560 176 528 114.5 Q496 53 443.5 21 Q391 -11 332 -11 Q280 -11 233 14 Q186 39 158 89 Q154 46 152 0 L77 0 L77 761 L162 761 L162 438 Q191 484 236 507.5 Q281 531 332 531 ZM321 69 Q389 69 430 119 Q471 169 471 260 Q471 350 430 400 Q389 450 321 450 Q256 450 209 404 Q162 358 162 260 Q162 193 185 150 Q208 107 244 88 Q280 69 321 69 Z" /><glyph glyph-name="c" unicode="c" d="M295 69 Q371 69 414 137 L481 98 Q453 43 405.5 16 Q358 -11 297 -11 Q227 -11 170 23 Q113 57 80 118.5 Q47 180 47 260 Q47 340 80 401.5 Q113 463 170 497 Q227 531 297 531 Q358 531 405.5 504 Q453 477 481 422 L414 383 Q371 451 295 451 Q225 451 181 400 Q137 349 137 260 Q137 171 181 120 Q225 69 295 69 Z" /><glyph glyph-name="d" unicode="d" d="M445 761 L530 761 L530 0 L455 0 Q453 52 449 88 Q421 38 374.5 13.5 Q328 -11 276 -11 Q216 -11 163.5 21 Q111 53 79 114.5 Q47 176 47 260 Q47 343 79 404.5 Q111 466 163.5 498.5 Q216 531 276 531 Q326 531 371 508 Q416 485 445 439 L445 761 ZM286 69 Q351 69 398 115 Q445 161 445 260 Q445 358 398 404 Q351 450 286 450 Q218 450 177 400 Q136 350 136 260 Q136 169 177 119 Q218 69 286 69 Z" /><glyph glyph-name="e" unicode="e" d="M293 531 Q360 531 410.5 499.5 Q461 468 488 414 Q515 360 515 294 Q515 266 511 243 L137 243 Q142 154 188 110.5 Q234 67 304 67 Q391 67 430 137 L495 100 Q475 47 420.5 18 Q366 -11 299 -11 Q229 -11 171.5 21 Q114 53 80.5 114.5 Q47 176 47 262 Q47 345 80.5 406 Q114 467 170 499 Q226 531 293 531 ZM290 453 Q234 453 192.5 417 Q151 381 140 312 L423 312 Q420 379 384 416 Q348 453 290 453 Z" /><glyph glyph-name="f" unicode="f" d="M280 692 Q238 692 216.5 665 Q195 638 195 570 L195 520 L330 520 L330 447 L195 447 L195 0 L110 0 L110 447 L20 447 L20 520 L110 520 L110 572 Q110 676 157 724 Q204 772 276 772 Q308 772 334.5 763.5 Q361 755 377 742 L343 674 Q315 692 280 692 Z" /><glyph glyph-name="g" unicode="g" d="M530 520 L530 33 Q530 -118 458 -181 Q386 -244 287 -244 Q210 -244 150 -211 Q90 -178 68 -118 L137 -79 Q176 -164 288 -164 Q361 -164 403 -120 Q445 -76 445 35 L445 80 Q416 34 371.5 11.5 Q327 -11 276 -11 Q217 -11 164.5 21.5 Q112 54 79.5 115.5 Q47 177 47 260 Q47 343 79 405 Q111 467 164 499 Q217 531 276 531 Q328 531 374.5 506 Q421 481 449 432 Q454 479 455 520 L530 520 ZM286 69 Q351 69 398 115 Q445 161 445 260 Q445 358 398 404 Q351 450 286 450 Q218 450 177 400 Q136 350 136 260 Q136 169 177 119 Q218 69 286 69 Z" /><glyph glyph-name="h" unicode="h" d="M328 531 Q409 531 460 476 Q511 421 511 320 L511 0 L426 0 L426 296 Q426 370 396.5 410 Q367 450 309 450 Q271 450 237.5 432.5 Q204 415 183 380.5 Q162 346 162 295 L162 0 L77 0 L77 761 L162 761 L162 441 Q189 485 232 508 Q275 531 328 531 Z" /><glyph glyph-name="i" unicode="i" d="M120 612 Q97 612 80.5 629.5 Q64 647 64 670 Q64 693 80.5 710.5 Q97 728 120 728 Q144 728 160.5 711 Q177 694 177 670 Q177 647 160 629.5 Q143 612 120 612 ZM162 0 L77 0 L77 519 L162 519 L162 0 Z" /><glyph glyph-name="j" unicode="j" d="M119 612 Q97 612 80 629.5 Q63 647 63 670 Q63 693 79.5 710.5 Q96 728 119 728 Q143 728 159.5 711 Q176 694 176 670 Q176 646 159.5 629 Q143 612 119 612 ZM-8 -244 Q-40 -244 -70 -233 Q-100 -222 -119 -200 L-68 -138 Q-43 -164 -10 -164 Q77 -164 77 -41 L77 519 L162 519 L162 -44 Q162 -114 137.5 -158.5 Q113 -203 74.5 -223.5 Q36 -244 -8 -244 Z" /><glyph glyph-name="k" unicode="k" d="M311 304 L526 0 L419 0 L252 238 L162 138 L162 0 L77 0 L77 761 L162 761 L162 247 L400 519 L504 519 L311 304 Z" /><glyph glyph-name="l" unicode="l" d="M162 0 L77 0 L77 761 L162 761 L162 0 Z" /><glyph glyph-name="m" unicode="m" d="M619 531 Q693 531 739 477.5 Q785 424 785 324 L785 0 L701 0 L701 296 Q701 371 675 410.5 Q649 450 598 450 Q546 450 509.5 410 Q473 370 473 295 L473 0 L389 0 L389 296 Q389 370 363 410 Q337 450 287 450 Q235 450 198.5 409.5 Q162 369 162 295 L162 0 L77 0 L77 519 L152 519 Q153 485 157 440 Q183 485 222.5 508 Q262 531 309 531 Q361 531 400.5 503.5 Q440 476 458 422 Q483 477 525.5 504 Q568 531 619 531 Z" /><glyph glyph-name="n" unicode="n" d="M328 531 Q411 531 461 476 Q511 421 511 320 L511 0 L426 0 L426 296 Q426 370 396.5 410 Q367 450 309 450 Q271 450 237.5 432.5 Q204 415 183 380.5 Q162 346 162 295 L162 0 L77 0 L77 519 L152 519 Q154 469 158 433 Q184 481 228.5 506 Q273 531 328 531 Z" /><glyph glyph-name="o" unicode="o" d="M47 260 Q47 338 81.5 400 Q116 462 173 496.5 Q230 531 296 531 Q362 531 419 497 Q476 463 510 401 Q544 339 544 260 Q544 181 510 119.5 Q476 58 419 23.5 Q362 -11 296 -11 Q230 -11 172.5 23.5 Q115 58 81 119.5 Q47 181 47 260 ZM137 260 Q137 201 158 158 Q179 115 215 92 Q251 69 296 69 Q341 69 377 92 Q413 115 433.5 158 Q454 201 454 260 Q454 319 433.5 362 Q413 405 377 428 Q341 451 296 451 Q251 451 215 428 Q179 405 158 362 Q137 319 137 260 Z" /><glyph glyph-name="p" unicode="p" d="M332 531 Q391 531 443.5 498.5 Q496 466 528 404.5 Q560 343 560 260 Q560 176 528 114.5 Q496 53 443.5 21 Q391 -11 332 -11 Q282 -11 236.5 12.5 Q191 36 162 82 L162 -232 L77 -232 L77 519 L152 519 Q154 469 158 431 Q186 481 232.5 506 Q279 531 332 531 ZM321 69 Q389 69 430 119 Q471 169 471 260 Q471 351 430 401 Q389 451 321 451 Q280 451 244 432 Q208 413 185 370 Q162 327 162 260 Q162 193 185 150 Q208 107 244 88 Q280 69 321 69 Z" /><glyph glyph-name="q" unicode="q" d="M530 519 L530 -232 L445 -232 L445 81 Q416 35 370.5 12 Q325 -11 276 -11 Q216 -11 163.5 21 Q111 53 79 114.5 Q47 176 47 260 Q47 343 79 404.5 Q111 466 163.5 498.5 Q216 531 276 531 Q328 531 374.5 506 Q421 481 449 432 Q454 479 455 519 L530 519 ZM286 69 Q351 69 398 115 Q445 161 445 260 Q445 327 422 370 Q399 413 363 432 Q327 451 286 451 Q218 451 177 401 Q136 351 136 260 Q136 169 177 119 Q218 69 286 69 Z" /><glyph glyph-name="r" unicode="r" d="M295 531 Q319 531 339.5 524.5 Q360 518 373 508 L342 439 Q322 451 294 451 Q236 451 199 403.5 Q162 356 162 265 L162 0 L77 0 L77 519 L152 519 Q154 469 158 434 Q202 531 295 531 Z" /><glyph glyph-name="s" unicode="s" d="M427 148 Q427 101 402.5 65 Q378 29 334 9 Q290 -11 233 -11 Q157 -11 102 23 Q47 57 30 116 L95 153 Q132 66 233 66 Q282 66 310 86 Q338 106 338 141 Q338 168 321.5 185 Q305 202 280.5 211.5 Q256 221 212 234 Q159 249 126 263 Q93 277 70 304.5 Q47 332 47 377 Q47 424 72.5 459 Q98 494 141.5 512.5 Q185 531 237 531 Q305 531 354 501 Q403 471 420 419 L355 382 Q339 416 307.5 434.5 Q276 453 233 453 Q189 453 162.5 435.5 Q136 418 136 385 Q136 361 151.5 346 Q167 331 190 322 Q213 313 255 301 Q310 286 344 271.5 Q378 257 402.5 227 Q427 197 427 148 Z" /><glyph glyph-name="t" unicode="t" d="M359 17 Q318 -11 254 -11 Q97 -11 97 168 L97 446 L11 446 L11 520 L97 520 L97 665 L182 665 L182 520 L333 520 L333 446 L182 446 L182 178 Q182 69 264 69 Q300 69 331 87 L359 17 Z" /><glyph glyph-name="u" unicode="u" d="M418 520 L503 520 L503 0 L428 0 Q426 51 422 85 Q396 37 351 13 Q306 -11 253 -11 Q170 -11 120 44 Q70 99 70 200 L70 520 L155 520 L155 223 Q155 149 184.5 109 Q214 69 271 69 Q309 69 342.5 86.5 Q376 104 397 139 Q418 174 418 225 L418 520 Z" /><glyph glyph-name="v" unicode="v" d="M107 519 L267 113 L417 519 L505 519 L296 0 L227 0 L10 519 L107 519 Z" /><glyph glyph-name="w" unicode="w" d="M426 519 L562 129 L689 519 L769 519 L585 0 L529 0 L391 380 L259 0 L201 0 L10 519 L99 519 L235 129 L360 519 L426 519 Z" /><glyph glyph-name="x" unicode="x" d="M252 327 L389 519 L486 519 L298 261 L486 0 L382 0 L248 192 L110 0 L11 0 L201 257 L11 519 L117 519 L252 327 Z" /><glyph glyph-name="y" unicode="y" d="M422 519 L510 519 L267 -94 Q235 -175 199 -209.5 Q163 -244 98 -244 Q37 -244 1 -213 L35 -144 Q46 -153 63.5 -158.5 Q81 -164 98 -164 Q129 -164 150.5 -143 Q172 -122 197 -64 L222 -6 L6 519 L104 519 L267 102 L422 519 Z" /><glyph glyph-name="z" unicode="z" d="M429 519 L429 474 L151 72 L440 72 L440 0 L33 0 L33 46 L313 447 L50 447 L50 519 L429 519 Z" /><glyph glyph-name="uni4E00" unicode="&#x4e00;" d="M51 454 L949 454 L949 368 L51 368 L51 454 Z" /><glyph glyph-name="uni4E01" unicode="&#x4e01;" d="M940 772 L940 692 L558 692 L558 86 Q558 33 544.5 3 Q531 -27 500.5 -40.5 Q470 -54 417 -56 L386 -57 Q330 -57 266 -49 L249 37 Q337 26 392 26 Q428 26 443.5 32 Q459 38 464 55.5 Q469 73 469 114 L469 692 L60 692 L60 772 L940 772 Z" /><glyph glyph-name="uni4E03" unicode="&#x4e03;" d="M817 260 L900 240 L892 84 Q888 15 854.5 -13 Q821 -41 744 -46 Q692 -50 625 -50 Q559 -50 506 -46 Q450 -42 418.5 -27 Q387 -12 372.5 21 Q358 54 358 111 L358 419 L56 370 L43 454 L358 505 L358 834 L444 834 L444 518 L947 599 L959 516 L444 433 L444 127 Q444 92 449.5 73.5 Q455 55 470.5 46 Q486 37 518 34 Q588 30 622 30 Q658 30 726 34 Q761 37 777.5 44.5 Q794 52 800.5 70 Q807 88 810 127 L817 260 Z" /><glyph glyph-name="uni4E07" unicode="&#x4e07;" d="M423 696 Q420 607 412 541 Q410 527 410 521 L835 521 Q832 413 824 296 Q816 179 807 110 Q798 45 781.5 12 Q765 -21 733 -34.5 Q701 -48 641 -50 Q630 -51 607 -51 Q566 -51 516 -46 L501 36 Q562 28 628 28 Q660 28 678 36.5 Q696 45 706 66.5 Q716 88 722 129 Q731 191 738 283.5 Q745 376 747 444 L399 444 Q382 330 351 245.5 Q320 161 263 85 Q206 9 110 -70 L49 -11 Q151 74 206 149.5 Q261 225 288 314.5 Q315 404 328 542 Q333 584 339 696 L60 696 L60 770 L940 770 L940 696 L423 696 Z" /><glyph glyph-name="uni4E08" unicode="&#x4e08;" d="M912 -62 Q759 -16 655.5 29.5 Q552 75 479 130 Q417 77 323 28 Q229 -21 92 -73 L48 9 Q179 53 267.5 96 Q356 139 413 187 Q359 243 315.5 316 Q272 389 230 491 L308 522 Q345 427 383 361 Q421 295 470 246 Q515 304 535 377.5 Q555 451 557 555 L557 579 L68 579 L68 658 L557 658 L557 841 L642 841 L642 658 L928 658 L928 579 L642 579 L642 558 Q642 434 618 346.5 Q594 259 537 189 Q605 140 703.5 101.5 Q802 63 953 22 L912 -62 Z" /><glyph glyph-name="uni4E09" unicode="&#x4e09;" d="M111 755 L888 755 L888 672 L111 672 L111 755 ZM158 436 L843 436 L843 355 L158 355 L158 436 ZM54 65 L946 65 L946 -15 L54 -15 L54 65 Z" /><glyph glyph-name="uni4E0A" unicode="&#x4e0a;" d="M508 470 L508 47 L942 47 L942 -31 L59 -31 L59 47 L425 47 L425 839 L508 839 L508 550 L875 550 L875 470 L508 470 Z" /><glyph glyph-name="uni4E0B" unicode="&#x4e0b;" d="M944 689 L518 689 L518 543 Q796 387 884 330 L838 253 Q752 310 518 447 L518 -68 L433 -68 L433 689 L57 689 L57 769 L944 769 L944 689 Z" /><glyph glyph-name="uni4E0C" unicode="&#x4e0c;" d="M946 756 L946 673 L727 673 L727 -60 L642 -60 L642 673 L355 673 L355 503 Q355 352 333.5 253.5 Q312 155 262.5 81 Q213 7 120 -70 L54 -8 Q141 65 186 128 Q231 191 250.5 275 Q270 359 270 492 L270 673 L49 673 L49 756 L946 756 Z" /><glyph glyph-name="uni4E0D" unicode="&#x4e0d;" d="M604 692 Q580 646 541 587 L541 -69 L459 -69 L459 475 Q318 297 101 134 L49 208 Q201 313 317.5 436.5 Q434 560 507 692 L84 692 L84 775 L919 775 L919 692 L604 692 ZM617 507 Q687 452 788 363.5 Q889 275 948 216 L886 146 Q829 207 734.5 295.5 Q640 384 566 445 L617 507 Z" /><glyph glyph-name="uni4E0E" unicode="&#x4e0e;" d="M913 626 L303 626 L292 477 L864 477 Q861 296 839 109 Q831 39 815.5 4.5 Q800 -30 766.5 -44.5 Q733 -59 667 -60 L626 -60 Q542 -60 483 -55 L467 25 Q549 17 619 17 Q676 17 701 23.5 Q726 30 738 51.5 Q750 73 757 125 Q776 258 776 394 L200 394 L234 828 L318 828 L309 705 L913 705 L913 626 ZM47 261 L703 261 L703 182 L47 182 L47 261 Z" /><glyph glyph-name="uni4E10" unicode="&#x4e10;" d="M938 707 L531 707 L531 571 L891 571 L891 497 L531 497 L531 365 L869 365 Q866 258 845 88 Q838 35 819.5 5.5 Q801 -24 765.5 -37.5 Q730 -51 669 -52 L638 -52 Q563 -52 486 -46 L471 30 Q564 21 657 21 Q698 21 718 27.5 Q738 34 747.5 52 Q757 70 763 107 Q769 141 774 197.5 Q779 254 780 289 L133 289 L163 639 L245 636 L223 365 L451 365 L451 707 L62 707 L62 782 L938 782 L938 707 Z" /><glyph glyph-name="uni4E11" unicode="&#x4e11;" d="M836 780 L798 43 L948 43 L948 -35 L49 -35 L49 43 L260 43 L296 357 L105 357 L105 437 L305 437 L335 699 L114 699 L114 780 L836 780 ZM747 699 L419 699 L388 437 L733 437 L747 699 ZM729 357 L379 357 L342 43 L713 43 L729 357 Z" /><glyph glyph-name="uni4E13" unicode="&#x4e13;" d="M944 455 L379 455 Q344 370 329 336 L830 336 L830 264 Q748 172 621 57 Q726 19 809 -14 L778 -90 Q657 -41 477.5 24.5 Q298 90 173 131 L199 204 Q326 163 536 88 Q627 165 719 262 L234 262 L234 325 Q268 394 291 455 L55 455 L55 528 L320 528 L330 557 Q352 619 362 650 L109 650 L109 723 L384 723 Q405 796 416 843 L497 833 Q486 784 468 723 L890 723 L890 650 L447 650 Q431 598 406 528 L944 528 L944 455 Z" /><glyph glyph-name="uni4E14" unicode="&#x4e14;" d="M805 795 L805 43 L955 43 L955 -32 L45 -32 L45 43 L195 43 L195 795 L805 795 ZM723 549 L723 717 L276 717 L276 549 L723 549 ZM276 303 L723 303 L723 473 L276 473 L276 303 ZM723 226 L276 226 L276 43 L723 43 L723 226 Z" /><glyph glyph-name="uni4E15" unicode="&#x4e15;" d="M49 275 Q198 363 316 472.5 Q434 582 510 700 L85 700 L85 783 L913 783 L913 700 L610 700 Q575 644 540 598 L540 110 L458 110 L458 499 Q310 336 99 199 L49 275 ZM621 545 Q688 497 786.5 417 Q885 337 948 280 L898 208 Q831 270 736.5 349 Q642 428 572 481 L621 545 ZM934 -28 L65 -28 L65 52 L934 52 L934 -28 Z" /><glyph glyph-name="uni4E16" unicode="&#x4e16;" d="M797 526 L797 206 L425 206 L425 526 L261 526 L261 45 L917 45 L917 -34 L177 -34 L177 526 L48 526 L48 605 L177 605 L177 807 L261 807 L261 605 L425 605 L425 832 L506 832 L506 605 L717 605 L717 833 L797 833 L797 605 L952 605 L952 526 L797 526 ZM717 285 L717 526 L506 526 L506 285 L717 285 Z" /><glyph glyph-name="uni4E18" unicode="&#x4e18;" d="M711 51 L951 51 L951 -23 L50 -23 L50 51 L207 51 L207 746 Q543 763 830 825 L853 746 Q722 717 571 698 Q420 679 292 670 L292 476 L910 476 L910 401 L711 401 L711 51 ZM626 401 L292 401 L292 51 L626 51 L626 401 Z" /><glyph glyph-name="uni4E19" unicode="&#x4e19;" d="M941 702 L540 702 L539 569 L873 569 L873 72 Q873 20 861 -8.5 Q849 -37 820.5 -49.5 Q792 -62 740 -62 Q672 -62 623 -57 L607 24 Q670 17 715 17 Q750 17 766 23.5 Q782 30 788 47 Q794 64 794 101 L794 491 L536 491 Q533 456 523 412 Q579 368 652 307.5 Q725 247 770 207 L719 139 Q601 249 496 338 Q466 278 411.5 223.5 Q357 169 269 109 L212 177 Q296 230 345.5 277 Q395 324 420.5 374.5 Q446 425 454 491 L209 491 L209 -64 L130 -64 L130 569 L458 569 Q459 604 459 702 L57 702 L57 780 L941 780 L941 702 Z" /><glyph glyph-name="uni4E1A" unicode="&#x4e1a;" d="M659 830 L659 51 L947 51 L947 -25 L54 -25 L54 51 L343 51 L343 830 L429 830 L429 51 L574 51 L574 830 L659 830 ZM254 218 Q221 307 168 431 Q115 555 79 629 L155 664 Q188 597 245.5 467.5 Q303 338 335 257 L254 218 ZM927 625 Q897 545 841.5 421 Q786 297 743 215 L666 256 Q713 341 765.5 458 Q818 575 848 660 L927 625 Z" /><glyph glyph-name="uni4E1B" unicode="&#x4e1b;" d="M322 504 Q300 386 252 291.5 Q204 197 114 91 L50 148 Q132 240 175 318.5 Q218 397 238 491 Q258 585 265 729 Q266 749 267 781 Q268 813 268 833 L348 833 L344 729 Q340 652 337 611 L402 531 Q425 503 450.5 471.5 Q476 440 502 410 L442 354 L322 504 ZM347 141 Q451 237 506 321 Q561 405 584.5 506 Q608 607 612 761 Q612 769 613 795 Q614 821 613 833 L695 833 L692 762 Q692 728 688 668 Q704 505 769 384.5 Q834 264 959 159 L895 93 Q805 174 746.5 264.5 Q688 355 657 464 Q628 356 569 267 Q510 178 411 87 L347 141 ZM910 -29 L85 -29 L85 48 L910 48 L910 -29 Z" /><glyph glyph-name="uni4E1C" unicode="&#x4e1c;" d="M882 325 L565 325 L565 61 Q565 -7 537 -34.5 Q509 -62 445 -62 Q391 -62 335 -56 L321 22 Q377 14 428 14 Q458 14 470.5 27.5 Q483 41 483 76 L483 325 L138 325 L138 401 Q196 487 275 633 L68 633 L68 710 L315 710 Q359 797 382 853 L460 822 Q441 776 408 710 L923 710 L923 633 L368 633 Q287 481 234 400 L483 400 L483 583 L565 583 L565 400 L882 400 L882 325 ZM340 218 Q293 154 224.5 81 Q156 8 94 -45 L38 24 Q97 71 162 139.5 Q227 208 274 273 L340 218 ZM697 271 Q747 228 825 154 Q903 80 952 28 L890 -37 Q842 18 767 93 Q692 168 641 212 L697 271 Z" /><glyph glyph-name="uni4E1D" unicode="&#x4e1d;" d="M91 430 L72 504 Q90 509 99 515 Q108 521 115 529 Q146 564 205.5 666 Q265 768 298 841 L369 806 Q339 741 284 645.5 Q229 550 195 506 L351 530 Q410 622 444 684 L509 648 Q458 553 374.5 423 Q291 293 251 248 L459 284 L457 209 L176 167 L126 160 L108 237 Q130 243 140 248 Q150 253 162 264 Q197 296 305 459 Q191 444 145 437 L91 430 ZM488 501 Q507 508 515.5 513.5 Q524 519 532 528 Q560 559 620.5 662.5 Q681 766 714 840 L783 804 Q752 738 697.5 643.5 Q643 549 610 505 L766 529 Q826 622 854 676 L919 639 Q871 550 784 423 Q697 296 651 247 L915 287 L913 213 Q828 201 742.5 189.5 Q657 178 571 167 L521 160 L508 235 Q530 239 540 244 Q550 249 563 259 Q587 279 629.5 333 Q672 387 719 458 Q609 442 554 435 L509 429 L488 501 ZM48 -36 L48 40 L951 40 L951 -36 L48 -36 Z" /><glyph glyph-name="uni4E1E" unicode="&#x4e1e;" d="M464 584 L685 700 L161 700 L161 777 L834 777 L834 702 L611 579 Q639 511 679 449 Q787 525 863 592 L914 528 Q826 457 726 387 Q811 285 961 192 L909 122 Q777 209 690.5 311 Q604 413 551 546 L546 543 L546 213 Q546 168 535 143 Q524 118 498 107.5 Q472 97 424 97 Q385 97 325 105 L309 180 Q358 169 404 169 Q439 169 451.5 187 Q464 205 464 243 L464 584 ZM39 168 Q224 299 307 484 L80 484 L80 561 L389 561 L389 485 Q347 379 277 288 Q207 197 98 110 L39 168 ZM913 -37 L83 -37 L83 37 L913 37 L913 -37 Z" /><glyph glyph-name="uni4E22" unicode="&#x4e22;" d="M474 256 Q362 119 278 38 Q525 53 720 73 Q664 143 628 187 L690 233 Q736 181 796.5 105.5 Q857 30 899 -28 L835 -82 L823 -65 Q789 -18 773 3 Q402 -25 235 -40 L136 -51 L112 31 Q141 36 154.5 41.5 Q168 47 185 60 Q221 87 273 142 Q325 197 373 256 L55 256 L55 333 L463 333 L463 472 L130 472 L130 547 L463 547 L463 687 Q240 671 117 666 L105 741 Q284 748 506 765.5 Q728 783 866 803 L883 727 Q745 709 541 693 L541 547 L872 547 L872 472 L541 472 L541 333 L947 333 L947 256 L474 256 Z" /><glyph glyph-name="uni4E24" unicode="&#x4e24;" d="M937 720 L649 720 Q649 672 647 586 L873 586 L873 75 Q873 6 848.5 -21.5 Q824 -49 764 -49 Q714 -49 642 -42 L629 32 Q699 23 744 23 Q773 23 784 40.5 Q795 58 795 94 L795 198 L739 148 Q681 222 609 306 Q567 175 459 47 L394 86 Q482 188 522.5 285 Q563 382 569 512 L404 512 Q403 468 394 412 Q456 343 506 284 L449 232 Q435 248 420 267 Q378 317 373 323 Q353 263 319.5 205.5 Q286 148 235 87 L181 126 L181 -48 L105 -48 L105 586 L330 586 L332 720 L59 720 L59 794 L937 794 L937 720 ZM570 586 L572 720 L409 720 Q407 646 407 586 L570 586 ZM181 145 Q255 236 286 314 Q317 392 326 512 L181 512 L181 145 ZM795 512 L645 512 Q642 443 631 391 Q735 274 795 202 L795 512 Z" /><glyph glyph-name="uni4E25" unicode="&#x4e25;" d="M950 786 L950 714 L663 714 L663 453 L934 453 L934 382 L223 382 L223 284 Q223 170 198 90 Q173 10 103 -84 L32 -46 Q78 13 102.5 63 Q127 113 136.5 168.5 Q146 224 146 303 L146 453 L370 453 L370 714 L72 714 L72 786 L950 786 ZM453 453 L579 453 L579 714 L453 714 L453 453 ZM269 469 Q246 504 198.5 563.5 Q151 623 129 644 L190 694 Q211 673 257.5 616 Q304 559 330 523 L269 469 ZM698 521 Q732 557 773 609 Q814 661 834 694 L898 650 Q874 612 830.5 556.5 Q787 501 758 473 L698 521 Z" /><glyph glyph-name="uni4E27" unicode="&#x4e27;" d="M281 354 L281 37 L532 117 L537 33 L516 27 Q352 -17 290 -38 Q236 -55 201 -73 L168 3 Q188 16 195 26 Q202 36 202 49 L202 354 L50 354 L50 431 L459 431 L459 657 L85 657 L85 730 L459 730 L459 842 L541 842 L541 730 L914 730 L914 657 L541 657 L541 431 L953 431 L953 354 L476 354 Q523 262 589 198 Q722 268 820 339 L863 274 Q781 213 654 146 Q711 108 785 79.5 Q859 51 958 29 L926 -51 Q783 -14 684 36.5 Q585 87 514 163.5 Q443 240 390 354 L281 354 ZM632 501 Q726 594 767 646 L828 594 Q779 534 689 446 L632 501 ZM233 645 Q320 558 370 501 L307 447 Q243 522 173 594 L233 645 Z" /><glyph glyph-name="uni4E2A" unicode="&#x4e2a;" d="M30 446 Q171 531 281.5 631.5 Q392 732 462 841 L537 841 Q615 726 721.5 629.5 Q828 533 970 445 L918 368 Q634 554 500 747 Q359 550 79 368 L30 446 ZM456 519 L542 519 L542 -70 L456 -70 L456 519 Z" /><glyph glyph-name="uni4E2B" unicode="&#x4e2b;" d="M162 843 Q224 793 316.5 710.5 Q409 628 467 572 L407 506 Q291 617 109 782 L162 843 ZM532 571 Q594 615 685 695.5 Q776 776 834 837 L893 772 Q830 706 744.5 631 Q659 556 586 502 L532 571 ZM456 500 L542 500 L542 -69 L456 -69 L456 500 Z" /><glyph glyph-name="uni4E2D" unicode="&#x4e2d;" d="M540 668 L888 668 L888 234 L540 234 L540 -74 L457 -74 L457 234 L111 234 L111 668 L457 668 L457 841 L540 841 L540 668 ZM193 589 L193 314 L457 314 L457 589 L193 589 ZM540 314 L806 314 L806 589 L540 589 L540 314 Z" /><glyph glyph-name="uni4E30" unicode="&#x4e30;" d="M540 229 L944 229 L944 149 L540 149 L540 -73 L458 -73 L458 149 L53 149 L53 229 L458 229 L458 387 L136 387 L136 466 L458 466 L458 617 L89 617 L89 695 L458 695 L458 839 L540 839 L540 695 L908 695 L908 617 L540 617 L540 466 L862 466 L862 387 L540 387 L540 229 Z" /><glyph glyph-name="uni4E32" unicode="&#x4e32;" d="M540 369 L892 369 L892 89 L540 89 L540 -73 L461 -73 L461 89 L109 89 L109 369 L461 369 L461 464 L150 464 L150 735 L461 735 L461 841 L540 841 L540 735 L851 735 L851 464 L540 464 L540 369 ZM228 666 L228 532 L461 532 L461 666 L228 666 ZM774 532 L774 666 L540 666 L540 532 L774 532 ZM187 301 L187 159 L461 159 L461 301 L187 301 ZM540 159 L814 159 L814 301 L540 301 L540 159 Z" /><glyph glyph-name="uni4E34" unicode="&#x4e34;" d="M944 719 L944 639 L553 639 Q501 535 446 457 L375 510 Q426 577 474.5 672.5 Q523 768 550 855 L632 832 Q613 774 590 719 L944 719 ZM334 -69 L254 -69 L254 834 L334 834 L334 -69 ZM165 28 L87 28 L87 747 L165 747 L165 28 ZM674 621 Q763 534 802 486 L743 434 Q680 510 618 572 L674 621 ZM512 -60 L439 -60 L439 397 L900 397 L900 -60 L827 -60 L827 2 L512 2 L512 -60 ZM635 72 L635 326 L512 326 L512 72 L635 72 ZM704 72 L827 72 L827 326 L704 326 L704 72 Z" /><glyph glyph-name="uni4E38" unicode="&#x4e38;" d="M939 239 Q937 131 931 53 Q926 -3 901.5 -28.5 Q877 -54 820 -59 Q804 -61 771 -61 Q739 -61 722 -59 Q673 -54 650 -26 Q627 2 627 68 L627 577 L397 577 L397 571 Q394 426 382 343 Q474 294 575 239 L536 165 Q474 201 365 261 Q339 167 279.5 93.5 Q220 20 99 -76 L43 -14 Q122 45 169 91 Q216 137 245.5 187 Q275 237 291 301 Q161 372 87 407 L123 475 Q231 421 306 382 Q315 462 318 571 L318 577 L62 577 L62 654 L320 654 L322 838 L403 838 Q403 806 399 654 L704 654 L704 81 Q704 48 711.5 34.5 Q719 21 741 18 Q763 16 774 16 Q785 16 807 18 Q836 22 845 33.5 Q854 45 856 81 Q863 183 863 255 L939 239 Z" /><glyph glyph-name="uni4E39" unicode="&#x4e39;" d="M949 394 L949 315 L803 315 L803 77 Q803 22 790 -7.5 Q777 -37 744 -49.5 Q711 -62 648 -62 Q605 -62 542 -55 L526 22 Q585 13 643 13 Q679 13 696 21 Q713 29 718.5 46.5 Q724 64 724 99 L724 315 L295 315 Q292 228 279.5 167.5 Q267 107 237 50 Q207 -7 149 -82 L79 -36 Q134 32 162 81 Q190 130 201.5 182.5 Q213 235 216 315 L51 315 L51 394 L217 394 L217 798 L803 798 L803 394 L949 394 ZM296 721 L296 394 L724 394 L724 721 L296 721 ZM456 674 Q480 654 541 587 Q602 520 622 494 L562 437 Q544 463 486.5 528 Q429 593 399 621 L456 674 Z" /><glyph glyph-name="uni4E3A" unicode="&#x4e3a;" d="M887 605 Q888 462 879 315.5 Q870 169 854 82 Q844 31 828 3 Q812 -25 783 -37.5 Q754 -50 704 -51 Q612 -52 526 -41 L508 41 Q565 34 601.5 30.5 Q638 27 684 27 Q715 28 732 34.5 Q749 41 759 60.5 Q769 80 778 121 Q789 169 796 286.5 Q803 404 803 493 L803 528 L482 528 Q463 392 422 289 Q381 186 306 98 Q231 10 110 -75 L55 -8 Q164 64 232.5 142.5 Q301 221 340 313.5 Q379 406 399 528 L81 528 L81 605 L410 605 L410 609 Q416 663 419.5 732.5 Q423 802 422 837 L505 837 Q502 701 492 607 L492 605 L887 605 ZM288 630 Q265 658 221 705.5 Q177 753 155 773 L214 823 Q239 802 281 757.5 Q323 713 348 683 L288 630 ZM649 194 Q630 227 581.5 291.5 Q533 356 507 383 L571 430 Q597 403 644.5 340.5 Q692 278 714 244 L649 194 Z" /><glyph glyph-name="uni4E3B" unicode="&#x4e3b;" d="M542 41 L946 41 L946 -37 L54 -37 L54 41 L460 41 L460 299 L130 299 L130 373 L460 373 L460 588 L87 588 L87 665 L502 665 Q456 752 410 821 L481 862 Q521 800 549 752 L578 705 L509 665 L913 665 L913 588 L542 588 L542 373 L870 373 L870 299 L542 299 L542 41 Z" /><glyph glyph-name="uni4E3D" unicode="&#x4e3d;" d="M52 788 L950 788 L950 713 L52 713 L52 788 ZM448 38 Q448 -4 438 -25 Q428 -46 404.5 -53.5 Q381 -61 334 -61 Q309 -61 271 -57 L256 18 Q298 11 329 11 Q358 11 366.5 23 Q375 35 375 68 L375 534 L187 534 L187 -60 L115 -60 L115 613 L448 613 L448 38 ZM887 38 Q887 -2 877.5 -23 Q868 -44 845 -53 Q822 -62 777 -62 Q744 -62 704 -57 L689 18 Q731 11 768 11 Q797 11 805.5 23 Q814 35 814 68 L814 534 L614 534 L614 -60 L542 -60 L542 613 L887 613 L887 38 ZM697 431 Q719 390 746.5 328 Q774 266 792 218 L729 187 Q713 232 686 295.5 Q659 359 638 401 L697 431 ZM268 430 Q286 393 310.5 329 Q335 265 351 216 L290 190 Q273 241 249.5 305 Q226 369 209 407 L268 430 Z" /><glyph glyph-name="uni4E3E" unicode="&#x4e3e;" d="M504 646 Q459 743 414 824 L485 851 Q530 774 575 682 L504 646 ZM760 294 L538 294 L538 171 L912 171 L912 97 L538 97 L538 -77 L459 -77 L459 97 L86 97 L86 171 L459 171 L459 294 L238 294 L238 357 Q169 301 74 248 L34 316 Q134 367 204.5 424.5 Q275 482 322 555 L62 555 L62 632 L648 632 Q709 729 770 841 L846 812 Q798 728 736 632 L938 632 L938 555 L680 555 Q729 482 796.5 427.5 Q864 373 966 322 L928 252 Q831 305 760 363 L760 294 ZM267 642 Q215 727 156 807 L224 841 Q285 763 336 684 L267 642 ZM459 369 L459 503 L538 503 L538 369 L753 369 Q657 449 592 555 L410 555 Q352 454 252 369 L459 369 Z" /><glyph glyph-name="uni4E43" unicode="&#x4e43;" d="M703 486 L903 486 Q903 416 892 281 Q881 146 871 94 Q861 38 844 8.5 Q827 -21 795.5 -34 Q764 -47 707 -48 Q624 -50 541 -42 L524 37 Q612 27 682 27 Q721 27 741.5 35 Q762 43 772.5 63 Q783 83 790 126 Q813 267 816 405 L613 405 L613 479 L700 693 L388 693 Q387 651 380 541 Q372 397 343 289.5 Q314 182 262.5 96.5 Q211 11 129 -71 L59 -9 Q137 64 185 138.5 Q233 213 259.5 309.5 Q286 406 297 542 Q302 619 302 693 L89 693 L89 773 L789 773 L789 691 L703 486 Z" /><glyph glyph-name="uni4E45" unicode="&#x4e45;" d="M590 379 Q705 155 959 16 L903 -64 Q661 88 539 305 Q463 202 355.5 111.5 Q248 21 93 -73 L41 7 Q268 134 401.5 279 Q535 424 604 617 L335 617 Q252 471 130 345 L68 407 Q160 503 231 616 Q302 729 347 849 L432 825 Q410 766 379 699 L704 699 L704 620 Q652 479 590 379 Z" /><glyph glyph-name="uni4E48" unicode="&#x4e48;" d="M520 788 Q445 663 333 532 Q221 401 114 311 L53 374 Q161 460 268.5 586.5 Q376 713 444 833 L520 788 ZM863 -63 Q850 -39 817 14 L804 36 Q690 23 485 5 Q312 -12 292 -14 Q200 -23 153 -31 L130 59 Q162 67 181 76 Q200 85 219 102 Q320 195 460.5 367.5 Q601 540 686 682 L762 637 Q670 491 534 323 Q398 155 297 63 Q373 70 449 77 Q525 84 601 92 Q649 97 761 108 Q673 251 627 322 L695 369 Q757 273 938 -13 L863 -63 Z" /><glyph glyph-name="uni4E49" unicode="&#x4e49;" d="M524 563 Q434 722 385 801 L457 843 Q526 734 599 608 L524 563 ZM916 -77 Q786 -20 687 37.5 Q588 95 511 160 Q434 95 332.5 38.5 Q231 -18 91 -77 L42 8 Q175 61 271.5 112 Q368 163 442 223 Q350 317 281.5 438.5 Q213 560 154 729 L233 761 Q289 598 354.5 483 Q420 368 507 282 Q593 371 653 492.5 Q713 614 758 792 L842 761 Q791 571 728.5 443 Q666 315 576 221 Q650 162 743 112.5 Q836 63 958 16 L916 -77 Z" /><glyph glyph-name="uni4E4B" unicode="&#x4e4b;" d="M545 55 Q666 48 746 48 Q827 48 946 55 L929 -24 Q839 -31 740 -31 Q642 -31 551 -24 Q425 -15 362.5 3.5 Q300 22 256 69 Q241 86 230 97 Q219 108 211 113 Q196 104 170 72 Q113 0 96 -26 L36 44 Q86 113 137 170 Q158 193 172.5 201 Q187 209 205 209 Q224 209 241 197 Q382 274 522.5 381 Q663 488 752 579 L131 579 L131 660 L487 660 Q468 707 445 758.5 Q422 810 412 829 L491 851 Q503 830 529.5 767 Q556 704 572 660 L870 660 L870 579 Q775 472 616 346.5 Q457 221 304 135 Q345 94 395.5 77.5 Q446 61 545 55 Z" /><glyph glyph-name="uni4E4C" unicode="&#x4e4c;" d="M266 377 L901 377 Q896 242 882 98 Q876 39 856 6 Q836 -27 796.5 -40.5 Q757 -54 687 -54 Q631 -54 554 -47 L539 30 Q619 20 682 20 Q726 20 749.5 30 Q773 40 783.5 60 Q794 80 799 116 Q809 187 815 301 L185 301 L185 744 L371 744 Q396 801 415 855 L500 836 L466 744 L800 744 Q796 631 789 565 Q782 500 751 471 Q720 442 647 442 Q559 442 488 450 L474 520 Q561 508 628 508 Q671 508 687 525.5 Q703 543 709 581 Q715 620 715 670 L266 670 L266 377 ZM63 188 L730 188 L730 110 L63 110 L63 188 Z" /><glyph glyph-name="uni4E4D" unicode="&#x4e4d;" d="M946 620 L470 620 L470 463 L874 463 L874 384 L470 384 L470 225 L909 225 L909 147 L470 147 L470 -77 L391 -77 L391 620 L286 620 Q213 482 120 374 L55 431 Q130 514 192.5 620 Q255 726 300 848 L377 824 Q348 748 324 697 L946 697 L946 620 Z" /><glyph glyph-name="uni4E4E" unicode="&#x4e4e;" d="M955 373 L955 296 L547 296 L547 70 Q547 22 535 -6.5 Q523 -35 492.5 -49.5 Q462 -64 405 -64 Q351 -64 276 -57 L259 20 Q347 9 402 9 Q444 9 456.5 27 Q469 45 469 88 L469 296 L45 296 L45 373 L469 373 L469 692 Q260 675 104 670 L94 749 Q271 754 499 771 Q727 788 870 808 L883 732 Q706 711 547 698 L547 373 L955 373 ZM633 457 Q666 495 714.5 555 Q763 615 795 658 L856 610 Q748 472 695 408 L633 457 ZM220 643 Q286 564 366 459 L303 407 Q247 489 159 596 L220 643 Z" /><glyph glyph-name="uni4E4F" unicode="&#x4e4f;" d="M881 730 Q717 703 493 678.5 Q269 654 105 647 L92 727 Q251 734 478.5 759 Q706 784 862 811 L881 730 ZM536 36 Q662 29 741 29 Q822 29 946 36 L931 -42 Q836 -49 737 -49 Q637 -49 542 -42 Q459 -37 409.5 -28.5 Q360 -20 325.5 -3.5 Q291 13 262 43 L244 61 Q220 85 217 87 Q200 76 173 45 Q160 32 136.5 2.5 Q113 -27 99 -46 L40 26 L90 83 L144 144 Q164 165 178 172.5 Q192 180 210 180 Q232 178 256 160 Q388 219 515 292 Q642 365 723 429 L130 429 L130 509 L491 509 Q459 577 429 627 L506 656 Q540 599 580 509 L850 509 L850 428 Q763 351 614 261.5 Q465 172 312 104 Q350 69 395.5 55.5 Q441 42 536 36 Z" /><glyph glyph-name="uni4E50" unicode="&#x4e50;" d="M915 364 L558 364 L558 58 Q558 11 547 -14 Q536 -39 511 -49 Q486 -59 440 -59 Q384 -59 318 -53 L300 31 Q367 22 425 22 Q454 22 463.5 34 Q473 46 473 83 L473 364 L118 364 L160 758 Q331 759 519.5 775.5 Q708 792 844 818 L863 737 Q733 713 560 697.5 Q387 682 240 680 L212 441 L473 441 L473 639 L558 639 L558 441 L915 441 L915 364 ZM337 263 Q257 117 102 -32 L40 27 Q185 158 264 308 L337 263 ZM716 306 Q868 138 952 26 L886 -30 Q837 40 773 117.5 Q709 195 654 255 L716 306 Z" /><glyph glyph-name="uni4E52" unicode="&#x4e52;" d="M727 277 L950 277 L950 200 L49 200 L49 277 L218 277 L218 753 Q623 774 840 820 L857 743 Q754 721 604.5 704 Q455 687 300 678 L300 545 L921 545 L921 469 L727 469 L727 277 ZM643 469 L300 469 L300 277 L643 277 L643 469 ZM79 -11 Q148 18 230 70 Q312 122 373 172 L424 112 Q353 55 275.5 3 Q198 -49 128 -84 L79 -11 Z" /><glyph glyph-name="uni4E53" unicode="&#x4e53;" d="M727 277 L950 277 L950 200 L49 200 L49 277 L217 277 L217 754 Q620 773 839 820 L856 743 Q754 721 604 704 Q454 687 299 678 L299 545 L921 545 L921 469 L727 469 L727 277 ZM643 469 L299 469 L299 277 L643 277 L643 469 ZM610 175 Q668 144 754 91.5 Q840 39 912 -8 L866 -80 Q805 -37 718.5 17 Q632 71 566 108 L610 175 Z" /><glyph glyph-name="uni4E54" unicode="&#x4e54;" d="M924 191 Q800 236 706 309 L706 -71 L621 -71 L621 333 L678 333 Q600 402 548 488 L462 488 Q413 403 331 333 L401 333 L401 256 Q401 182 382 126.5 Q363 71 314 22 Q265 -27 175 -76 L125 -9 Q211 39 252 78 Q293 117 306 157.5 Q319 198 319 262 L319 323 Q225 248 78 182 L35 255 Q156 305 235 360 Q314 415 364 488 L62 488 L62 568 L408 568 Q436 628 454 705 Q289 695 128 690 L120 767 Q302 770 499 784.5 Q696 799 850 822 L870 743 Q749 728 547 712 Q530 636 502 568 L934 568 L934 488 L636 488 Q692 411 768 360 Q844 309 966 268 L924 191 Z" /><glyph glyph-name="uni4E56" unicode="&#x4e56;" d="M538 617 L945 617 L945 542 L538 542 L538 -73 L459 -73 L459 542 L55 542 L55 617 L459 617 L459 718 Q299 708 138 703 L131 780 Q283 783 495.5 795.5 Q708 808 853 822 L863 745 Q744 734 538 722 L538 617 ZM275 399 L275 497 L353 497 L353 77 L275 77 L275 148 Q220 130 152 106 Q84 82 71 76 L49 159 Q63 162 142 186 Q221 210 275 228 L275 324 L77 324 L77 399 L275 399 ZM870 285 L939 267 L938 244 L935 179 Q931 120 905 98 Q879 76 814 76 L748 76 Q696 76 671.5 101.5 Q647 127 647 186 L647 497 L719 497 L719 359 Q828 409 897 455 L932 391 Q896 368 833.5 335.5 Q771 303 719 279 L719 205 Q719 176 729.5 165.5 Q740 155 765 155 L805 155 Q841 155 852.5 166 Q864 177 866 212 L870 285 Z" /><glyph glyph-name="uni4E58" unicode="&#x4e58;" d="M537 333 Q607 232 706.5 163.5 Q806 95 956 40 L924 -38 Q794 17 699.5 82.5 Q605 148 537 232 L537 -72 L461 -72 L461 232 Q393 150 305 87 Q217 24 85 -38 L46 37 Q212 110 302 172.5 Q392 235 461 331 L461 566 L63 566 L63 636 L461 636 L461 720 Q227 712 147 711 L143 777 Q291 779 497 789 Q703 799 845 811 L854 742 Q738 733 537 724 L537 636 L941 636 L941 566 L537 566 L537 333 ZM61 292 Q82 296 277 350 L277 409 L85 409 L85 471 L277 471 L277 536 L347 536 L347 236 L277 236 L277 285 Q221 270 162.5 253 Q104 236 75 227 L61 292 ZM651 536 L720 536 L720 441 Q821 479 888 519 L916 460 Q848 425 720 376 L720 331 Q720 309 730 300.5 Q740 292 764 290 Q787 289 809 290 Q842 292 853 301 Q864 310 867 338 Q869 359 869 402 L931 389 L927 317 Q925 267 900.5 249 Q876 231 815 229 L780 228 L745 229 Q695 231 673 252 Q651 273 651 322 L651 536 Z" /><glyph glyph-name="uni4E59" unicode="&#x4e59;" d="M83 100 Q83 146 118 197 Q153 248 276.5 358.5 Q400 469 667 685 L135 685 L135 766 L806 766 L806 686 Q544 481 405 361 Q266 241 220.5 187.5 Q175 134 175 111 Q175 90 182 79 Q189 68 208.5 61.5 Q228 55 267 52 Q382 43 499 43 Q615 43 730 52 Q768 55 788 63.5 Q808 72 817.5 91 Q827 110 830 146 Q834 208 837 305 L922 282 L918 223 Q914 152 911 115 Q909 64 891 35 Q873 6 837 -8 Q801 -22 739 -27 Q616 -36 491 -36 Q368 -36 243 -27 Q83 -16 83 100 Z" /><glyph glyph-name="uni4E5D" unicode="&#x4e5d;" d="M950 227 Q945 88 943 60 Q941 6 915.5 -17.5 Q890 -41 832 -46 Q813 -48 775 -48 Q737 -48 718 -46 Q668 -42 644 -14.5 Q620 13 620 77 L620 550 L396 550 Q391 382 365.5 280.5 Q340 179 280.5 100 Q221 21 101 -77 L39 -11 Q152 78 206.5 146 Q261 214 284.5 304.5 Q308 395 312 550 L75 550 L75 635 L313 635 Q318 818 319 839 L403 839 L399 635 L704 635 L704 93 Q704 62 711.5 48.5 Q719 35 741 32 Q767 30 778 30 Q791 30 815 32 Q844 35 854.5 48 Q865 61 867 93 Q869 124 870.5 157.5 Q872 191 873 214 L874 243 L950 227 Z" /><glyph glyph-name="uni4E5E" unicode="&#x4e5e;" d="M904 729 L904 650 L288 650 Q220 560 121 467 L68 535 Q157 614 215.5 691 Q274 768 313 856 L393 824 Q374 783 342 729 L904 729 ZM809 118 Q811 145 812.5 183 Q814 221 814 246 L902 225 Q901 196 898 155 Q895 114 892 86 Q887 34 871.5 4.5 Q856 -25 822 -40 Q788 -55 727 -58 Q615 -64 501 -64 Q389 -64 275 -58 Q212 -54 179 -23.5 Q146 7 146 51 Q146 95 184 140.5 Q222 186 312.5 253 Q403 320 589 443 L223 443 L223 521 L757 521 L757 448 Q522 299 413.5 224 Q305 149 276.5 119.5 Q248 90 247 68 Q247 23 313 19 Q412 13 512 13 Q611 13 710 19 Q764 23 785 45.5 Q806 68 809 118 Z" /><glyph glyph-name="uni4E5F" unicode="&#x4e5f;" d="M943 195 Q935 90 933 70 Q930 24 916.5 -1 Q903 -26 874.5 -38 Q846 -50 795 -53 Q689 -60 567 -60 Q444 -60 338 -53 Q256 -48 221 -10.5 Q186 27 186 114 L186 437 L59 405 L44 485 L186 520 L186 725 L266 725 L266 539 L465 588 L465 838 L546 838 L546 608 L861 685 Q862 622 854.5 512.5 Q847 403 839 338 Q831 274 804.5 248 Q778 222 716 221 Q660 219 615 226 L599 304 Q647 296 689 296 Q714 296 727 302.5 Q740 309 747 325.5 Q754 342 759 375 Q773 473 774 584 L546 527 L546 123 L465 123 L465 507 L266 457 L266 141 Q266 96 274.5 72 Q283 48 305 37 Q327 26 369 23 Q483 16 564 16 Q644 16 758 23 Q801 26 820.5 34 Q840 42 847 60 Q854 78 855 116 Q860 174 860 215 L943 195 Z" /><glyph glyph-name="uni4E60" unicode="&#x4e60;" d="M873 773 Q873 635 865.5 429.5 Q858 224 846 118 Q839 54 821 19.5 Q803 -15 768 -30.5 Q733 -46 669 -48 Q655 -49 625 -49 Q556 -49 494 -42 L477 40 Q552 30 610 30 Q671 30 699 38 Q727 46 739.5 70.5 Q752 95 758 151 Q770 259 777 415.5 Q784 572 783 688 L102 688 L102 773 L873 773 ZM236 639 Q285 610 359.5 557.5 Q434 505 494 459 L441 385 Q383 433 308.5 487 Q234 541 182 572 L236 639 ZM72 154 Q228 209 400 280.5 Q572 352 681 409 L702 325 Q594 271 423.5 198.5 Q253 126 104 71 L72 154 Z" /><glyph glyph-name="uni4E61" unicode="&#x4e61;" d="M851 515 Q840 456 834 433 Q800 281 724 185.5 Q648 90 500.5 28.5 Q353 -33 98 -76 L64 4 Q245 33 364.5 69 Q484 105 559.5 154 Q635 203 680 272 Q458 253 280 232 L235 226 Q187 220 177 218 L153 305 Q182 311 196 315.5 Q210 320 229 332 Q336 397 476 510 Q335 495 252 484 Q194 477 157 470 L134 559 Q176 568 196 584 Q253 628 333 707 Q413 786 468 854 L532 806 Q477 739 412.5 671.5 Q348 604 293 557 L545 588 Q556 590 574 592 Q681 685 756 761 L818 707 Q713 599 586.5 491.5 Q460 384 349 310 Q417 318 534 329 L719 347 Q739 394 753 455 Q763 496 766 530 L851 515 Z" /><glyph glyph-name="uni4E66" unicode="&#x4e66;" d="M903 624 Q860 658 786.5 709.5 Q713 761 670 786 L716 851 Q762 824 836 774 Q910 724 952 692 L903 624 ZM796 681 L769 399 L919 399 Q911 279 889 136 Q879 69 846 41.5 Q813 14 746 14 Q669 14 600 21 L583 99 Q669 90 728 90 Q765 90 781.5 105 Q798 120 807 163 Q820 226 828 320 L439 320 L439 -77 L359 -77 L359 320 L42 320 L42 399 L359 399 L359 601 L107 601 L107 681 L359 681 L359 844 L439 844 L439 681 L796 681 ZM708 601 L439 601 L439 399 L689 399 L708 601 Z" /><glyph glyph-name="uni4E69" unicode="&#x4e69;" d="M943 226 Q943 186 940 126 L939 77 Q938 32 929 7.5 Q920 -17 902 -27.5 Q884 -38 852 -41 Q815 -45 771 -45 Q728 -45 691 -41 Q656 -38 635 -26.5 Q614 -15 603.5 12.5 Q593 40 593 90 L593 833 L672 833 L672 106 Q672 77 678.5 62.5 Q685 48 697.5 42.5 Q710 37 734 35 Q746 34 768 34 Q791 34 802 35 Q826 37 838 42.5 Q850 48 855.5 62 Q861 76 861 105 Q864 192 864 243 L943 226 ZM235 829 L313 829 L313 662 L530 662 L530 586 L313 586 L313 399 L472 399 L472 -38 L94 -38 L94 399 L235 399 L235 829 ZM172 41 L395 41 L395 318 L172 318 L172 41 Z" /><glyph glyph-name="uni4E70" unicode="&#x4e70;" d="M811 516 L738 548 L817 705 L101 705 L101 780 L901 780 L901 704 L811 516 ZM426 484 Q380 515 312 554 Q244 593 200 613 L237 678 Q387 601 466 555 L426 484 ZM943 216 L580 216 Q570 192 564 181 Q844 41 931 -1 L888 -73 Q746 3 521 117 Q466 52 366 6.5 Q266 -39 98 -80 L69 -2 Q258 39 355 89 Q452 139 493 216 L64 216 L64 291 L521 291 Q537 350 540 464 Q544 628 544 667 L626 667 Q626 622 624.5 560 Q623 498 621 453 Q616 358 602 291 L943 291 L943 216 ZM153 525 Q204 502 276 464 Q348 426 395 397 L362 328 Q312 358 240 397 Q168 436 118 461 L153 525 Z" /><glyph glyph-name="uni4E71" unicode="&#x4e71;" d="M940 230 Q937 181 933 72 Q932 26 920.5 1.5 Q909 -23 886.5 -33.5 Q864 -44 823 -47 Q804 -49 766 -49 Q727 -49 708 -47 Q665 -44 641 -32 Q617 -20 605.5 7 Q594 34 594 84 L594 828 L673 828 L673 101 Q673 73 679 58.5 Q685 44 696 38.5 Q707 33 727 31 Q753 29 766 29 Q779 29 805 31 Q826 33 836.5 38 Q847 43 851.5 57 Q856 71 857 100 Q858 128 859 172.5 Q860 217 860 247 L940 230 ZM330 548 L527 548 L527 472 L330 472 L330 327 L480 327 L480 -41 L100 -41 L100 327 L251 327 L251 472 L42 472 L42 548 L251 548 L251 690 Q151 679 68 673 L61 749 Q171 757 287 771 Q403 785 485 802 L499 726 Q431 712 330 699 L330 548 ZM177 35 L401 35 L401 248 L177 248 L177 35 Z" /><glyph glyph-name="uni4E73" unicode="&#x4e73;" d="M949 226 Q949 193 947 147 Q945 101 943 70 Q941 6 914.5 -22 Q888 -50 827 -55 Q810 -57 776 -57 Q741 -57 724 -55 Q663 -50 638 -19 Q613 12 613 82 L613 828 L690 828 L690 95 Q690 55 701 39.5 Q712 24 740 21 Q764 19 776 19 Q787 19 811 21 Q844 25 855.5 40.5 Q867 56 868 96 Q869 124 871 168.5 Q873 213 873 241 L949 226 ZM61 768 Q178 774 312.5 787 Q447 800 545 818 L557 743 Q459 726 320.5 712.5 Q182 699 67 693 L61 768 ZM542 676 L526 641 Q492 561 464 506 L402 536 Q429 588 481 703 L542 676 ZM308 691 Q322 661 338.5 620 Q355 579 366 548 L301 524 Q294 545 277 588.5 Q260 632 246 665 L308 691 ZM150 504 Q141 528 119.5 572 Q98 616 82 644 L145 674 Q159 649 181 603.5 Q203 558 212 535 L150 504 ZM550 214 L406 191 L353 182 L353 54 Q353 -4 327.5 -30 Q302 -56 243 -56 Q188 -56 148 -51 L133 20 Q179 12 219 12 Q253 12 264 25 Q275 38 275 73 L275 168 Q156 148 48 127 L44 203 L275 242 L275 311 L415 418 L84 418 L84 488 L528 488 L528 421 L353 280 L353 255 Q427 268 547 287 L550 214 Z" /><glyph glyph-name="uni4E7E" unicode="&#x4e7e;" d="M946 711 L946 634 L604 634 Q572 581 529 524 L466 569 Q519 635 554.5 700.5 Q590 766 619 851 L694 832 Q669 763 645 711 L946 711 ZM444 248 L303 248 L303 159 L468 159 L468 86 L303 86 L303 -72 L227 -72 L227 86 L41 86 L41 159 L227 159 L227 248 L85 248 L85 588 L227 588 L227 669 L54 669 L54 740 L227 740 L227 841 L303 841 L303 740 L477 740 L477 669 L303 669 L303 588 L444 588 L444 248 ZM370 450 L370 522 L158 522 L158 450 L370 450 ZM860 85 Q862 112 863.5 148 Q865 184 865 207 L939 191 Q939 166 937.5 128 Q936 90 934 61 Q930 5 905 -19.5 Q880 -44 822 -49 Q762 -54 713 -54 Q665 -54 603 -49 Q548 -45 522 -21.5 Q496 2 496 45 Q496 102 555.5 190 Q615 278 755 428 L541 428 L541 501 L855 501 L855 428 Q706 260 646 174.5 Q586 89 586 64 Q586 45 594.5 35 Q603 25 624 23 Q664 19 714 19 Q764 19 804 23 Q837 26 848 39 Q859 52 860 85 ZM370 385 L158 385 L158 314 L370 314 L370 385 Z" /><glyph glyph-name="uni4E86" unicode="&#x4e86;" d="M891 772 L891 688 L549 455 L549 73 Q549 20 535 -8 Q521 -36 487 -47.5 Q453 -59 389 -59 Q339 -59 276 -49 L259 33 Q334 19 389 19 Q420 19 435 25.5 Q450 32 456 49.5 Q462 67 462 104 L462 499 L749 688 L89 688 L89 772 L891 772 Z" /><glyph glyph-name="uni4E88" unicode="&#x4e88;" d="M920 473 L920 394 Q893 353 847 286 Q801 219 773 178 L702 224 Q719 245 813 372 L829 394 L544 394 L544 65 Q544 17 533 -10 Q522 -37 495 -48.5 Q468 -60 418 -60 Q347 -60 297 -55 L281 22 Q342 14 396 14 Q436 14 449.5 32 Q463 50 463 96 L463 394 L67 394 L67 473 L476 473 Q425 516 365 562.5 Q305 609 271 632 L320 691 Q367 658 496 557 Q645 656 719 717 L139 717 L139 793 L852 793 L852 717 Q803 680 717 617.5 Q631 555 560 505 L601 473 L920 473 Z" /><glyph glyph-name="uni4E89" unicode="&#x4e89;" d="M948 411 L948 342 L834 342 L834 161 L524 161 L524 65 Q524 2 496 -27 Q468 -56 407 -56 Q347 -56 287 -50 L271 24 Q333 16 388 16 Q420 16 433 32.5 Q446 49 446 88 L446 161 L133 161 L133 230 L446 230 L446 342 L44 342 L44 411 L446 411 L446 521 L183 521 L183 580 Q151 553 106 520 L54 582 Q138 640 212 713 Q286 786 337 861 L416 833 Q395 800 374 774 L733 774 L733 702 L624 591 L834 591 L834 411 L948 411 ZM312 701 Q266 650 196 591 L517 591 L626 701 L312 701 ZM759 521 L524 521 L524 411 L759 411 L759 521 ZM524 230 L759 230 L759 342 L524 342 L524 230 Z" /><glyph glyph-name="uni4E8B" unicode="&#x4e8b;" d="M949 285 L949 223 L860 223 L860 97 L536 97 L536 56 Q536 -9 511 -36.5 Q486 -64 428 -64 Q351 -64 296 -59 L281 13 Q356 6 409 6 Q438 6 449.5 21 Q461 36 461 73 L461 97 L97 97 L97 160 L461 160 L461 223 L41 223 L41 285 L461 285 L461 348 L105 348 L105 410 L461 410 L461 469 L151 469 L151 647 L461 647 L461 707 L58 707 L58 772 L461 772 L461 845 L536 845 L536 772 L932 772 L932 707 L536 707 L536 647 L840 647 L840 469 L536 469 L536 410 L860 410 L860 285 L949 285 ZM226 589 L226 527 L461 527 L461 589 L226 589 ZM764 527 L764 589 L536 589 L536 527 L764 527 ZM788 348 L536 348 L536 285 L788 285 L788 348 ZM536 160 L788 160 L788 223 L536 223 L536 160 Z" /><glyph glyph-name="uni4E8C" unicode="&#x4e8c;" d="M136 722 L864 722 L864 635 L136 635 L136 722 ZM52 104 L947 104 L947 20 L52 20 L52 104 Z" /><glyph glyph-name="uni4E8E" unicode="&#x4e8e;" d="M946 462 L946 382 L558 382 L558 78 Q558 3 523.5 -26.5 Q489 -56 403 -56 Q352 -56 282 -49 L265 31 Q345 21 386 21 Q423 21 440.5 27.5 Q458 34 464 51 Q470 68 470 103 L470 382 L51 382 L51 462 L470 462 L470 697 L123 697 L123 776 L875 776 L875 697 L558 697 L558 462 L946 462 Z" /><glyph glyph-name="uni4E8F" unicode="&#x4e8f;" d="M143 773 L854 773 L854 694 L143 694 L143 773 ZM943 472 L342 472 L310 344 L808 344 Q805 290 798.5 220 Q792 150 782 93 Q771 30 753.5 0 Q736 -30 701.5 -41 Q667 -52 597 -53 L567 -53 Q492 -53 417 -47 L401 32 Q487 23 573 23 Q615 23 636.5 30.5 Q658 38 670 58 Q682 78 691 120 Q705 190 709 265 L201 265 L250 472 L54 472 L54 552 L943 552 L943 472 Z" /><glyph glyph-name="uni4E91" unicode="&#x4e91;" d="M141 781 L859 781 L859 701 L141 701 L141 781 ZM492 428 Q442 335 370.5 229 Q299 123 238 58 L287 62 Q322 65 467.5 79 Q613 93 737 109 Q671 214 612 299 L681 341 Q729 275 801 166 Q873 57 920 -21 L847 -71 L784 33 L254 -14 L116 -26 L91 58 Q122 69 137 78 Q152 87 167 104 Q226 172 290 261 Q354 350 397 428 L61 428 L61 509 L938 509 L938 428 L492 428 Z" /><glyph glyph-name="uni4E92" unicode="&#x4e92;" d="M798 552 L752 35 L950 35 L950 -39 L54 -39 L54 35 L666 35 L683 206 L194 206 L286 710 L87 710 L87 785 L916 785 L916 710 L370 710 L340 552 L798 552 ZM327 479 L289 279 L691 279 L711 479 L327 479 Z" /><glyph glyph-name="uni4E94" unicode="&#x4e94;" d="M796 473 L781 51 L949 51 L949 -26 L51 -26 L51 51 L259 51 L318 393 L114 393 L114 473 L332 473 L372 704 L94 704 L94 781 L913 781 L913 704 L458 704 L417 473 L796 473 ZM710 393 L403 393 L343 51 L697 51 L710 393 Z" /><glyph glyph-name="uni4E95" unicode="&#x4e95;" d="M950 336 L950 255 L734 255 L734 -75 L650 -75 L650 255 L365 255 Q356 182 333 127 Q310 72 268.5 23.5 Q227 -25 156 -83 L92 -19 Q157 33 193.5 72.5 Q230 112 250 154.5 Q270 197 278 255 L50 255 L50 336 L285 336 Q286 357 286 404 L286 569 L82 569 L82 649 L286 649 L286 829 L372 829 L372 649 L650 649 L650 831 L734 831 L734 649 L919 649 L919 569 L734 569 L734 336 L950 336 ZM650 336 L650 569 L372 569 L372 413 Q372 360 371 336 L650 336 Z" /><glyph glyph-name="uni4E98" unicode="&#x4e98;" d="M88 786 L909 786 L909 708 L88 708 L88 786 ZM816 610 L816 157 L182 157 L182 610 L816 610 ZM737 418 L737 536 L259 536 L259 418 L737 418 ZM259 348 L259 229 L737 229 L737 348 L259 348 ZM57 -33 L57 44 L941 44 L941 -33 L57 -33 Z" /><glyph glyph-name="uni4E9A" unicode="&#x4e9a;" d="M655 720 L655 52 L946 52 L946 -23 L55 -23 L55 52 L345 52 L345 720 L84 720 L84 788 L917 788 L917 720 L655 720 ZM573 720 L427 720 L427 52 L573 52 L573 720 ZM177 597 Q196 552 245.5 416 Q295 280 314 221 L235 187 Q213 263 167 396 Q121 529 103 567 L177 597 ZM684 220 Q724 308 765.5 415 Q807 522 827 595 L900 564 Q876 487 832.5 373.5 Q789 260 754 186 L684 220 Z" /><glyph glyph-name="uni4E9B" unicode="&#x4e9b;" d="M942 507 Q942 493 938 451 L935 419 Q931 367 906.5 345 Q882 323 828 318 Q789 314 741 314 Q693 314 654 318 Q609 323 586 347 Q563 371 563 426 L563 839 L645 839 L645 624 Q709 654 777.5 692 Q846 730 885 758 L919 680 Q874 651 792 610.5 Q710 570 645 544 L645 454 Q645 420 656 408 Q667 396 694 393 Q721 390 749 390 Q776 390 803 393 Q835 396 847 407.5 Q859 419 862 454 L865 502 L866 526 L942 507 ZM52 364 Q82 369 130 379 L130 752 L210 752 L210 395 L311 416 L311 834 L390 834 L390 664 L521 664 L521 591 L390 591 L390 433 L518 462 L529 381 L68 285 L52 364 ZM825 235 L825 158 L177 158 L177 235 L825 235 ZM934 -25 L68 -25 L68 51 L934 51 L934 -25 Z" /><glyph glyph-name="uni4E9F" unicode="&#x4e9f;" d="M458 598 L696 714 L138 714 L138 789 L864 789 L864 719 L536 558 L536 199 Q536 156 528 132 Q520 108 498 97 Q476 86 433 86 Q384 86 334 92 L320 168 Q366 160 403 160 Q436 160 447 173 Q458 186 458 221 L458 598 ZM102 574 L365 574 L365 215 L102 215 L102 574 ZM910 572 L910 503 Q873 399 807 313 Q870 254 928 196 L873 142 Q806 212 759 257 Q701 196 615 132 L571 190 Q650 245 710 306 L618 396 L590 423 L640 470 Q680 434 711 404 L757 361 Q805 424 836 502 L603 502 L603 572 L910 572 ZM173 288 L295 288 L295 499 L173 499 L173 288 ZM925 -32 L77 -32 L77 39 L925 39 L925 -32 Z" /><glyph glyph-name="uni4EA1" unicode="&#x4ea1;" d="M944 579 L270 579 L270 56 L886 56 L886 -22 L182 -22 L182 579 L57 579 L57 660 L478 660 Q469 700 453.5 753.5 Q438 807 428 835 L511 851 Q537 777 568 660 L944 660 L944 579 Z" /><glyph glyph-name="uni4EA2" unicode="&#x4ea2;" d="M923 698 L923 619 L86 619 L86 698 L472 698 Q435 779 411 826 L501 846 Q520 809 568 698 L923 698 ZM939 213 Q938 181 935 129.5 Q932 78 930 61 Q926 4 903.5 -22.5 Q881 -49 840 -52 Q820 -54 779 -54 Q739 -54 718 -52 Q663 -48 640 -21 Q617 6 617 68 L617 419 L351 419 L351 326 Q351 215 333 149.5 Q315 84 267 33.5 Q219 -17 121 -78 L59 -8 Q157 48 199.5 90 Q242 132 255.5 184.5 Q269 237 269 339 L269 499 L700 499 L700 93 Q700 58 709 44.5 Q718 31 744 27 Q768 25 780 25 Q791 25 815 27 Q836 29 844.5 41.5 Q853 54 855 87 Q857 115 858.5 157.5 Q860 200 860 228 L939 213 Z" /><glyph glyph-name="uni4EA4" unicode="&#x4ea4;" d="M932 727 L932 647 L67 647 L67 727 L466 727 Q438 794 422 825 L504 852 Q536 782 556 727 L932 727 ZM871 335 Q821 379 728 450 Q635 521 575 561 L624 620 Q681 584 773 516 Q865 448 921 401 L871 335 ZM76 391 Q151 438 222.5 497 Q294 556 351 618 L412 566 Q353 503 278 439 Q203 375 124 321 L76 391 ZM928 -65 Q779 -25 677 18 Q575 61 500 118 Q425 61 323 15 Q221 -31 76 -74 L39 3 Q175 40 271.5 80.5 Q368 121 438 171 Q356 249 278 383 L345 424 Q418 298 500 222 Q584 301 645 425 L717 388 Q647 254 562 172 Q633 122 729 85 Q825 48 961 17 L928 -65 Z" /><glyph glyph-name="uni4EA5" unicode="&#x4ea5;" d="M936 707 L936 631 L467 631 Q425 572 378 515.5 Q331 459 294 427 L546 453 Q612 522 674 609 L742 562 Q630 402 482 292 Q334 182 96 82 L57 155 Q195 208 293.5 261.5 Q392 315 469 380 L203 351 Q186 350 152 346 L131 420 Q162 428 174.5 432.5 Q187 437 197 444 Q229 469 277.5 523.5 Q326 578 363 631 L62 631 L62 707 L473 707 Q442 775 412 830 L496 859 Q534 782 564 707 L936 707 ZM847 388 Q744 254 619 156 Q683 125 774.5 74.5 Q866 24 917 -8 L869 -84 Q815 -47 717.5 12.5 Q620 72 553 108 Q397 1 157 -91 L113 -15 Q352 70 510 176.5 Q668 283 785 437 L847 388 Z" /><glyph glyph-name="uni4EA6" unicode="&#x4ea6;" d="M934 619 L662 619 L662 61 Q662 13 650 -14.5 Q638 -42 606.5 -54.5 Q575 -67 516 -67 Q471 -67 424 -61 L407 20 Q461 11 515 11 Q543 11 557 18 Q571 25 575.5 39.5 Q580 54 580 83 L580 619 L433 619 Q433 523 428 423 Q421 284 398.5 199 Q376 114 327.5 50.5 Q279 -13 186 -89 L122 -28 Q212 39 257 96.5 Q302 154 321 228.5 Q340 303 346 431 Q351 527 351 619 L62 619 L62 696 L472 696 Q432 788 417 816 L501 850 Q523 807 560 723 L572 696 L934 696 L934 619 ZM777 522 Q809 458 861.5 342.5 Q914 227 946 149 L868 115 Q841 182 792 294.5 Q743 407 705 491 L777 522 ZM269 495 Q240 401 199 304.5 Q158 208 108 125 L39 164 Q138 324 193 518 L269 495 Z" /><glyph glyph-name="uni4EA7" unicode="&#x4ea7;" d="M940 646 L732 646 Q710 558 687 479 L923 479 L923 400 L221 400 L221 298 Q221 208 212.5 148.5 Q204 89 180.5 37 Q157 -15 111 -73 L37 -27 Q85 29 107 74 Q129 119 136 171.5 Q143 224 143 315 L143 479 L334 479 Q323 530 295 646 L86 646 L86 725 L487 725 Q478 749 445 828 L525 849 Q550 791 575 725 L940 725 L940 646 ZM605 479 Q630 557 651 646 L379 646 L391 600 Q415 505 421 479 L605 479 Z" /><glyph glyph-name="uni4EA8" unicode="&#x4ea8;" d="M933 740 L933 670 L66 670 L66 740 L477 740 Q459 777 432 820 L514 848 Q545 792 565 740 L933 740 ZM180 393 L180 599 L820 599 L820 393 L180 393 ZM256 456 L744 456 L744 534 L256 534 L256 456 ZM100 259 L100 329 L872 329 L872 259 L551 133 L551 47 Q551 -14 530 -39.5 Q509 -65 457 -66 Q399 -67 308 -58 L293 17 Q383 5 427 5 Q451 5 460 20.5 Q469 36 469 68 L469 172 L710 259 L100 259 Z" /><glyph glyph-name="uni4EA9" unicode="&#x4ea9;" d="M942 720 L942 643 L60 643 L60 720 L467 720 Q429 789 405 828 L487 851 Q500 832 522 793.5 Q544 755 562 720 L942 720 ZM225 -65 L146 -65 L146 533 L855 533 L855 -65 L777 -65 L777 -11 L225 -11 L225 -65 ZM462 301 L462 456 L225 456 L225 301 L462 301 ZM540 301 L777 301 L777 456 L540 456 L540 301 ZM225 226 L225 65 L462 65 L462 226 L225 226 ZM540 226 L540 65 L777 65 L777 226 L540 226 Z" /><glyph glyph-name="uni4EAB" unicode="&#x4eab;" d="M932 746 L932 678 L66 678 L66 746 L474 746 Q455 783 429 825 L513 848 Q543 798 565 746 L932 746 ZM820 616 L820 428 L179 428 L179 616 L820 616 ZM744 557 L255 557 L255 488 L744 488 L744 557 ZM951 194 L951 126 L549 126 L549 45 Q549 -15 527 -41 Q505 -67 453 -68 Q399 -69 308 -60 L293 15 Q365 5 419 5 Q447 5 458.5 21.5 Q470 38 470 71 L470 126 L48 126 L48 194 L470 194 L470 223 L684 299 L127 299 L127 366 L845 366 L845 299 L560 194 L951 194 Z" /><glyph glyph-name="uni4EAC" unicode="&#x4eac;" d="M941 728 L941 654 L59 654 L59 728 L467 728 Q445 778 419 824 L498 850 Q535 780 557 728 L941 728 ZM825 265 L555 265 L555 40 Q555 -18 526.5 -41.5 Q498 -65 426 -65 Q385 -65 327 -58 L311 23 Q364 14 415 14 Q450 14 460.5 25.5 Q471 37 471 74 L471 265 L173 265 L173 559 L825 559 L825 265 ZM743 485 L255 485 L255 340 L743 340 L743 485 ZM340 178 Q297 126 227.5 63.5 Q158 1 92 -48 L40 22 Q101 63 169 121.5 Q237 180 280 232 L340 178 ZM701 231 Q776 176 961 18 L906 -47 Q864 -7 785 59 Q706 125 652 167 L701 231 Z" /><glyph glyph-name="uni4EAD" unicode="&#x4ead;" d="M934 749 L934 681 L66 681 L66 749 L463 749 Q441 803 430 828 L511 854 Q527 819 553 749 L934 749 ZM190 444 L190 620 L811 620 L811 444 L190 444 ZM266 501 L736 501 L736 561 L266 561 L266 501 ZM168 209 L94 209 L94 383 L908 383 L908 207 L833 207 L833 313 L168 313 L168 209 ZM200 170 L200 240 L802 240 L802 170 L561 170 L561 51 Q561 -12 534 -38 Q507 -64 438 -64 Q370 -64 321 -59 L305 19 Q370 12 417 12 Q455 12 468 26 Q481 40 481 75 L481 170 L200 170 Z" /><glyph glyph-name="uni4EAE" unicode="&#x4eae;" d="M936 750 L936 683 L66 683 L66 750 L467 750 Q444 803 430 827 L511 847 Q527 818 557 750 L936 750 ZM195 430 L195 620 L809 620 L809 430 L195 430 ZM276 490 L728 490 L728 559 L276 559 L276 490 ZM173 203 L93 203 L93 370 L911 370 L911 202 L830 202 L830 305 L173 305 L173 203 ZM853 151 L929 135 Q928 90 923 35 Q918 -19 896 -39 Q874 -59 825 -63 Q789 -66 762 -66 Q728 -66 696 -62 Q663 -59 644.5 -50.5 Q626 -42 617 -22.5 Q608 -3 608 34 L608 170 L368 170 L368 132 Q368 83 342.5 45.5 Q317 8 255.5 -23.5 Q194 -55 86 -81 L50 -9 Q153 14 203.5 38.5 Q254 63 271.5 94.5 Q289 126 289 179 L289 235 L689 235 L689 59 Q689 32 697 23.5 Q705 15 728 13 Q742 12 764 12 Q787 12 801 13 Q828 15 837.5 25 Q847 35 849 67 L853 151 Z" /><glyph glyph-name="uni4EB2" unicode="&#x4eb2;" d="M943 499 L943 423 L553 423 L553 312 L913 312 L913 238 L553 238 L553 55 Q553 11 543 -13.5 Q533 -38 508.5 -49 Q484 -60 438 -60 Q376 -60 332 -55 L315 26 Q369 18 418 18 Q450 18 460.5 32 Q471 46 471 87 L471 238 L87 238 L87 312 L471 312 L471 423 L54 423 L54 499 L306 499 L261 660 L106 660 L106 736 L474 736 Q452 791 429 837 L512 851 Q531 815 561 736 L893 736 L893 660 L737 660 L703 499 L943 499 ZM342 660 L388 499 L623 499 L659 660 L342 660 ZM350 159 Q305 112 235 55 Q165 -2 98 -47 L53 23 Q114 60 180 113 Q246 166 295 215 L350 159 ZM680 208 Q730 178 810.5 122.5 Q891 67 938 31 L890 -37 Q840 3 765.5 55.5 Q691 108 634 144 L680 208 Z" /><glyph glyph-name="uni4EB3" unicode="&#x4eb3;" d="M927 746 L927 686 L62 686 L62 746 L463 746 Q452 773 429 825 L507 847 Q532 792 550 746 L927 746 ZM186 465 L186 636 L804 636 L804 465 L186 465 ZM268 523 L723 523 L723 578 L268 578 L268 523 ZM901 415 L901 255 L821 255 L821 355 L170 355 L170 253 L90 253 L90 415 L901 415 ZM818 59 Q821 78 822 102 L896 82 Q895 75 894.5 61.5 Q894 48 892 31 Q886 -17 863 -37 Q840 -57 789 -61 Q728 -66 642 -66 Q556 -66 495 -61 Q448 -58 426 -34 Q404 -10 404 44 L404 94 L62 74 L57 140 L404 159 L404 225 Q324 218 223 212 L219 276 Q347 282 494.5 294 Q642 306 763 321 L771 258 Q626 242 486 231 L486 164 L929 189 L933 125 L486 99 L486 59 Q486 31 495 19 Q504 7 527 5 Q584 -1 641 -1 Q702 -1 763 5 Q791 7 802.5 18.5 Q814 30 818 59 Z" /><glyph glyph-name="uni4EB5" unicode="&#x4eb5;" d="M928 752 L928 688 L67 688 L67 752 L466 752 Q441 804 425 832 L502 850 Q526 808 552 752 L928 752 ZM241 405 L70 375 L61 439 Q165 455 241 468 L241 545 L94 545 L94 608 L241 608 L241 666 L313 666 L313 608 L432 608 L432 545 L313 545 L313 480 L407 495 L416 434 Q388 431 313 418 L313 347 Q313 295 289.5 272.5 Q266 250 213 250 Q163 250 128 255 L114 325 Q164 317 208 317 Q227 317 234 328.5 Q241 340 241 369 L241 405 ZM763 342 Q755 374 752 413 Q749 452 749 508 L749 543 L629 543 Q625 490 606 448 L733 396 L709 336 L571 395 Q546 367 507.5 341 Q469 315 412 286 L373 344 Q421 366 452.5 384 Q484 402 505 422 L441 446 L463 501 L542 472 Q555 498 560 543 L461 543 L461 604 L562 604 Q562 639 563 665 L631 665 L630 604 L822 604 L822 517 Q822 434 831 373 Q837 330 861 330 Q867 330 873 339 Q879 348 886 372 Q891 389 902 458 L965 433 Q955 380 943 335 Q919 245 858 245 Q827 245 801.5 269 Q776 293 763 342 ZM798 209 Q726 159 672 128 Q725 96 795 72 Q865 48 961 28 L931 -47 Q765 -5 662 52 Q559 109 485 203 Q434 166 371 132 L371 14 L565 75 L574 5 Q418 -39 331 -70 Q285 -86 276 -90 L250 -26 Q275 -16 284 -7.5 Q293 1 293 15 L293 95 Q193 50 62 13 L33 84 Q199 127 311 181 Q423 235 510 311 L564 268 Q553 257 539 246 Q573 203 612 171 Q687 214 756 268 L798 209 Z" /><glyph glyph-name="uni4EBA" unicode="&#x4eba;" d="M534 628 Q563 433 666 279 Q769 125 948 -2 L892 -75 Q739 46 643 172 Q547 298 502 442 Q460 297 364.5 173 Q269 49 112 -66 L54 3 Q200 106 286 211.5 Q372 317 411 441.5 Q450 566 452 730 Q454 762 454 827 L538 827 L536 699 Q536 674 534 628 Z" /><glyph glyph-name="uni4EBF" unicode="&#x4ebf;" d="M339 816 Q299 698 256 603 L256 -68 L179 -68 L179 450 Q144 387 82 294 L33 386 Q101 471 160.5 591 Q220 711 263 845 L339 816 ZM943 252 Q940 178 934 100 Q932 47 917 18.5 Q902 -10 872.5 -23 Q843 -36 791 -40 Q713 -46 636 -46 Q558 -46 480 -40 Q418 -35 384 -4.5 Q350 26 350 78 Q350 127 377 186 Q404 245 491 362 Q578 479 754 688 L404 688 L404 767 L865 767 L865 687 Q679 468 587.5 349 Q496 230 469 178.5 Q442 127 442 94 Q442 66 455 53 Q468 40 499 37 Q567 31 635 31 Q703 31 770 37 Q803 40 820 47.5 Q837 55 845.5 74 Q854 93 856 131 Q860 199 860 269 L943 252 Z" /><glyph glyph-name="uni4EC0" unicode="&#x4ec0;" d="M358 821 Q320 714 274 618 L274 -70 L193 -70 L193 468 Q139 379 79 304 L29 385 Q103 471 169.5 597 Q236 723 280 852 L358 821 ZM693 500 L957 500 L957 416 L693 416 L693 -73 L611 -73 L611 416 L339 416 L339 500 L611 500 L611 839 L693 839 L693 500 Z" /><glyph glyph-name="uni4EC1" unicode="&#x4ec1;" d="M346 825 Q312 704 260 590 L260 -71 L181 -71 L181 436 Q138 359 81 283 L34 379 Q99 465 162 593 Q225 721 266 849 L346 825 ZM372 709 L916 709 L916 626 L372 626 L372 709 ZM323 30 L323 110 L956 110 L956 30 L323 30 Z" /><glyph glyph-name="uni4EC3" unicode="&#x4ec3;" d="M353 811 Q315 700 269 604 L269 -68 L187 -68 L187 455 Q138 377 72 297 L34 384 Q103 471 165 590.5 Q227 710 270 841 L353 811 ZM952 765 L952 679 L741 679 L741 76 Q741 4 711 -26.5 Q681 -57 609 -57 Q545 -57 480 -51 L463 32 Q539 23 591 23 Q629 23 642.5 40 Q656 57 656 101 L656 679 L391 679 L391 765 L952 765 Z" /><glyph glyph-name="uni4EC4" unicode="&#x4ec4;" d="M236 708 L236 495 Q236 351 225 259.5 Q214 168 187 95.5 Q160 23 107 -62 L33 -22 Q84 59 109 125.5 Q134 192 144 273.5 Q154 355 154 486 L154 788 L941 788 L941 708 L236 708 ZM616 510 Q638 354 724 241 Q810 128 966 34 L912 -45 Q658 116 581 345 Q541 234 458.5 136.5 Q376 39 248 -53 L191 15 Q312 98 387 181 Q462 264 498 357.5 Q534 451 534 565 L534 645 L618 645 L618 567 Q618 548 616 510 Z" /><glyph glyph-name="uni4EC5" unicode="&#x4ec5;" d="M341 816 Q307 711 256 601 L256 -76 L176 -76 L176 452 Q120 361 69 299 L31 388 Q96 472 159.5 595.5 Q223 719 261 839 L341 816 ZM690 223 Q794 106 963 -7 L913 -80 Q739 40 636 158 Q528 38 352 -79 L298 -6 Q478 107 582 223 Q509 321 464 435.5 Q419 550 394 695 L361 695 L361 772 L888 772 L888 697 Q858 549 811 434.5 Q764 320 690 223 ZM475 695 Q500 569 539 471.5 Q578 374 637 291 Q699 376 739 475 Q779 574 802 695 L475 695 Z" /><glyph glyph-name="uni4EC6" unicode="&#x4ec6;" d="M383 813 Q344 709 291 606 L291 -68 L209 -68 L209 464 Q144 364 76 289 L35 370 Q206 567 307 843 L383 813 ZM911 267 Q843 322 660 459 L660 -75 L576 -75 L576 838 L660 838 L660 566 Q766 491 962 346 L911 267 Z" /><glyph glyph-name="uni4EC7" unicode="&#x4ec7;" d="M321 820 Q286 703 245 609 L245 -73 L167 -73 L167 449 Q122 371 76 309 L29 388 Q92 473 149.5 596 Q207 719 242 841 L321 820 ZM955 216 Q952 95 949 50 Q946 -4 926.5 -26.5 Q907 -49 858 -53 Q834 -55 820 -55 Q808 -55 782 -53 Q698 -47 698 50 L698 557 L543 557 L543 543 Q540 374 523 271 Q506 168 466 90.5 Q426 13 348 -74 L283 -17 Q358 66 395 134.5 Q432 203 447 294 Q462 385 466 546 L466 557 L330 557 L330 635 L468 635 Q470 753 470 801 L470 837 L547 837 L545 635 L777 635 L777 75 Q777 48 782.5 36.5 Q788 25 804 23 Q812 22 826 22 Q841 22 848 23 Q863 25 870.5 37.5 Q878 50 881 79 Q883 105 884.5 152.5 Q886 200 887 230 L955 216 Z" /><glyph glyph-name="uni4ECA" unicode="&#x4eca;" d="M32 489 Q326 640 464 839 L540 839 Q611 734 715.5 648 Q820 562 968 489 L925 416 Q789 484 676.5 575 Q564 666 501 764 Q378 581 76 417 L32 489 ZM446 597 L590 426 L527 371 Q503 405 461.5 456.5 Q420 508 387 546 L446 597 ZM813 267 Q764 188 686 89 Q608 -10 541 -79 L462 -33 Q525 27 591.5 109 Q658 191 705 265 L135 265 L135 342 L813 342 L813 267 Z" /><glyph glyph-name="uni4ECB" unicode="&#x4ecb;" d="M41 447 Q186 521 290 618.5 Q394 716 461 842 L537 842 Q611 708 715 611 Q819 514 964 444 L917 363 Q783 429 678.5 526 Q574 623 500 747 Q422 626 321.5 533 Q221 440 90 368 L41 447 ZM622 468 L706 468 L706 -68 L622 -68 L622 468 ZM112 -12 Q187 47 225 92.5 Q263 138 278.5 193 Q294 248 294 333 L294 466 L378 466 L378 341 Q378 237 360 167 Q342 97 297 39.5 Q252 -18 168 -79 L112 -12 Z" /><glyph glyph-name="uni4ECD" unicode="&#x4ecd;" d="M340 804 Q295 672 240 558 L240 -74 L162 -74 L162 419 Q122 356 75 299 L34 389 Q98 468 159 587.5 Q220 707 260 832 L340 804 ZM780 474 L919 474 Q916 364 909.5 255.5 Q903 147 895 83 Q889 31 875.5 3 Q862 -25 833.5 -37.5 Q805 -50 752 -50 Q678 -50 624 -45 L607 33 Q616 32 654 28 Q692 24 725 24 Q761 24 778 31 Q795 38 803 56.5 Q811 75 816 117 Q833 256 834 397 L697 397 L697 473 L756 694 L535 694 Q533 487 518 355.5 Q503 224 460.5 118.5 Q418 13 334 -79 L270 -25 Q351 65 390.5 161 Q430 257 443 376.5 Q456 496 457 694 L362 694 L362 772 L841 772 L841 697 L780 474 Z" /><glyph glyph-name="uni4ECE" unicode="&#x4ece;" d="M905 -80 Q808 26 748 137 Q688 248 657 386 Q626 260 562 148.5 Q498 37 385 -81 L320 -19 Q437 100 498.5 203.5 Q560 307 585 422 Q610 537 615 707 Q617 749 617 833 L702 833 Q702 806 700.5 769.5 Q699 733 697 707 Q695 663 693 642 Q706 425 772.5 270 Q839 115 969 -17 L905 -80 ZM427 253 Q356 367 317 427 Q296 289 248 180.5 Q200 72 106 -56 L32 -6 Q119 114 164 207.5 Q209 301 229 411 Q249 521 254 690 Q255 718 256.5 760.5 Q258 803 258 832 L342 832 Q342 801 340 757.5 Q338 714 337 687 Q336 635 330 552 Q399 455 493 308 L427 253 Z" /><glyph glyph-name="uni4ED1" unicode="&#x4ed1;" d="M538 836 Q609 731 719 641.5 Q829 552 971 484 L922 404 Q792 470 682 561 Q572 652 503 749 Q429 651 318.5 560.5 Q208 470 79 402 L33 479 Q172 548 283 641 Q394 734 463 836 L538 836 ZM767 228 L852 206 Q848 130 841 68 Q837 7 802 -20.5 Q767 -48 694 -53 Q627 -58 531 -58 Q436 -58 367 -53 Q316 -50 286 -35.5 Q256 -21 241.5 12 Q227 45 227 104 L227 485 L311 485 L311 305 Q411 337 530 385 Q649 433 728 473 L764 390 Q681 352 539.5 296.5 Q398 241 311 212 L311 108 Q311 76 317 59.5 Q323 43 337.5 36 Q352 29 380 27 Q460 22 525 22 Q589 22 669 27 Q706 30 725 38 Q744 46 752.5 63 Q761 80 763 112 L767 228 Z" /><glyph glyph-name="uni4ED3" unicode="&#x4ed3;" d="M500 760 Q393 615 229 495 L753 495 Q754 424 746 300 Q742 244 727.5 216 Q713 188 680 177 Q647 166 583 166 Q528 166 472 172 L457 249 Q512 241 579 241 Q615 241 632.5 247 Q650 253 657 268 Q664 283 667 315 Q672 373 672 420 L303 420 L303 120 Q303 83 309 64 Q315 45 333 36.5 Q351 28 388 25 Q483 18 544 18 Q607 18 700 25 Q739 28 757.5 35 Q776 42 784 58.5 Q792 75 795 110 L797 134 Q800 200 800 196 L883 172 Q882 139 874 72 Q869 21 855 -4 Q841 -29 811 -39.5 Q781 -50 722 -54 Q638 -61 547 -61 Q455 -61 371 -54 Q313 -50 282.5 -37 Q252 -24 238 6.5 Q224 37 224 97 L224 491 Q146 435 75 395 L32 477 Q170 549 280.5 645.5 Q391 742 458 848 L540 848 Q609 742 717 650.5 Q825 559 966 488 L924 403 Q793 473 680.5 568 Q568 663 500 760 Z" /><glyph glyph-name="uni4ED4" unicode="&#x4ed4;" d="M344 817 Q305 697 249 583 L249 -73 L169 -73 L169 436 Q124 363 76 302 L30 381 Q99 470 164 595 Q229 720 266 838 L344 817 ZM957 421 L957 339 L693 339 L693 59 Q693 -6 666.5 -31 Q640 -56 570 -59 Q557 -60 531 -60 Q486 -60 441 -54 L426 28 Q489 19 530 19 Q567 19 582.5 23.5 Q598 28 603.5 42.5 Q609 57 609 90 L609 339 L323 339 L323 421 L609 421 L609 534 L791 694 L393 694 L393 775 L911 775 L911 695 L693 502 L693 421 L957 421 Z" /><glyph glyph-name="uni4ED5" unicode="&#x4ed5;" d="M359 815 Q319 704 267 601 L267 -69 L187 -69 L187 460 Q131 371 70 300 L33 384 Q103 467 172 593 Q241 719 282 840 L359 815 ZM958 550 L958 469 L687 469 L687 52 L927 52 L927 -28 L362 -28 L362 52 L605 52 L605 469 L333 469 L333 550 L605 550 L605 836 L687 836 L687 550 L958 550 Z" /><glyph glyph-name="uni4ED6" unicode="&#x4ed6;" d="M945 193 Q945 166 943.5 130 Q942 94 940 67 Q936 2 907 -27.5 Q878 -57 806 -62 Q744 -67 655 -67 Q567 -67 503 -62 Q435 -57 405 -22 Q375 13 375 89 L375 431 L288 404 L283 480 L375 509 L375 735 L450 735 L450 533 L584 575 L584 836 L659 836 L659 599 L889 672 Q890 595 884 484 Q878 373 871 317 Q864 260 843 236.5 Q822 213 772 213 Q732 213 704 218 L687 294 Q719 286 748 286 Q772 286 782 299 Q792 312 796 352 Q808 456 809 568 L659 521 L659 122 L584 122 L584 497 L450 455 L450 113 Q450 72 456 52.5 Q462 33 479 24 Q496 15 531 12 Q593 6 656 6 Q714 6 772 12 Q814 16 832 23 Q850 30 856 47 Q862 64 864 103 Q866 137 866 208 L945 193 ZM327 808 Q294 704 247 600 L247 -72 L171 -72 L171 456 Q125 378 73 310 L32 386 Q94 464 154 584 Q214 704 251 826 L327 808 Z" /><glyph glyph-name="uni4ED7" unicode="&#x4ed7;" d="M926 -66 Q722 9 606 106 Q559 59 489.5 14 Q420 -31 323 -78 L280 -9 Q374 36 438.5 77 Q503 118 546 161 Q484 228 443 314 Q402 400 377 513 L450 532 Q471 431 506 355.5 Q541 280 596 222 Q636 282 652 360 Q668 438 670 555 L670 579 L315 579 L315 658 L670 658 L670 840 L752 840 L752 658 L943 658 L943 579 L751 579 L751 562 Q749 423 729 330.5 Q709 238 657 165 Q764 80 962 13 L926 -66 ZM339 813 Q308 701 255 587 L255 -72 L178 -72 L178 442 Q125 355 72 290 L33 369 Q102 459 165.5 587.5 Q229 716 262 835 L339 813 Z" /><glyph glyph-name="uni4ED8" unicode="&#x4ed8;" d="M341 812 Q298 686 262 607 L262 -67 L180 -67 L180 448 Q135 372 80 303 L27 379 Q92 461 154 582.5 Q216 704 259 835 L341 812 ZM952 633 L952 551 L813 551 L813 66 Q813 -4 783.5 -33.5 Q754 -63 681 -64 Q609 -66 551 -59 L534 26 Q601 17 647 17 Q683 17 700 23 Q717 29 723.5 44 Q730 59 730 91 L730 551 L332 551 L332 633 L730 633 L730 829 L813 829 L813 633 L952 633 ZM537 184 Q472 286 376 426 L443 472 Q480 420 524.5 353.5 Q569 287 605 232 L537 184 Z" /><glyph glyph-name="uni4ED9" unicode="&#x4ed9;" d="M314 818 Q281 708 236 607 L236 -73 L158 -73 L158 455 Q126 398 71 321 L31 402 Q93 488 148.5 604.5 Q204 721 237 839 L314 818 ZM827 70 L827 670 L905 670 L905 -59 L827 -59 L827 -8 L363 -8 L363 670 L440 670 L440 70 L593 70 L593 838 L673 838 L673 70 L827 70 Z" /><glyph glyph-name="uni4EDD" unicode="&#x4edd;" d="M500 743 Q430 641 330 554 Q230 467 83 382 L35 460 Q187 542 290.5 633 Q394 724 462 834 L537 834 Q603 724 710.5 629.5 Q818 535 961 459 L914 382 Q638 537 500 743 ZM810 336 L542 336 L542 51 L924 51 L924 -28 L75 -28 L75 51 L457 51 L457 336 L188 336 L188 419 L810 419 L810 336 Z" /><glyph glyph-name="uni4EDE" unicode="&#x4ede;" d="M323 818 Q285 696 239 594 L239 -76 L161 -76 L161 444 Q122 378 73 316 L27 396 Q88 479 147.5 600 Q207 721 242 840 L323 818 ZM358 763 L915 763 Q915 627 905 424.5 Q895 222 880 96 Q873 34 856 3 Q839 -28 804 -40 Q769 -52 701 -52 Q645 -52 605 -47 L591 33 Q663 24 710 24 Q743 24 759.5 31.5 Q776 39 784.5 59.5 Q793 80 798 125 Q813 256 821.5 404.5 Q830 553 830 680 L629 680 L623 521 Q616 355 589.5 251 Q563 147 507 70 Q451 -7 346 -90 L287 -25 Q390 54 440 122 Q490 190 511.5 278 Q533 366 547 525 Q551 565 553 680 L358 680 L358 763 ZM484 574 Q464 499 432 412 Q400 325 366 258 L297 293 Q332 363 362.5 444 Q393 525 412 595 L484 574 Z" /><glyph glyph-name="uni4EDF" unicode="&#x4edf;" d="M344 814 Q313 712 263 607 L263 -73 L184 -73 L184 459 Q130 370 73 301 L36 383 Q101 465 164 590 Q227 715 267 837 L344 814 ZM959 419 L959 337 L694 337 L694 -70 L611 -70 L611 337 L331 337 L331 419 L611 419 L611 668 Q473 649 395 641 L384 724 Q491 735 640 758 Q789 781 887 802 L902 719 Q803 698 694 681 L694 419 L959 419 Z" /><glyph glyph-name="uni4EE3" unicode="&#x4ee3;" d="M842 106 Q858 163 869 225 L938 193 Q925 114 906 53 Q888 -10 858 -37 Q828 -64 788 -64 Q751 -64 718 -42 Q685 -20 648 32 Q564 155 529 447 L315 428 L308 505 L521 525 Q515 581 512 642 L502 838 L584 838 L592 639 Q594 597 600 532 L936 564 L943 485 L609 455 Q626 318 654.5 223 Q683 128 715 81 Q737 51 753 40.5 Q769 30 788 30 Q806 30 818 45 Q830 60 842 106 ZM357 809 Q316 686 261 576 L261 -70 L182 -70 L182 433 Q134 355 75 280 L37 365 Q107 450 172 577 Q237 704 279 834 L357 809 ZM816 618 Q789 646 741.5 689 Q694 732 661 758 L707 812 Q745 782 793.5 741 Q842 700 866 677 L816 618 Z" /><glyph glyph-name="uni4EE4" unicode="&#x4ee4;" d="M539 841 Q680 623 967 484 L921 399 Q790 466 678 561.5 Q566 657 500 756 Q432 659 323.5 567.5 Q215 476 79 403 L31 485 Q169 552 277.5 642.5 Q386 733 462 841 L539 841 ZM458 615 Q487 584 527.5 534.5 Q568 485 593 451 L530 399 Q503 435 461.5 485 Q420 535 392 563 L458 615 ZM132 297 L132 381 L831 381 L831 292 Q697 158 588 67 L724 -2 L682 -81 Q593 -33 449 36.5 Q305 106 211 147 L250 223 Q354 179 506 106 Q610 193 714 297 L132 297 Z" /><glyph glyph-name="uni4EE5" unicode="&#x4ee5;" d="M496 517 Q406 676 336 789 L401 830 Q446 760 565 559 L496 517 ZM898 -44 Q840 28 712 171 Q666 105 591 46 Q516 -13 400 -76 L349 -2 Q498 75 577.5 152 Q657 229 691.5 325 Q726 421 738 569 Q744 640 744 812 L824 812 Q826 740 826 702 Q826 637 821 562 Q813 461 798.5 386 Q784 311 757 251 Q781 225 806 196 Q899 95 964 19 L898 -44 ZM512 295 Q304 131 214 53 Q176 21 140 -14 L86 53 Q106 73 113.5 87 Q121 101 121 118 L121 788 L203 788 L203 148 L463 364 L512 295 Z" /><glyph glyph-name="uni4EEA" unicode="&#x4eea;" d="M339 815 Q303 686 253 578 L253 -71 L174 -71 L174 431 Q132 362 72 288 L24 379 Q101 466 160 584 Q219 702 258 838 L339 815 ZM624 570 Q604 614 569.5 684 Q535 754 512 798 L584 835 Q633 746 699 611 L624 570 ZM688 200 Q797 88 963 -3 L920 -82 Q746 22 633 139 Q579 84 507.5 32.5 Q436 -19 339 -75 L292 -2 Q480 107 576 202 Q493 304 437.5 429 Q382 554 347 714 L424 740 Q454 593 504.5 476 Q555 359 632 263 Q702 351 743.5 467 Q785 583 814 763 L894 743 Q857 547 810 421 Q763 295 688 200 Z" /><glyph glyph-name="uni4EEC" unicode="&#x4eec;" d="M431 845 Q459 816 499.5 769 Q540 722 565 691 L508 638 Q486 669 445 718 Q404 767 378 795 L431 845 ZM313 821 Q282 718 236 613 L236 -67 L161 -67 L161 459 Q117 378 72 315 L31 391 Q88 473 146 599.5 Q204 726 238 842 L313 821 ZM600 775 L907 775 L907 77 Q907 18 893.5 -10.5 Q880 -39 850 -48.5 Q820 -58 759 -58 Q729 -58 669 -54 L655 23 Q706 17 756 17 Q787 17 803 23.5 Q819 30 825 47 Q831 64 831 98 L831 698 L600 698 L600 775 ZM436 -61 L359 -61 L359 654 L436 654 L436 -61 Z" /><glyph glyph-name="uni4EF0" unicode="&#x4ef0;" d="M312 823 Q280 707 239 609 L239 -67 L162 -67 L162 450 Q114 365 62 297 L31 391 Q88 473 144.5 597.5 Q201 722 237 849 L312 823 ZM581 748 Q493 700 433 681 L433 176 L558 250 L563 161 Q474 110 401 72 L356 48 L329 130 Q344 142 349.5 150.5 Q355 159 355 170 L355 746 Q400 758 453.5 779.5 Q507 801 551 824 L581 748 ZM612 767 L909 767 L909 205 Q909 139 884.5 113.5 Q860 88 800 88 Q780 88 740 92 L724 174 Q753 168 781 168 Q810 168 821 183 Q832 198 832 236 L832 689 L689 689 L689 -73 L612 -73 L612 767 Z" /><glyph glyph-name="uni4EF2" unicode="&#x4ef2;" d="M321 817 Q288 713 244 613 L244 -67 L167 -67 L167 461 Q123 386 66 311 L26 391 Q88 473 146.5 593.5 Q205 714 245 843 L321 817 ZM666 659 L904 659 L904 225 L666 225 L666 -74 L587 -74 L587 225 L342 225 L342 659 L587 659 L587 842 L666 842 L666 659 ZM423 578 L423 308 L587 308 L587 578 L423 578 ZM666 308 L823 308 L823 578 L666 578 L666 308 Z" /><glyph glyph-name="uni4EF6" unicode="&#x4ef6;" d="M960 318 L960 242 L695 242 L695 -76 L616 -76 L616 242 L313 242 L313 318 L616 318 L616 552 L451 552 Q420 457 390 389 L314 418 Q351 500 383.5 597.5 Q416 695 437 787 L509 769 Q498 717 475 631 L616 631 L616 844 L695 844 L695 631 L924 631 L924 552 L695 552 L695 318 L960 318 ZM322 818 Q289 701 247 603 L247 -73 L171 -73 L171 448 Q125 366 68 294 L31 383 Q92 468 151.5 595 Q211 722 244 841 L322 818 Z" /><glyph glyph-name="uni4EF7" unicode="&#x4ef7;" d="M655 839 Q705 721 785 627 Q865 533 970 474 L924 400 Q819 467 744.5 551 Q670 635 618 747 Q570 644 499.5 560 Q429 476 319 391 L272 463 Q495 624 579 839 L655 839 ZM332 813 Q295 702 245 596 L245 -71 L168 -71 L168 453 Q122 377 68 304 L24 381 Q95 473 155.5 593 Q216 713 256 836 L332 813 ZM444 475 L522 475 L522 335 Q522 230 509 164.5 Q496 99 466 45 Q436 -9 374 -82 L305 -32 Q362 30 391 79 Q420 128 432 185.5 Q444 243 444 333 L444 475 ZM786 -69 L709 -69 L709 473 L786 473 L786 -69 Z" /><glyph glyph-name="uni4EFB" unicode="&#x4efb;" d="M337 814 Q299 698 255 606 L255 -68 L174 -68 L174 454 Q124 373 70 306 L31 389 Q95 472 157 592 Q219 712 259 837 L337 814 ZM955 352 L676 352 L676 53 L927 53 L927 -27 L337 -27 L337 53 L593 53 L593 352 L311 352 L311 435 L593 435 L593 674 Q467 660 357 654 L348 735 Q482 742 631.5 760 Q781 778 895 803 L912 722 Q806 701 676 684 L676 435 L955 435 L955 352 Z" /><glyph glyph-name="uni4EFD" unicode="&#x4efd;" d="M718 844 Q756 710 814 613 Q872 516 963 436 L902 381 Q870 410 843 440 Q839 284 821 85 Q816 29 797.5 0.5 Q779 -28 746 -37.5 Q713 -47 656 -47 Q624 -47 564 -43 L548 34 Q599 28 651 28 Q685 28 702 35 Q719 42 726.5 59.5 Q734 77 739 115 Q755 251 758 368 L543 368 L541 346 Q533 244 512.5 175 Q492 106 450.5 48 Q409 -10 333 -76 L276 -10 Q342 41 379.5 88 Q417 135 435.5 195.5 Q454 256 461 348 Q461 361 462 368 L366 368 L366 436 L323 389 L266 442 Q428 602 503 817 L581 790 Q516 612 376 448 L836 448 Q769 524 721 616 Q673 708 639 825 L718 844 ZM322 811 Q286 691 245 596 L245 -70 L168 -70 L168 445 Q126 374 66 298 L28 380 Q93 468 150.5 588.5 Q208 709 247 836 L322 811 Z" /><glyph glyph-name="uni4EFF" unicode="&#x4eff;" d="M558 613 L554 489 Q554 479 552 461 L876 461 Q875 395 868.5 280.5 Q862 166 855 94 Q849 38 835 8.5 Q821 -21 791.5 -33.5 Q762 -46 707 -46 Q649 -46 590 -40 L574 38 Q583 37 618.5 33 Q654 29 685 29 Q719 29 737 37.5 Q755 46 763 65 Q771 84 775 121 Q790 255 791 380 L546 380 Q536 274 515 198 Q494 122 457 57 Q420 -8 358 -79 L291 -19 Q362 60 397.5 124 Q433 188 449 271 Q465 354 472 500 Q474 526 476 613 L327 613 L327 694 L600 694 Q567 774 540 834 L620 853 Q624 845 663 754 L688 694 L953 694 L953 613 L558 613 ZM333 815 Q292 694 247 598 L247 -67 L168 -67 L168 450 Q121 372 67 304 L27 386 Q93 477 150.5 593 Q208 709 249 837 L333 815 Z" /><glyph glyph-name="uni4F01" unicode="&#x4f01;" d="M502 753 Q436 666 320 569.5 Q204 473 76 400 L30 477 Q168 550 281 645 Q394 740 463 837 L539 837 Q612 735 721 643.5 Q830 552 969 477 L923 400 Q797 470 682.5 566 Q568 662 502 753 ZM845 279 L558 279 L558 47 L928 47 L928 -31 L58 -31 L58 47 L212 47 L212 414 L291 414 L291 47 L477 47 L477 567 L558 567 L558 353 L845 353 L845 279 Z" /><glyph glyph-name="uni4F0A" unicode="&#x4f0a;" d="M322 818 Q282 685 236 582 L236 -75 L158 -75 L158 431 Q119 364 69 302 L28 387 Q91 468 148.5 589.5 Q206 711 243 837 L322 818 ZM967 543 L967 463 L878 463 L878 231 L574 231 Q552 132 502.5 61.5 Q453 -9 358 -84 L297 -19 Q378 41 422 96 Q466 151 489 231 L325 231 L325 311 L505 311 Q513 373 515 463 L302 463 L302 543 L515 543 L515 696 L358 696 L358 776 L878 776 L878 543 L967 543 ZM799 696 L596 696 L596 543 L799 543 L799 696 ZM799 311 L799 463 L596 463 Q595 379 587 311 L799 311 Z" /><glyph glyph-name="uni4F0D" unicode="&#x4f0d;" d="M330 828 Q293 703 250 607 L250 -73 L171 -73 L171 454 Q123 375 68 307 L30 387 Q94 475 157 601 Q220 727 255 846 L330 828 ZM860 468 L850 48 L957 48 L957 -28 L296 -28 L296 48 L436 48 L482 389 L348 389 L348 468 L492 468 L522 689 L348 689 L348 766 L930 766 L930 689 L607 689 L577 468 L860 468 ZM775 389 L566 389 L520 48 L767 48 L775 389 Z" /><glyph glyph-name="uni4F0E" unicode="&#x4f0e;" d="M921 -81 Q739 -10 626 81 Q513 -2 312 -84 L275 -2 Q458 69 561 138 Q452 247 386 403 L339 403 L339 483 L584 483 L584 620 L325 620 L325 699 L584 699 L584 841 L667 841 L667 699 L941 699 L941 620 L667 620 L667 483 L867 483 L867 402 Q834 319 793 255 Q752 191 694 137 Q800 61 963 6 L921 -81 ZM327 814 Q288 687 246 594 L246 -75 L166 -75 L166 440 Q125 372 73 304 L25 388 Q90 475 148 593 Q206 711 244 834 L327 814 ZM477 403 Q535 274 629 190 Q681 235 714.5 286.5 Q748 338 773 403 L477 403 Z" /><glyph glyph-name="uni4F0F" unicode="&#x4f0f;" d="M341 816 Q303 697 255 596 L255 -70 L176 -70 L176 449 Q130 373 78 303 L29 387 Q93 468 156.5 593.5 Q220 719 260 845 L341 816 ZM647 490 Q669 339 748 214 Q827 89 962 -4 L899 -72 Q799 -1 725.5 100.5 Q652 202 612 318 Q580 213 512 118.5 Q444 24 328 -76 L269 -10 Q417 110 483.5 225 Q550 340 560 490 L318 490 L318 571 L562 571 L562 839 L645 839 L645 571 L942 571 L942 490 L647 490 ZM846 602 Q798 656 696 761 L750 812 Q792 774 904 657 L846 602 Z" /><glyph glyph-name="uni4F10" unicode="&#x4f10;" d="M944 179 Q932 113 913 48 Q897 -11 866 -38.5 Q835 -66 796 -66 Q757 -66 715.5 -40 Q674 -14 635 46 Q608 88 587 139 Q479 65 341 5 L301 81 Q448 142 559 218 Q526 328 507 490 L319 467 L310 546 L498 569 L492 640 Q485 719 480 812 L478 837 L559 839 Q563 731 572 631 L577 579 L923 622 L933 543 L586 500 Q602 363 629 269 Q747 363 829 488 L892 438 Q787 291 655 188 Q676 132 710 79 Q752 20 792 20 Q812 20 825 36 Q838 52 850 97 Q868 164 876 210 L944 179 ZM351 807 Q309 683 262 586 L262 -71 L183 -71 L183 443 Q131 361 74 294 L33 374 Q100 454 166.5 581.5 Q233 709 273 835 L351 807 ZM784 638 Q708 707 625 766 L670 826 Q756 765 834 697 L784 638 Z" /><glyph glyph-name="uni4F11" unicode="&#x4f11;" d="M914 45 Q824 148 761 262 Q698 376 652 517 L652 -75 L570 -75 L570 528 Q521 378 460 264.5 Q399 151 312 41 L251 108 Q344 212 408.5 324 Q473 436 521 569 L325 569 L325 653 L570 653 L570 841 L652 841 L652 653 L929 653 L929 569 L696 569 Q790 309 969 117 L914 45 ZM329 809 Q293 697 245 592 L245 -75 L168 -75 L168 446 Q124 373 65 299 L22 377 Q86 458 150 583.5 Q214 709 252 830 L329 809 Z" /><glyph glyph-name="uni4F15" unicode="&#x4f15;" d="M667 347 Q693 235 766 150.5 Q839 66 962 -4 L911 -70 Q694 66 624 243 Q553 57 333 -77 L283 -10 Q414 68 485 154 Q556 240 576 347 L324 347 L324 420 L584 420 L584 439 L585 597 L370 597 L370 669 L586 669 L586 841 L662 841 L662 669 L909 669 L909 597 L662 597 L661 443 Q661 428 660 420 L938 420 L938 347 L667 347 ZM324 814 Q287 699 237 591 L237 -70 L166 -70 L166 457 Q122 381 67 309 L28 385 Q92 472 152.5 592 Q213 712 250 833 L324 814 Z" /><glyph glyph-name="uni4F17" unicode="&#x4f17;" d="M503 741 Q434 656 335 581.5 Q236 507 92 431 L47 510 Q198 584 298.5 660 Q399 736 464 830 L540 830 Q608 731 706.5 656 Q805 581 954 510 L911 431 Q771 500 673 575 Q575 650 503 741 ZM451 146 Q419 185 328 287 Q304 192 253.5 108.5 Q203 25 114 -70 L44 -12 Q122 63 168 128.5 Q214 194 237.5 266 Q261 338 268 432 Q274 493 274 503 L356 503 Q356 487 354 464.5 Q352 442 350 427 Q348 401 346 386 Q442 283 511 206 L451 146 ZM687 404 Q707 280 773.5 181 Q840 82 958 -2 L902 -70 Q720 70 654 244 Q624 155 565.5 78 Q507 1 411 -82 L345 -19 Q436 53 491 120 Q546 187 573 260 Q600 333 607 426 L610 462 Q613 486 613 503 L696 503 L689 423 Q689 416 687 404 Z" /><glyph glyph-name="uni4F18" unicode="&#x4f18;" d="M335 816 Q302 709 250 596 L250 -71 L172 -71 L172 447 Q120 362 71 302 L33 387 Q96 464 156.5 587.5 Q217 711 256 839 L335 816 ZM938 528 L586 528 Q579 396 555 298 Q531 200 482 112.5 Q433 25 350 -70 L283 -15 Q362 71 407 148.5 Q452 226 473.5 314 Q495 402 503 528 L310 528 L310 606 L508 606 L508 616 Q510 670 511 737.5 Q512 805 512 839 L593 839 L589 614 L589 606 L938 606 L938 528 ZM823 631 Q795 661 748.5 705.5 Q702 750 674 773 L724 826 Q752 803 798.5 760 Q845 717 874 687 L823 631 ZM941 198 Q941 171 939.5 131 Q938 91 937 66 Q935 19 925.5 -2.5 Q916 -24 894 -32.5 Q872 -41 823 -45 Q807 -47 773 -47 Q740 -47 723 -45 Q687 -42 667.5 -32 Q648 -22 639.5 2 Q631 26 631 71 L631 488 L709 488 L709 93 Q709 68 713 56 Q717 44 726.5 39 Q736 34 756 32 Q765 31 782 31 Q799 31 807 32 Q830 35 840.5 39.5 Q851 44 855.5 55.5 Q860 67 861 91 Q862 114 863.5 152.5 Q865 191 865 214 L941 198 Z" /><glyph glyph-name="uni4F19" unicode="&#x4f19;" d="M661 505 Q677 334 748.5 218 Q820 102 961 2 L900 -73 Q792 12 726 105.5 Q660 199 628 313 Q590 201 516 102 Q442 3 339 -79 L278 -13 Q387 68 452.5 155.5 Q518 243 548 346.5 Q578 450 578 582 L578 835 L661 835 L661 505 ZM327 804 Q292 688 246 587 L246 -75 L166 -75 L166 432 Q125 361 70 292 L20 376 Q85 455 149 581 Q213 707 246 826 L327 804 ZM935 643 Q904 579 859 498 Q814 417 778 359 L706 398 Q743 457 788 539 Q833 621 861 682 L935 643 ZM463 353 Q430 421 385 502.5 Q340 584 305 640 L376 681 Q411 625 455.5 545 Q500 465 534 396 L463 353 Z" /><glyph glyph-name="uni4F1A" unicode="&#x4f1a;" d="M541 844 Q610 749 716.5 663 Q823 577 960 511 L924 435 Q796 499 683 587 Q570 675 503 763 Q435 673 324.5 586.5 Q214 500 79 432 L42 507 Q181 574 288 660 Q395 746 464 844 L541 844 ZM255 461 L255 535 L746 535 L746 461 L255 461 ZM87 259 L87 332 L915 332 L915 259 L472 259 Q431 201 381.5 139.5 Q332 78 292 35 Q491 49 709 70 Q649 145 613 187 L675 229 Q788 102 880 -17 L818 -70 Q810 -60 799 -44.5 Q788 -29 772 -9 Q768 -3 758 9 Q570 -11 288 -35 Q197 -43 158 -46 L140 27 Q163 35 176 42 Q189 49 205 63 Q292 146 374 259 L87 259 Z" /><glyph glyph-name="uni4F1D" unicode="&#x4f1d;" d="M331 828 Q295 707 247 597 L247 -73 L171 -73 L171 450 Q130 380 72 306 L29 387 Q93 473 154.5 598.5 Q216 724 252 845 L331 828 ZM376 759 L901 759 L901 682 L376 682 L376 759 ZM650 414 Q614 333 556.5 227.5 Q499 122 459 59 Q612 77 793 103 Q744 215 712 275 L788 308 Q818 250 864 145.5 Q910 41 941 -39 L864 -71 L836 2 L823 34 Q601 1 424 -22 L355 -31 L325 48 Q345 57 357.5 67.5 Q370 78 383 95 Q420 148 470.5 240.5 Q521 333 558 414 L317 414 L317 491 L953 491 L953 414 L650 414 Z" /><glyph glyph-name="uni4F1E" unicode="&#x4f1e;" d="M502 764 Q425 677 316.5 594 Q208 511 69 440 L31 519 Q159 579 277 667.5 Q395 756 463 844 L538 844 Q694 656 976 519 L933 443 Q799 510 686 595 Q573 680 502 764 ZM459 613 L542 613 L542 221 L937 221 L937 140 L542 140 L542 -75 L459 -75 L459 140 L66 140 L66 221 L459 221 L459 613 ZM330 261 Q256 363 188 448 L252 499 Q285 459 325.5 408 Q366 357 396 317 L330 261 ZM607 317 Q693 418 748 499 L816 447 Q784 403 742.5 350 Q701 297 669 260 L607 317 Z" /><glyph glyph-name="uni4F1F" unicode="&#x4f1f;" d="M344 821 Q307 710 255 598 L255 -69 L177 -69 L177 452 Q127 367 64 290 L30 377 Q96 463 159 587.5 Q222 712 264 841 L344 821 ZM924 635 L628 635 L628 518 L890 518 L890 443 L628 443 L628 329 L922 329 Q921 240 909 132 Q904 87 888.5 63.5 Q873 40 845.5 31.5 Q818 23 771 23 Q747 23 695 27 L680 104 Q718 98 754 98 Q792 98 807 108.5 Q822 119 827 149 Q835 193 837 251 L628 251 L628 -73 L549 -73 L549 251 L306 251 L306 329 L549 329 L549 443 L361 443 L361 518 L549 518 L549 635 L337 635 L337 712 L549 712 L549 841 L628 841 L628 712 L924 712 L924 635 Z" /><glyph glyph-name="uni4F20" unicode="&#x4f20;" d="M953 437 L561 437 Q543 375 528 334 L877 334 L877 261 Q860 234 816 171.5 Q772 109 734 57 L880 -12 L846 -88 Q563 59 408 125 L437 192 Q493 169 633 105 L663 91 Q691 127 726.5 177.5 Q762 228 782 260 L441 260 L441 327 Q458 373 477 437 L316 437 L316 512 L498 512 Q508 549 526 627 L370 627 L370 701 L543 701 Q564 810 569 847 L650 837 Q636 752 625 701 L916 701 L916 627 L609 627 Q591 549 581 512 L953 512 L953 437 ZM335 820 Q296 702 252 608 L252 -74 L175 -74 L175 463 Q128 384 68 310 L30 392 Q94 477 154.5 595.5 Q215 714 258 841 L335 820 Z" /><glyph glyph-name="uni4F24" unicode="&#x4f24;" d="M949 713 L949 634 L491 634 Q444 558 373 475 L312 535 Q371 597 421.5 677 Q472 757 508 845 L587 823 Q565 768 537 713 L949 713 ZM343 817 Q301 700 253 600 L253 -72 L175 -72 L175 454 Q127 373 76 307 L33 389 Q98 472 161.5 596.5 Q225 721 262 841 L343 817 ZM619 582 L613 443 L908 443 Q905 232 886 79 Q880 27 866 0 Q852 -27 822.5 -39 Q793 -51 737 -51 Q660 -51 605 -46 L589 30 Q666 21 719 21 Q754 21 769.5 26.5 Q785 32 793 51 Q801 70 807 113 Q822 233 824 365 L607 365 Q597 256 575.5 187 Q554 118 505 56 Q456 -6 361 -81 L299 -22 Q387 43 432.5 95.5 Q478 148 498.5 208.5 Q519 269 527 365 L346 365 L346 443 L533 443 L538 582 L619 582 Z" /><glyph glyph-name="uni4F26" unicode="&#x4f26;" d="M332 813 Q297 700 251 602 L251 -75 L171 -75 L171 451 Q129 381 69 304 L28 388 Q91 469 152 593 Q213 717 251 842 L332 813 ZM666 831 Q711 738 791.5 656 Q872 574 971 513 L922 443 Q825 503 750 578.5 Q675 654 628 741 Q529 579 326 441 L278 510 Q373 572 456 656.5 Q539 741 588 831 L666 831 ZM802 173 L804 221 L889 201 L878 65 Q874 4 841.5 -22 Q809 -48 736 -54 Q696 -58 647 -58 Q597 -58 557 -54 Q504 -50 473.5 -36 Q443 -22 428.5 10 Q414 42 414 101 L414 485 L496 485 L496 311 Q570 344 655 389.5 Q740 435 793 470 L834 392 Q775 357 675 307 Q575 257 496 223 L496 106 Q496 74 502 57.5 Q508 41 523.5 33.5 Q539 26 570 23 Q618 19 641 19 Q665 19 711 23 Q750 27 767 34.5 Q784 42 790.5 58 Q797 74 799 109 L802 173 Z" /><glyph glyph-name="uni4F2A" unicode="&#x4f2a;" d="M912 606 Q912 307 885 84 Q876 10 843.5 -20.5 Q811 -51 744 -51 Q691 -51 616 -44 L599 34 Q675 25 724 25 Q764 25 782.5 46.5 Q801 68 809 121 Q821 209 827 316.5 Q833 424 832 526 L612 526 Q599 384 570 288 Q541 192 486.5 110.5 Q432 29 335 -69 L272 -11 Q370 86 422 159 Q474 232 499.5 315.5 Q525 399 535 526 L316 526 L316 606 L541 606 L553 836 L631 835 L619 606 L912 606 ZM322 813 Q287 697 250 612 L250 -70 L173 -70 L173 456 Q128 376 73 305 L32 383 Q95 467 153 588.5 Q211 710 246 832 L322 813 ZM455 630 Q431 660 398 699.5 Q365 739 338 769 L389 814 Q427 775 509 677 L455 630 ZM735 173 Q713 204 666.5 263.5 Q620 323 597 349 L651 398 Q679 366 725.5 308.5 Q772 251 793 221 L735 173 Z" /><glyph glyph-name="uni4F2B" unicode="&#x4f2b;" d="M433 603 L433 445 L353 445 L353 681 L605 681 Q569 799 558 827 L633 845 L687 681 L919 681 L919 445 L841 445 L841 603 L433 603 ZM328 816 Q294 710 245 604 L245 -75 L166 -75 L166 454 Q120 376 65 308 L27 394 Q87 473 148.5 594.5 Q210 716 249 838 L328 816 ZM309 -8 L309 69 L949 69 L949 -8 L309 -8 Z" /><glyph glyph-name="uni4F2F" unicode="&#x4f2f;" d="M893 698 L893 -71 L816 -71 L816 -5 L466 -5 L466 -73 L387 -73 L387 698 L558 698 Q571 734 584 777.5 Q597 821 603 849 L692 834 Q678 779 650 698 L893 698 ZM332 821 Q297 709 256 616 L256 -69 L179 -69 L179 465 Q130 384 80 320 L32 389 Q96 470 155.5 591.5 Q215 713 256 842 L332 821 ZM816 387 L816 622 L466 622 L466 387 L816 387 ZM466 313 L466 71 L816 71 L816 313 L466 313 Z" /><glyph glyph-name="uni4F30" unicode="&#x4f30;" d="M326 813 Q287 690 246 602 L246 -73 L166 -73 L166 448 Q123 375 70 310 L30 393 Q93 478 149.5 594 Q206 710 245 837 L326 813 ZM942 654 L942 579 L669 579 L669 378 L875 378 L875 -76 L794 -76 L794 -13 L460 -13 L460 -76 L379 -76 L379 378 L589 378 L589 579 L322 579 L322 654 L589 654 L589 835 L669 835 L669 654 L942 654 ZM460 60 L794 60 L794 301 L460 301 L460 60 Z" /><glyph glyph-name="uni4F34" unicode="&#x4f34;" d="M677 248 L955 248 L955 171 L677 171 L677 -75 L596 -75 L596 171 L311 171 L311 248 L596 248 L596 386 L367 386 L367 462 L596 462 L596 843 L677 843 L677 462 L915 462 L915 386 L677 386 L677 248 ZM338 808 Q300 692 255 598 L255 -69 L176 -69 L176 454 Q131 381 71 306 L24 383 Q97 474 156.5 588 Q216 702 258 830 L338 808 ZM923 747 Q905 705 868 634 Q831 563 803 514 L732 548 Q762 598 798 667.5 Q834 737 853 781 L923 747 ZM472 517 Q450 565 414 632.5 Q378 700 353 742 L421 777 Q446 736 481 669 Q516 602 541 550 L472 517 Z" /><glyph glyph-name="uni4F36" unicode="&#x4f36;" d="M333 823 Q296 706 251 610 L251 -68 L174 -68 L174 464 Q122 375 63 303 L28 384 Q93 472 154.5 597 Q216 722 255 847 L333 823 ZM650 841 Q748 642 968 504 L918 435 Q818 498 740.5 579.5 Q663 661 612 755 Q519 589 317 437 L262 501 Q370 577 445.5 660.5 Q521 744 572 841 L650 841 ZM570 592 Q597 563 631 523.5 Q665 484 687 454 L628 402 Q586 460 512 541 L570 592 ZM329 298 L329 372 L868 372 L868 295 Q758 167 665 74 Q741 26 787 -6 L741 -77 Q669 -27 557.5 44.5 Q446 116 370 161 L417 226 Q466 198 596 118 Q642 164 692.5 218.5 Q743 273 763 298 L329 298 Z" /><glyph glyph-name="uni4F38" unicode="&#x4f38;" d="M323 821 Q284 695 237 592 L237 -70 L162 -70 L162 451 Q123 387 71 317 L22 388 Q164 574 243 843 L323 821 ZM665 698 L904 698 L904 155 L665 155 L665 -73 L591 -73 L591 155 L354 155 L354 698 L591 698 L591 841 L665 841 L665 698 ZM591 466 L591 623 L427 623 L427 466 L591 466 ZM830 466 L830 623 L665 623 L665 466 L830 466 ZM427 390 L427 229 L591 229 L591 390 L427 390 ZM665 390 L665 229 L830 229 L830 390 L665 390 Z" /><glyph glyph-name="uni4F3A" unicode="&#x4f3a;" d="M327 821 Q288 693 248 602 L248 -71 L171 -71 L171 451 Q126 377 73 313 L25 383 Q166 565 247 838 L327 821 ZM365 777 L901 777 L901 64 Q901 -8 877.5 -35.5 Q854 -63 793 -63 Q718 -63 664 -58 L649 18 Q719 11 768 11 Q800 11 812.5 28.5 Q825 46 825 87 L825 700 L365 700 L365 777 ZM317 582 L774 582 L774 508 L317 508 L317 582 ZM369 395 L706 395 L706 76 L369 76 L369 395 ZM443 151 L632 151 L632 322 L443 322 L443 151 Z" /><glyph glyph-name="uni4F3C" unicode="&#x4f3c;" d="M322 816 Q291 711 248 610 L248 -70 L172 -70 L172 453 Q126 369 76 304 L25 386 Q88 469 148.5 592.5 Q209 716 245 839 L322 816 ZM636 555 Q609 610 570 678.5 Q531 747 505 784 L566 823 Q592 786 631 720 Q670 654 698 600 L636 555 ZM905 -48 Q826 66 756 162 Q717 99 655 41.5 Q593 -16 497 -82 L445 -17 Q580 73 646.5 147 Q713 221 740.5 317.5 Q768 414 775 581 Q777 642 778.5 705 Q780 768 779 808 L855 808 Q856 784 854 712.5 Q852 641 850 579 Q846 464 833.5 383 Q821 302 795 238 L812 215 Q945 34 968 3 L905 -48 ZM660 303 Q520 185 469 140 Q434 109 404 79 L349 138 Q365 157 371 168 Q377 179 377 191 L377 751 L452 751 L452 231 L622 379 L660 303 Z" /><glyph glyph-name="uni4F3D" unicode="&#x4f3d;" d="M275 827 Q249 721 217 637 L217 -73 L145 -73 L145 474 Q114 413 68 341 L35 431 Q82 510 129 623 Q176 736 202 843 L275 827 ZM596 656 L596 622 Q596 496 591.5 331 Q587 166 580 61 Q575 -2 552.5 -25.5 Q530 -49 473 -49 Q451 -49 407 -45 L391 30 Q428 23 454 23 Q486 23 496.5 37.5 Q507 52 510 96 Q525 302 525 522 L525 581 L434 581 Q433 558 433 531 Q428 356 417 258 Q406 160 383 89 Q360 18 312 -79 L247 -43 Q295 50 317.5 116.5 Q340 183 350 277 Q360 371 360 534 L360 581 L266 581 L266 656 L361 656 L363 838 L434 838 L434 656 L596 656 ZM660 -57 L660 720 L910 720 L910 -57 L839 -57 L839 20 L732 20 L732 -57 L660 -57 ZM732 643 L732 98 L839 98 L839 643 L732 643 Z" /><glyph glyph-name="uni4F43" unicode="&#x4f43;" d="M311 809 Q277 698 240 611 L240 -72 L160 -72 L160 449 Q120 380 72 313 L23 382 Q159 572 236 833 L311 809 ZM356 -61 L356 766 L898 766 L898 -61 L821 -61 L821 3 L434 3 L434 -61 L356 -61 ZM590 425 L590 685 L434 685 L434 425 L590 425 ZM666 425 L821 425 L821 685 L666 685 L666 425 ZM590 343 L434 343 L434 80 L590 80 L590 343 ZM666 343 L666 80 L821 80 L821 343 L666 343 Z" /><glyph glyph-name="uni4F46" unicode="&#x4f46;" d="M329 818 Q288 692 246 601 L246 -78 L168 -78 L168 452 Q118 369 65 304 L30 394 Q94 481 150.5 594 Q207 707 246 834 L329 818 ZM384 776 L886 776 L886 200 L384 200 L384 776 ZM807 526 L807 697 L462 697 L462 526 L807 526 ZM462 449 L462 278 L807 278 L807 449 L462 449 ZM311 -33 L311 45 L956 45 L956 -33 L311 -33 Z" /><glyph glyph-name="uni4F4D" unicode="&#x4f4d;" d="M326 681 L598 681 Q570 762 538 829 L620 851 Q658 768 688 681 L932 681 L932 603 L326 603 L326 681 ZM327 822 Q289 701 247 609 L247 -65 L169 -65 L169 460 Q126 389 65 311 L18 383 Q86 471 146 592.5 Q206 714 245 842 L327 822 ZM951 52 L951 -26 L297 -26 L297 52 L630 52 Q660 137 705.5 291 Q751 445 778 551 L857 527 Q832 433 788.5 293.5 Q745 154 711 52 L951 52 ZM502 123 Q485 196 448 324.5 Q411 453 387 524 L463 545 Q488 470 523 349 Q558 228 579 144 L502 123 Z" /><glyph glyph-name="uni4F4E" unicode="&#x4f4e;" d="M326 824 Q290 707 242 602 L242 -71 L165 -71 L165 456 Q119 380 62 311 L25 392 Q89 474 150 599.5 Q211 725 248 847 L326 824 ZM955 171 Q953 153 943.5 108 Q934 63 927 40 Q903 -54 843 -54 Q810 -54 779 -19 Q748 16 721 89 Q680 202 660 391 L455 391 L455 100 L628 217 L652 141 L577 92 Q636 25 679 -36 L623 -80 Q576 -15 518 53 L467 17 L390 -37 L346 27 Q363 44 369.5 56 Q376 68 376 84 L376 745 Q496 752 632 769.5 Q768 787 887 811 L906 733 Q839 717 719 699 Q720 592 729 470 L941 470 L941 391 L736 391 Q756 200 794 107 Q806 76 820.5 55 Q835 34 842 34 Q847 34 855.5 52 Q864 70 872 97 Q881 141 889 196 L955 171 ZM455 470 L653 470 Q647 542 641 689 Q565 679 455 669 L455 470 Z" /><glyph glyph-name="uni4F4F" unicode="&#x4f4f;" d="M660 39 L948 39 L948 -37 L298 -37 L298 39 L577 39 L577 296 L345 296 L345 376 L577 376 L577 592 L321 592 L321 669 L617 669 Q593 723 539 822 L610 859 L641 802 L694 706 L622 669 L925 669 L925 592 L660 592 L660 376 L893 376 L893 296 L660 296 L660 39 ZM326 806 Q288 695 242 591 L242 -69 L165 -69 L165 443 Q122 369 72 306 L24 383 Q88 467 147 587.5 Q206 708 246 834 L326 806 Z" /><glyph glyph-name="uni4F50" unicode="&#x4f50;" d="M705 43 L955 43 L955 -30 L347 -30 L347 43 L627 43 L627 335 L479 335 Q412 214 310 92 L255 157 Q349 265 408 374.5 Q467 484 504 617 L329 617 L329 692 L522 692 Q537 764 549 843 L634 833 Q622 758 607 692 L947 692 L947 617 L589 617 Q559 507 516 410 L913 410 L913 335 L705 335 L705 43 ZM342 811 Q301 682 246 573 L246 -67 L168 -67 L168 435 Q120 361 68 300 L31 387 Q96 468 161.5 592.5 Q227 717 264 836 L342 811 Z" /><glyph glyph-name="uni4F51" unicode="&#x4f51;" d="M338 819 Q301 700 253 601 L253 -72 L174 -72 L174 456 Q120 372 61 302 L28 389 Q94 469 157.5 592.5 Q221 716 258 837 L338 819 ZM959 615 L605 615 Q570 512 516 418 L885 418 L885 -69 L804 -69 L804 -2 L508 -2 L508 -69 L426 -69 L426 280 Q372 208 310 145 L258 209 Q438 390 518 615 L336 615 L336 694 L544 694 Q562 756 574 835 L659 824 Q649 765 630 694 L959 694 L959 615 ZM508 76 L804 76 L804 336 L508 336 L508 76 Z" /><glyph glyph-name="uni4F53" unicode="&#x4f53;" d="M902 77 Q809 182 742.5 313.5 Q676 445 647 582 L647 171 L806 171 L806 100 L647 100 L647 -75 L566 -75 L566 100 L413 100 L413 171 L566 171 L566 582 Q534 444 472 323.5 Q410 203 306 74 L255 146 Q429 344 502 593 L310 593 L310 669 L566 669 L566 840 L647 840 L647 669 L924 669 L924 593 L709 593 Q742 473 806 358.5 Q870 244 957 147 L902 77 ZM321 821 Q285 699 238 592 L238 -68 L161 -68 L161 438 Q117 360 73 304 L35 394 Q93 475 151 595 Q209 715 244 835 L321 821 Z" /><glyph glyph-name="uni4F55" unicode="&#x4f55;" d="M315 817 Q281 698 239 601 L239 -73 L161 -73 L161 445 Q119 373 66 304 L20 376 Q80 457 141.5 587 Q203 717 238 838 L315 817 ZM955 769 L955 691 L868 691 L868 78 Q868 21 854 -8.5 Q840 -38 805.5 -50 Q771 -62 702 -62 Q669 -62 599 -58 L583 21 Q643 15 703 15 Q740 15 757.5 21.5 Q775 28 782 45.5 Q789 63 789 100 L789 691 L333 691 L333 769 L955 769 ZM357 557 L671 557 L671 163 L357 163 L357 557 ZM429 236 L599 236 L599 483 L429 483 L429 236 Z" /><glyph glyph-name="uni4F57" unicode="&#x4f57;" d="M928 714 L928 495 L851 495 L851 638 L409 638 L409 495 L333 495 L333 714 L607 714 Q575 784 548 834 L625 854 Q638 830 658 789.5 Q678 749 694 714 L928 714 ZM324 813 Q294 721 249 619 L249 -71 L170 -71 L170 461 Q124 378 71 307 L26 387 Q88 470 148.5 592 Q209 714 244 834 L324 813 ZM839 110 Q843 198 843 233 L921 216 L911 71 Q908 23 894 -3.5 Q880 -30 850.5 -42 Q821 -54 766 -58 Q719 -61 672 -61 Q625 -61 577 -58 Q525 -55 495.5 -40 Q466 -25 452.5 7 Q439 39 439 94 L439 300 L439 547 L516 547 L516 327 Q597 358 676.5 396.5 Q756 435 819 475 L856 397 Q789 358 694.5 315.5 Q600 273 516 242 L516 109 Q516 61 531 42 Q546 23 587 20 Q628 17 667 17 Q708 17 747 20 Q786 23 804 30.5 Q822 38 829.5 55.5 Q837 73 839 110 Z" /><glyph glyph-name="uni4F59" unicode="&#x4f59;" d="M916 267 L549 267 L549 61 Q549 -10 523.5 -39 Q498 -68 434 -68 Q379 -68 317 -60 L299 23 Q369 13 404 13 Q441 13 453 27 Q465 41 465 81 L465 267 L84 267 L84 347 L465 347 L465 466 L256 466 L256 539 Q172 485 81 441 L42 518 Q184 582 283 657.5 Q382 733 458 835 L542 835 Q615 736 717 658 Q819 580 963 513 L921 437 Q825 485 750 536 L750 466 L549 466 L549 347 L916 347 L916 267 ZM501 759 Q411 642 263 544 L737 544 Q585 648 501 759 ZM338 183 Q295 127 231.5 63.5 Q168 0 106 -52 L54 13 Q112 56 171.5 115.5 Q231 175 275 235 L338 183 ZM701 232 Q746 198 821 135 Q896 72 948 25 L894 -39 Q834 16 763.5 77.5 Q693 139 651 172 L701 232 Z" /><glyph glyph-name="uni4F5A" unicode="&#x4f5a;" d="M683 327 Q713 217 778.5 139.5 Q844 62 963 -2 L910 -75 Q809 -15 742.5 58.5 Q676 132 639 225 Q602 139 531 64.5 Q460 -10 349 -80 L294 -11 Q431 68 500 147 Q569 226 590 327 L316 327 L316 402 L600 402 L601 428 L603 581 L447 581 Q423 502 395 437 L326 463 Q358 531 382.5 614 Q407 697 419 780 L491 771 Q482 722 468 657 L604 657 L606 840 L683 840 L682 657 L914 657 L914 581 L681 581 L680 430 Q680 411 679 402 L946 402 L946 327 L683 327 ZM333 815 Q299 699 249 591 L249 -73 L172 -73 L172 444 Q133 377 77 301 L30 376 Q99 464 160.5 590.5 Q222 717 256 838 L333 815 Z" /><glyph glyph-name="uni4F5B" unicode="&#x4f5b;" d="M719 320 L923 320 Q923 275 919 217.5 Q915 160 909 118 Q900 61 879 42 Q858 23 810 23 Q796 23 768 27 L754 104 Q778 98 801 98 Q819 98 826.5 109 Q834 120 840 147 Q850 199 850 245 L719 245 L719 -74 L646 -74 L646 245 L536 245 Q529 166 507.5 111 Q486 56 444.5 11 Q403 -34 331 -84 L274 -30 Q345 19 384 58.5 Q423 98 440.5 141 Q458 184 462 245 L299 245 L320 514 L464 514 L464 639 L310 639 L310 712 L464 712 L464 838 L539 838 L539 712 L646 712 L646 839 L719 839 L719 712 L891 712 L891 441 L719 441 L719 320 ZM295 818 Q260 700 225 608 L225 -68 L152 -68 L152 447 Q114 377 73 318 L24 387 Q80 472 133 592.5 Q186 713 221 838 L295 818 ZM646 639 L539 639 L539 514 L646 514 L646 639 ZM719 514 L817 514 L817 639 L719 639 L719 514 ZM464 441 L387 441 L376 320 L464 320 L464 441 ZM539 320 L646 320 L646 441 L539 441 L539 320 Z" /><glyph glyph-name="uni4F5C" unicode="&#x4f5c;" d="M937 612 L625 612 L625 455 L888 455 L888 374 L625 374 L625 217 L909 217 L909 135 L625 135 L625 -76 L546 -76 L546 612 L490 612 Q424 486 341 382 L286 450 Q352 529 406.5 629.5 Q461 730 499 842 L577 819 Q553 749 528 693 L937 693 L937 612 ZM333 803 Q295 690 251 597 L251 -70 L170 -70 L170 450 Q128 383 70 311 L31 397 Q93 475 152 589 Q211 703 252 828 L333 803 Z" /><glyph glyph-name="uni4F5E" unicode="&#x4f5e;" d="M310 815 Q280 703 238 599 L238 -79 L159 -79 L159 434 Q113 353 64 293 L32 393 Q98 484 148 599.5 Q198 715 230 837 L310 815 ZM378 780 L886 780 L886 703 L378 703 L378 780 ZM313 588 L940 588 L940 513 L313 513 L313 588 ZM837 315 Q816 245 788 193.5 Q760 142 719 103 Q852 40 946 -8 L901 -80 Q787 -17 652 49 Q594 11 510 -20 Q426 -51 306 -81 L278 0 Q380 20 451 41.5 Q522 63 572 89 Q452 148 368 184 Q405 250 430 315 L283 315 L283 390 L457 390 Q470 431 485 488 L572 474 Q562 432 548 390 L957 390 L957 315 L837 315 ZM476 214 Q561 176 645 137 Q682 170 706.5 212.5 Q731 255 750 315 L521 315 Q496 250 476 214 Z" /><glyph glyph-name="uni4F60" unicode="&#x4f60;" d="M296 469 Q352 546 402.5 646 Q453 746 480 839 L560 823 Q543 768 516 706 L929 706 L929 630 L845 462 L770 489 L842 630 L482 630 Q431 525 364 425 L296 469 ZM316 812 Q278 690 238 603 L238 -70 L160 -70 L160 451 Q126 393 74 323 L31 394 Q89 475 145.5 594 Q202 713 235 832 L316 812 ZM593 550 L671 550 L671 45 Q671 -12 647 -37.5 Q623 -63 566 -63 Q509 -63 459 -56 L443 23 Q484 16 536 13 Q567 11 580 26 Q593 41 593 74 L593 550 ZM812 419 Q873 268 956 51 L882 23 L859 84 Q774 308 741 392 L812 419 ZM495 388 Q473 303 435.5 202.5 Q398 102 362 26 L286 52 Q321 117 359.5 217 Q398 317 422 406 L495 388 Z" /><glyph glyph-name="uni4F62" unicode="&#x4f62;" d="M311 818 Q278 701 241 606 L241 -72 L164 -72 L164 436 Q127 366 82 304 L36 388 Q95 471 145.5 587 Q196 703 230 837 L311 818 ZM447 211 L447 42 L942 42 L942 -34 L369 -34 L369 782 L931 782 L931 703 L447 703 L447 555 L893 555 L893 211 L447 211 ZM815 286 L815 479 L447 479 L447 286 L815 286 Z" /><glyph glyph-name="uni4F63" unicode="&#x4f63;" d="M298 815 Q267 703 226 600 L226 -72 L151 -72 L151 445 Q117 384 73 325 L30 396 Q86 477 135.5 590 Q185 703 221 831 L298 815 ZM362 779 L909 779 L909 52 Q909 6 898 -18 Q887 -42 862.5 -51.5 Q838 -61 793 -61 Q774 -61 734 -57 L718 21 Q750 15 780 15 Q812 15 822 27 Q832 39 832 76 L832 218 L672 218 L672 -49 L598 -49 L598 218 L436 218 Q429 127 407.5 58.5 Q386 -10 343 -81 L268 -43 Q309 22 328.5 73.5 Q348 125 355 192.5 Q362 260 362 381 L362 779 ZM598 530 L598 702 L440 702 L440 530 L598 530 ZM672 530 L832 530 L832 702 L672 702 L672 530 ZM598 294 L598 455 L440 455 L440 353 Q440 313 439 294 L598 294 ZM672 455 L672 294 L832 294 L832 455 L672 455 Z" /><glyph glyph-name="uni4F69" unicode="&#x4f69;" d="M274 818 Q248 702 208 598 L208 -67 L137 -67 L137 439 Q106 377 64 312 L31 399 Q87 484 132.5 598.5 Q178 713 205 834 L274 818 ZM983 190 Q968 88 961 54 Q951 7 930.5 -15.5 Q910 -38 888 -38 Q865 -38 841.5 -12 Q818 14 807 61 Q795 114 792 160 Q789 206 789 326 L789 714 L371 714 L371 322 Q371 220 354 133 Q337 46 298 -52 L235 -15 Q273 81 287.5 160 Q302 239 302 326 L302 787 L859 787 L859 336 Q859 245 860.5 200.5 Q862 156 866 124 Q871 94 877.5 74.5 Q884 55 891 55 Q898 55 903 69.5 Q908 84 914 123 Q917 142 919.5 165.5 Q922 189 923 204 L983 190 ZM410 556 L410 624 L756 624 L756 556 L614 556 L614 451 L742 451 L742 129 Q742 75 728 54.5 Q714 34 679 34 Q663 34 637 36 L625 101 Q640 98 654 98 Q669 98 674.5 107 Q680 116 680 143 L680 386 L611 386 L611 -64 L549 -64 L549 386 L480 386 L480 33 L418 33 L418 451 L546 451 L546 556 L410 556 Z" /><glyph glyph-name="uni4F6B" unicode="&#x4f6b;" d="M685 482 Q797 424 960 387 L935 313 Q744 362 618 437 Q491 359 297 302 L270 374 Q435 418 552 482 Q482 537 429 606 Q387 560 333 511 L280 567 Q346 623 410 704.5 Q474 786 507 855 L585 831 Q572 803 542 754 L869 754 L869 686 Q801 570 685 482 ZM322 823 Q282 693 229 580 L229 -84 L156 -84 L156 441 Q107 361 60 303 L19 376 Q98 479 155 600 Q212 721 249 846 L322 823 ZM478 664 Q535 582 618 523 Q714 590 778 686 L495 686 L478 664 ZM451 -64 L378 -64 L378 299 L854 299 L854 -64 L781 -64 L781 -26 L451 -26 L451 -64 ZM781 42 L781 227 L451 227 L451 42 L781 42 Z" /><glyph glyph-name="uni4F6C" unicode="&#x4f6c;" d="M953 419 L697 419 Q627 352 524 282 L526 282 L526 215 Q610 239 698 272 Q786 305 855 340 L886 270 Q810 235 711 199.5 Q612 164 526 140 L526 88 Q526 48 539.5 32.5 Q553 17 591 13 Q641 9 665 9 Q691 9 739 13 Q775 17 789 31.5 Q803 46 805 81 L807 114 Q808 130 809 149 Q810 168 810 184 L892 163 L891 141 L886 55 Q882 -10 854.5 -36 Q827 -62 760 -67 Q715 -71 656 -71 Q599 -71 552 -67 Q493 -62 468 -32 Q443 -2 443 65 L443 231 Q389 199 308 155 L269 228 Q455 322 575 419 L290 419 L290 494 L511 494 L511 632 L352 632 L352 704 L511 704 L511 835 L590 835 L590 704 L757 704 L757 632 L590 632 L590 494 L657 494 Q768 610 844 770 L919 736 Q854 598 767 494 L953 494 L953 419 ZM321 812 Q286 703 245 609 L245 -75 L165 -75 L165 448 Q117 365 66 300 L30 383 Q90 467 146 585.5 Q202 704 242 834 L321 812 Z" /><glyph glyph-name="uni4F6E" unicode="&#x4f6e;" d="M641 835 Q741 644 963 502 L919 434 Q816 501 735.5 582.5 Q655 664 605 753 Q538 631 413 523 L795 523 L795 450 L410 450 L410 521 Q367 483 308 444 L262 509 Q363 574 440 657 Q517 740 567 835 L641 835 ZM320 808 Q284 684 233 575 L233 -82 L156 -82 L156 430 Q114 362 63 297 L22 370 Q86 451 145 576 Q204 701 241 828 L320 808 ZM429 -62 L356 -62 L356 331 L870 331 L870 -63 L796 -63 L796 -12 L429 -12 L429 -62 ZM796 57 L796 259 L429 259 L429 57 L796 57 Z" /><glyph glyph-name="uni4F6F" unicode="&#x4f6f;" d="M956 233 L956 155 L670 155 L670 -73 L588 -73 L588 155 L294 155 L294 233 L588 233 L588 374 L354 374 L354 449 L588 449 L588 596 L331 596 L331 672 L495 672 Q462 735 414 807 L484 845 Q537 769 575 701 L521 672 L667 672 Q731 775 769 850 L845 817 Q814 761 758 672 L925 672 L925 596 L670 596 L670 449 L903 449 L903 374 L670 374 L670 233 L956 233 ZM329 808 Q293 698 250 607 L250 -73 L170 -73 L170 457 Q119 375 62 305 L29 391 Q91 472 148.5 587 Q206 702 249 829 L329 808 Z" /><glyph glyph-name="uni4F70" unicode="&#x4f70;" d="M318 821 Q285 705 243 606 L243 -76 L165 -76 L165 444 Q121 366 69 297 L28 387 Q89 471 145 591 Q201 711 236 836 L318 821 ZM938 701 L678 701 Q667 634 649 567 L883 567 L883 -70 L805 -70 L805 -8 L477 -8 L477 -71 L398 -71 L398 567 L562 567 Q580 635 593 701 L354 701 L354 777 L938 777 L938 701 ZM477 321 L805 321 L805 490 L477 490 L477 321 ZM477 243 L477 68 L805 68 L805 243 L477 243 Z" /><glyph glyph-name="uni4F73" unicode="&#x4f73;" d="M302 486 L591 486 L591 626 L360 626 L360 700 L591 700 L591 836 L671 836 L671 700 L901 700 L901 626 L671 626 L671 486 L951 486 L951 409 L302 409 L302 486 ZM325 815 Q295 702 253 608 L253 -76 L174 -76 L174 453 Q124 368 70 290 L32 386 Q182 598 247 833 L325 815 ZM672 199 L672 44 L952 44 L952 -31 L296 -31 L296 44 L592 44 L592 199 L360 199 L360 275 L592 275 L592 378 L672 378 L672 275 L901 275 L901 199 L672 199 Z" /><glyph glyph-name="uni4F76" unicode="&#x4f76;" d="M328 827 Q295 713 249 608 L249 -73 L172 -73 L172 457 Q125 376 66 300 L28 382 Q90 464 149 587 Q208 710 248 839 L328 827 ZM952 699 L952 623 L678 623 L678 485 L915 485 L915 409 L350 409 L350 485 L595 485 L595 623 L322 623 L322 699 L595 699 L595 839 L678 839 L678 699 L952 699 ZM468 -77 L389 -77 L389 306 L886 306 L886 -77 L807 -77 L807 -23 L468 -23 L468 -77 ZM807 51 L807 231 L468 231 L468 51 L807 51 Z" /><glyph glyph-name="uni4F7C" unicode="&#x4f7c;" d="M933 703 L933 622 L328 622 L328 703 L596 703 Q569 764 539 823 L619 849 Q654 775 681 703 L933 703 ZM323 805 Q287 690 242 586 L242 -85 L162 -85 L162 429 Q119 354 69 289 L29 376 Q89 457 144.5 575.5 Q200 694 240 824 L323 805 ZM306 395 Q365 445 418 501 Q471 557 506 611 L570 565 Q490 450 356 335 L306 395 ZM712 607 Q752 575 823 508.5 Q894 442 935 399 L880 340 Q842 383 772 451.5 Q702 520 661 557 L712 607 ZM916 -83 Q733 -8 621 94 Q510 -6 330 -80 L285 -2 Q469 67 564 152 Q485 241 430 371 L503 400 Q552 283 619 208 Q653 249 678.5 297 Q704 345 727 407 L804 376 Q748 238 676 152 Q778 66 959 -3 L916 -83 Z" /><glyph glyph-name="uni4F7F" unicode="&#x4f7f;" d="M303 818 Q274 706 229 596 L229 -78 L153 -78 L153 441 Q111 368 71 314 L25 384 Q82 464 135 584 Q188 704 226 838 L303 818 ZM944 -65 Q820 -48 727 -23.5 Q634 1 563 37 Q523 4 462 -23 Q401 -50 311 -75 L272 0 Q349 19 401.5 38.5 Q454 58 489 82 Q410 138 349 228 L404 273 Q462 186 544 133 Q565 163 573.5 200.5 Q582 238 582 290 L338 290 L338 556 L582 556 L582 643 L305 643 L305 717 L582 717 L582 838 L658 838 L658 717 L942 717 L942 643 L658 643 L658 556 L904 556 L904 290 L658 290 Q657 226 647 178.5 Q637 131 614 95 Q744 37 966 16 L944 -65 ZM582 486 L412 486 L412 364 L582 364 L582 486 ZM829 364 L829 486 L658 486 L658 364 L829 364 Z" /><glyph glyph-name="uni4F83" unicode="&#x4f83;" d="M291 822 Q254 694 227 622 L227 -76 L149 -76 L149 448 Q114 384 73 324 L22 386 Q75 466 127.5 592.5 Q180 719 211 840 L291 822 ZM339 777 L876 777 L876 435 L339 435 L339 777 ZM418 510 L798 510 L798 700 L418 700 L418 510 ZM456 392 L456 280 Q456 185 444 126 Q432 67 403 21 Q374 -25 317 -80 L258 -30 Q310 18 336 59 Q362 100 372 149.5 Q382 199 382 277 Q383 315 383 392 L456 392 ZM631 -50 L558 -50 L558 392 L631 392 L631 -50 ZM965 193 Q965 158 963.5 110 Q962 62 960 28 Q959 -13 939.5 -32.5 Q920 -52 882 -55 Q858 -57 846 -57 Q833 -57 809 -55 Q769 -52 751 -33 Q733 -14 733 32 L733 392 L809 392 L809 59 Q809 39 815 31 Q821 23 835 21 L850 20 Q873 20 882.5 27.5 Q892 35 893 58 Q895 96 895 174 L895 208 L965 193 Z" /><glyph glyph-name="uni4F84" unicode="&#x4f84;" d="M325 809 Q285 685 241 592 L241 -77 L164 -77 L164 448 Q115 369 55 293 L23 389 Q90 475 147 588.5 Q204 702 244 833 L325 809 ZM670 35 L944 35 L944 -39 L305 -39 L305 35 L591 35 L591 193 L360 193 L360 268 L591 268 L591 404 Q541 400 455 390 L361 380 L338 448 Q367 455 378 466 Q469 568 544 697 L348 697 L348 773 L927 773 L927 697 L640 697 Q564 572 474 458 L786 491 Q741 564 712 602 L778 640 Q813 591 860 517 Q907 443 937 391 L868 351 Q853 380 825 427 L670 412 L670 268 L899 268 L899 193 L670 193 L670 35 Z" /><glyph glyph-name="uni4F88" unicode="&#x4f88;" d="M306 579 Q399 637 472 705.5 Q545 774 593 846 L662 821 Q637 784 606 747 L900 747 L900 680 Q797 560 660.5 477.5 Q524 395 312 332 L286 400 Q463 448 591 517 Q719 586 808 680 L546 680 L505 641 Q574 597 612 568 L555 517 Q524 542 450 594 Q399 555 351 523 L306 579 ZM324 822 Q286 697 236 590 L236 -72 L160 -72 L160 448 Q123 387 75 325 L28 389 Q91 477 148.5 595 Q206 713 243 837 L324 822 ZM941 369 L941 303 Q882 214 804 146 Q726 78 608 21.5 Q490 -35 318 -83 L286 -15 Q445 24 550.5 69.5 Q656 115 725.5 170.5 Q795 226 852 303 L600 303 Q569 276 538 253 Q603 209 645 174 L588 121 Q544 159 475 209 Q404 163 337 130 L296 191 Q518 301 647 451 L713 419 Q692 394 669 369 L941 369 Z" /><glyph glyph-name="uni4F8B" unicode="&#x4f8b;" d="M294 822 Q259 693 217 588 L217 -74 L145 -74 L145 434 Q115 377 74 317 L26 385 Q80 470 132.5 593.5 Q185 717 217 837 L294 822 ZM839 827 L912 827 L912 63 Q912 14 899 -12.5 Q886 -39 856.5 -49.5 Q827 -60 772 -60 Q745 -60 689 -56 L675 18 Q723 12 770 12 Q811 12 825 26.5 Q839 41 839 85 L839 827 ZM312 708 L312 783 L651 783 L651 708 L479 708 Q468 644 447 566 L617 566 L617 483 Q593 350 557 255 Q521 160 463.5 81.5 Q406 3 314 -76 L262 -13 Q394 92 464 228 Q411 280 358 324 Q332 268 301 220 L248 272 Q297 357 340.5 477.5 Q384 598 405 708 L312 708 ZM685 722 L757 722 L757 152 L685 152 L685 722 ZM424 490 Q407 438 388 392 Q448 343 495 300 Q525 383 543 490 L424 490 Z" /><glyph glyph-name="uni4F8D" unicode="&#x4f8d;" d="M951 438 L807 438 L807 337 L939 337 L939 261 L807 261 L807 60 Q807 13 795 -13 Q783 -39 754.5 -50.5 Q726 -62 673 -62 Q610 -62 565 -57 L552 19 Q611 10 652 10 Q695 10 709 25.5 Q723 41 723 86 L723 261 L320 261 L320 337 L723 337 L723 438 L297 438 L297 515 L581 515 L581 635 L352 635 L352 711 L581 711 L581 839 L663 839 L663 711 L904 711 L904 635 L663 635 L663 515 L951 515 L951 438 ZM330 811 Q294 709 246 609 L246 -69 L167 -69 L167 463 Q122 390 68 319 L25 402 Q91 485 149.5 597 Q208 709 252 837 L330 811 ZM446 229 Q503 178 576 101 L516 41 Q458 110 387 176 L446 229 Z" /><glyph glyph-name="uni4F8F" unicode="&#x4f8f;" d="M716 352 Q819 188 971 60 L912 -6 Q836 66 775.5 146.5 Q715 227 660 328 L660 -72 L582 -72 L582 321 Q531 220 469.5 142 Q408 64 324 -12 L267 53 Q345 121 408 192 Q471 263 524 352 L294 352 L294 430 L582 430 L582 588 L436 588 Q420 547 386 478 L312 510 Q348 574 373.5 639.5 Q399 705 418 786 L492 766 Q478 710 464 664 L582 664 L582 841 L660 841 L660 664 L900 664 L900 588 L660 588 L660 430 L943 430 L943 352 L716 352 ZM314 820 Q276 689 236 596 L236 -70 L158 -70 L158 438 Q125 380 78 317 L28 389 Q84 462 143.5 590 Q203 718 237 840 L314 820 Z" /><glyph glyph-name="uni4F97" unicode="&#x4f97;" d="M289 822 Q257 701 221 609 L221 -71 L146 -71 L146 445 Q118 392 75 324 L29 403 Q146 576 213 839 L289 822 ZM335 784 L910 784 L910 54 Q910 -12 887.5 -37.5 Q865 -63 810 -63 Q748 -63 703 -58 L687 18 Q745 11 786 11 Q814 11 823 25 Q832 39 832 74 L832 708 L411 708 L411 -65 L335 -65 L335 784 ZM458 595 L786 595 L786 524 L458 524 L458 595 ZM494 418 L750 418 L750 94 L494 94 L494 418 ZM556 166 L688 166 L688 347 L556 347 L556 166 Z" /><glyph glyph-name="uni4F9B" unicode="&#x4f9b;" d="M318 825 Q281 707 238 610 L238 -67 L158 -67 L158 458 Q119 392 62 318 L24 402 Q87 484 143 600.5 Q199 717 240 849 L318 825 ZM808 572 L808 322 L955 322 L955 243 L294 243 L294 322 L446 322 L446 572 L331 572 L331 648 L446 648 L446 838 L527 838 L527 648 L727 648 L727 838 L808 838 L808 648 L933 648 L933 572 L808 572 ZM727 572 L527 572 L527 322 L727 322 L727 572 ZM293 -9 Q346 30 408.5 91.5 Q471 153 517 208 L578 157 Q533 104 467 40 Q401 -24 346 -70 L293 -9 ZM731 206 Q776 165 840 101.5 Q904 38 947 -8 L890 -67 Q850 -21 786.5 44 Q723 109 677 152 L731 206 Z" /><glyph glyph-name="uni4F9D" unicode="&#x4f9d;" d="M724 311 Q765 232 823.5 170 Q882 108 961 57 L902 -12 Q811 53 750 123.5 Q689 194 648.5 285 Q608 376 577 504 Q537 433 499 380 L499 57 L656 137 L672 57 Q578 16 505 -20 Q460 -43 422 -67 L385 -2 Q420 26 420 57 L420 283 Q379 238 316 180 L264 248 Q366 336 431.5 424 Q497 512 547 621 L315 621 L315 699 L586 699 Q563 754 527 824 L599 858 Q618 821 673 699 L933 699 L933 621 L632 621 L627 611 Q653 477 692 379 Q763 434 855 522 L906 463 Q814 382 724 311 ZM313 823 Q275 700 232 604 L232 -65 L153 -65 L153 450 Q112 379 64 316 L20 395 Q85 480 139.5 594 Q194 708 234 841 L313 823 Z" /><glyph glyph-name="uni4FA0" unicode="&#x4fa0;" d="M674 285 Q708 187 775.5 117.5 Q843 48 957 -3 L911 -78 Q804 -23 734 48 Q664 119 624 213 Q553 49 327 -77 L279 -8 Q414 65 480.5 138 Q547 211 567 285 L294 285 L294 362 L579 362 L579 635 L321 635 L321 713 L579 713 L579 839 L657 839 L657 713 L923 713 L923 635 L657 635 L657 362 L947 362 L947 285 L674 285 ZM324 812 Q290 703 239 594 L239 -73 L163 -73 L163 450 Q121 380 67 307 L26 387 Q90 473 150 593 Q210 713 247 834 L324 812 ZM714 421 Q741 455 778.5 513 Q816 571 837 609 L899 575 Q879 537 841 477.5 Q803 418 777 383 L714 421 ZM405 607 Q431 574 468.5 516.5 Q506 459 526 420 L464 383 Q444 420 406.5 478 Q369 536 343 572 L405 607 Z" /><glyph glyph-name="uni4FA3" unicode="&#x4fa3;" d="M325 827 Q286 707 235 599 L235 -56 L156 -56 L156 453 Q111 379 59 314 L16 399 Q80 481 141 601.5 Q202 722 245 851 L325 827 ZM392 796 L863 796 L863 467 L392 467 L392 796 ZM471 543 L787 543 L787 720 L471 720 L471 543 ZM363 -57 L363 353 L894 353 L894 -58 L816 -58 L816 -8 L441 -8 L441 -57 L363 -57 ZM441 274 L441 69 L816 69 L816 274 L441 274 Z" /><glyph glyph-name="uni4FA5" unicode="&#x4fa5;" d="M318 622 L309 695 L468 714 Q453 765 435 837 L516 847 Q529 791 548 723 L901 764 L910 694 L571 653 Q594 597 620 554 L624 548 Q734 596 826 660 L866 600 Q779 536 669 486 Q728 420 784 420 Q815 420 830.5 431.5 Q846 443 854 472 Q868 518 875 551 L942 519 Q931 477 912 429 Q896 385 865 366 Q834 347 784 347 Q739 347 687.5 374.5 Q636 402 592 454 Q463 406 312 377 L287 449 Q424 472 548 518 Q515 580 491 643 L318 622 ZM302 822 Q269 708 226 607 L226 -65 L149 -65 L149 454 Q117 397 64 324 L20 399 Q144 573 225 844 L302 822 ZM869 72 Q873 126 873 162 L941 147 L935 34 Q933 -6 916 -24.5 Q899 -43 858 -46 Q838 -48 797 -48 Q756 -48 735 -46 Q687 -42 666 -19.5 Q645 3 645 58 L645 242 L533 242 Q532 237 532 228 Q532 121 485 51 Q438 -19 324 -77 L277 -16 Q343 16 379.5 51 Q416 86 432 128 Q448 170 456 232 L456 242 L302 242 L302 316 L919 316 L919 242 L723 242 L723 82 Q723 51 730 42 Q737 33 759 30 Q777 27 795 27 Q812 27 830 30 Q852 34 859.5 42.5 Q867 51 869 72 Z" /><glyph glyph-name="uni4FA6" unicode="&#x4fa6;" d="M793 494 L434 494 L434 156 L357 156 L357 566 L556 566 L556 847 L635 847 L635 746 L932 746 L932 675 L635 675 L635 566 L870 566 L870 156 L793 156 L793 494 ZM319 823 Q283 706 237 605 L237 -66 L160 -66 L160 458 Q117 386 68 321 L25 400 Q88 482 144 598.5 Q200 715 240 844 L319 823 ZM896 -69 Q841 -29 757 28.5 Q673 86 610 126 Q576 69 504 22 Q432 -25 308 -70 L272 2 Q402 48 466 89.5 Q530 131 552 180.5 Q574 230 576 311 L576 444 L652 444 L652 296 Q650 238 639 194 Q708 152 798.5 95 Q889 38 946 -2 L896 -69 Z" /><glyph glyph-name="uni4FA7" unicode="&#x4fa7;" d="M271 823 Q244 718 214 638 L214 -70 L144 -70 L144 480 Q107 409 66 345 L27 414 Q79 496 124.5 608.5 Q170 721 198 839 L271 823 ZM837 821 L911 821 L911 57 Q911 -6 888.5 -30.5 Q866 -55 810 -55 Q755 -55 716 -50 L700 24 Q756 17 795 17 Q819 17 828 31 Q837 45 837 82 L837 821 ZM553 703 L374 703 L374 187 L306 187 L306 778 L621 778 L621 190 L553 190 L553 703 ZM695 734 L763 734 L763 160 L695 160 L695 734 ZM487 214 Q526 178 580 121 Q634 64 667 25 L611 -29 Q519 86 470 141 Q450 82 410.5 32.5 Q371 -17 304 -66 L257 -12 Q335 49 371.5 101 Q408 153 419.5 214 Q431 275 431 381 L431 648 L497 648 L497 364 Q497 277 487 214 Z" /><glyph glyph-name="uni4FA8" unicode="&#x4fa8;" d="M329 820 Q292 701 249 608 L249 -68 L172 -68 L172 458 Q122 374 68 305 L33 385 Q96 473 155 596.5 Q214 720 251 844 L329 820 ZM931 215 Q846 256 783 307 L783 -69 L704 -69 L704 317 L771 317 Q690 386 634 490 L604 490 Q560 393 473 316 L538 316 L538 230 Q538 137 502.5 57 Q467 -23 374 -87 L319 -30 Q396 23 428 87 Q460 151 460 227 L460 305 Q405 260 332 214 L284 280 Q373 332 427 381.5 Q481 431 513 490 L312 490 L312 565 L545 565 Q563 620 578 706 Q461 696 370 692 L366 768 Q490 774 633.5 788 Q777 802 876 818 L887 742 Q817 731 663 714 Q649 626 631 565 L930 565 L930 490 L713 490 Q755 427 812.5 381.5 Q870 336 966 287 L931 215 Z" /><glyph glyph-name="uni4FA9" unicode="&#x4fa9;" d="M345 809 Q306 695 253 590 L253 -71 L177 -71 L177 455 Q134 387 71 307 L31 385 Q98 470 161 588 Q224 706 266 831 L345 809 ZM428 499 Q384 458 330 421 L285 487 Q386 556 465.5 646.5 Q545 737 589 824 L661 824 Q708 731 787.5 648.5 Q867 566 963 508 L925 437 Q831 495 754 573 Q677 651 627 739 Q595 682 544.5 620 Q494 558 431 501 L822 501 L822 432 L428 432 L428 499 ZM318 243 L318 317 L935 317 L935 243 L595 243 Q565 185 531.5 128 Q498 71 471 34 L721 61 L764 65 Q713 139 682 179 L745 221 Q778 179 831 103.5 Q884 28 919 -27 L856 -72 Q832 -33 809 0 Q724 -8 639.5 -17 Q555 -26 470 -35 L438 -38 L357 -47 L341 20 Q370 31 389 56 Q451 139 507 243 L318 243 Z" /><glyph glyph-name="uni4FAA" unicode="&#x4faa;" d="M676 459 Q780 397 959 356 L929 279 Q731 333 611 412 Q487 331 289 275 L260 349 Q438 394 548 458 Q455 535 384 656 L318 656 L318 731 L586 731 Q571 766 539 832 L617 850 Q647 785 667 731 L934 731 L934 656 L836 656 Q774 538 676 459 ZM311 820 Q273 700 231 606 L231 -69 L153 -69 L153 454 Q116 391 62 319 L22 400 Q84 483 138 597 Q192 711 231 841 L311 820 ZM475 656 Q538 558 612 501 Q696 565 750 656 L475 656 ZM440 308 L520 308 L519 260 Q518 176 502 119 Q486 62 445.5 13.5 Q405 -35 330 -84 L272 -25 Q337 15 373 52.5 Q409 90 424.5 138 Q440 186 440 257 L440 308 ZM791 -68 L712 -68 L712 306 L791 306 L791 -68 Z" /><glyph glyph-name="uni4FAC" unicode="&#x4fac;" d="M737 279 Q776 210 830.5 153.5 Q885 97 959 43 L893 -22 Q773 75 701 184.5 Q629 294 588 465 Q554 388 513 330 L513 51 L668 121 L682 40 Q552 -10 482 -45 L437 -69 L400 -3 Q419 11 427.5 22.5 Q436 34 436 54 L436 236 Q382 179 307 121 L259 192 Q396 303 464.5 404 Q533 505 562 635 L411 635 L411 501 L337 501 L337 709 L575 709 Q582 771 587 846 L666 837 Q662 775 652 709 L894 709 L894 518 L820 518 L820 635 L639 635 L633 604 Q655 456 702 349 Q784 412 856 483 L904 420 Q827 347 737 279 ZM310 821 Q274 704 229 601 L229 -65 L151 -65 L151 449 Q108 378 66 321 L23 403 Q85 488 139.5 601 Q194 714 231 841 L310 821 Z" /><glyph glyph-name="uni4FAE" unicode="&#x4fae;" d="M955 296 L863 296 Q857 196 853 146 L933 146 L933 73 L848 73 L847 55 Q842 -12 815.5 -39.5 Q789 -67 728 -69 L695 -70 Q637 -70 570 -62 L556 9 Q630 -2 703 0 Q735 1 750.5 18.5 Q766 36 769 73 L325 73 L349 296 L271 296 L271 368 L357 368 L377 552 Q356 526 333 499 L275 553 Q332 616 383.5 695.5 Q435 775 466 848 L539 826 Q524 787 503 748 L931 748 L931 675 L463 675 Q432 625 402 585 L875 585 Q872 475 866 368 L955 368 L955 296 ZM304 819 Q268 702 233 619 L233 -72 L156 -72 L156 460 Q122 398 71 327 L29 407 Q84 490 137.5 605.5 Q191 721 226 840 L304 819 ZM448 513 L433 368 L791 368 L797 513 L579 513 Q630 476 698 422 L655 368 L634 385 Q554 450 529 468 L564 513 L448 513 ZM775 146 Q783 246 786 296 L557 296 Q617 254 682 201 L640 146 Q618 166 577.5 197.5 Q537 229 511 248 L546 296 L425 296 L409 146 L775 146 Z" /><glyph glyph-name="uni4FAF" unicode="&#x4faf;" d="M326 819 Q285 684 237 579 L237 -76 L161 -76 L161 435 Q122 371 74 312 L33 392 Q92 470 152.5 594 Q213 718 250 839 L326 819 ZM307 614 L754 614 L762 718 L385 718 L385 786 L844 786 L831 614 L955 614 L955 546 L307 546 L307 614 ZM674 191 Q707 125 778 78 Q849 31 964 3 L929 -73 Q719 -14 630 118 Q597 58 525 10.5 Q453 -37 328 -81 L290 -9 Q426 37 491.5 84 Q557 131 577 191 L301 191 L301 260 L589 260 Q592 301 592 370 L442 370 Q414 325 385 288 L320 330 Q359 376 386 422.5 Q413 469 437 528 L508 503 Q488 457 479 439 L901 439 L901 370 L670 370 L666 263 L666 260 L949 260 L949 191 L674 191 Z" /><glyph glyph-name="uni4FB5" unicode="&#x4fb5;" d="M311 819 Q273 683 229 581 L229 -77 L157 -77 L157 435 Q122 374 78 310 L29 382 Q89 466 144 588.5 Q199 711 234 837 L311 819 ZM356 795 L873 795 L873 485 L348 485 L348 549 L797 549 L797 610 L378 610 L378 671 L797 671 L797 731 L356 731 L356 795 ZM929 426 L929 268 L858 268 L858 363 L373 363 L373 268 L300 268 L300 426 L929 426 ZM936 -73 Q740 -30 629 31 Q508 -33 306 -75 L275 -7 Q449 25 558 76 Q476 139 410 231 L379 231 L379 294 L844 294 L844 233 Q780 134 697 74 Q802 25 962 -2 L936 -73 ZM499 231 Q555 158 625 113 Q698 160 755 231 L499 231 Z" /><glyph glyph-name="uni4FBF" unicode="&#x4fbf;" d="M312 818 Q282 702 235 590 L235 -76 L159 -76 L159 434 Q124 372 77 309 L35 389 Q89 467 145.5 592 Q202 717 235 839 L312 818 ZM942 -60 Q813 -47 718 -25 Q623 -3 549 32 Q474 -34 325 -78 L294 -6 Q413 28 477 74 Q413 118 359 178 L411 221 Q465 162 531 125 Q571 176 580 250 L350 250 L350 636 L585 636 L585 720 L337 720 L337 791 L937 791 L937 720 L660 720 L660 636 L893 636 L893 250 L657 250 Q646 154 601 89 Q738 31 961 15 L942 -60 ZM585 476 L585 569 L426 569 L426 476 L585 476 ZM817 476 L817 569 L660 569 L660 476 L817 476 ZM426 411 L426 318 L585 318 L585 411 L426 411 ZM660 318 L817 318 L817 411 L660 411 L660 318 Z" /><glyph glyph-name="uni4FC3" unicode="&#x4fc3;" d="M319 811 Q280 685 243 600 L243 -72 L163 -72 L163 443 Q124 378 73 313 L28 382 Q88 463 149 590.5 Q210 718 242 833 L319 811 ZM704 30 Q792 26 834 26 Q878 26 964 30 L950 -46 Q897 -50 829 -50 Q762 -50 707 -46 Q612 -40 548 -3 Q484 34 442 112 Q413 13 355 -76 L287 -34 Q346 59 371.5 153 Q397 247 401 385 L480 379 Q477 308 467 228 Q490 155 525.5 112.5 Q561 70 610 50 L610 457 L382 457 L382 787 L886 787 L886 457 L689 457 L689 307 L929 307 L929 231 L689 231 L689 31 L704 30 ZM808 715 L460 715 L460 531 L808 531 L808 715 Z" /><glyph glyph-name="uni4FC4" unicode="&#x4fc4;" d="M315 819 Q279 696 237 600 L237 -70 L163 -70 L163 451 Q128 389 80 319 L27 383 Q86 463 147.5 593 Q209 723 241 839 L315 819 ZM970 176 L967 155 Q958 94 949 50 Q935 -11 910.5 -38 Q886 -65 850 -65 Q813 -65 785 -38 Q757 -11 731 50 Q719 79 711 107 Q646 51 585 13 L546 82 Q629 133 691 189 Q671 293 656 481 L510 481 L510 348 L607 372 L618 295 Q604 293 551 279 L510 269 L510 54 Q510 -6 488.5 -31.5 Q467 -57 416 -57 Q357 -57 316 -52 L300 26 Q353 19 389 19 Q415 19 424.5 33.5 Q434 48 434 82 L434 249 L305 216 L289 293 L434 328 L434 481 L290 481 L290 555 L434 555 L434 682 Q391 672 326 662 L315 736 Q380 745 455 762 Q530 779 587 798 L604 726 Q573 716 510 699 L510 555 L650 555 Q649 578 645 640 Q642 698 639.5 754.5 Q637 811 636 838 L714 838 Q714 759 720 637 L724 555 L949 555 L949 481 L730 481 Q740 355 756 256 Q818 331 872 430 L933 396 Q857 261 773 169 Q788 109 804 75 Q818 45 827 34.5 Q836 24 847 24 Q861 24 869.5 38.5 Q878 53 885 95 Q899 175 901 200 L970 176 ZM871 596 Q844 634 807 680 Q770 726 742 755 L797 802 Q828 770 867.5 724.5 Q907 679 929 648 L871 596 Z" /><glyph glyph-name="uni4FCA" unicode="&#x4fca;" d="M319 623 Q357 631 376 644 Q418 676 477 738 Q536 800 574 852 L641 809 Q568 722 467 626 L767 652 Q748 671 685 731 L736 781 Q840 683 946 577 L894 523 Q856 563 829 590 Q786 586 749 583.5 Q712 581 684 579 Q637 575 551 568 Q465 561 415 556 Q352 548 335 545 L319 623 ZM325 820 Q288 697 238 587 L238 -71 L163 -71 L163 445 Q124 381 76 319 L28 385 Q90 465 152.5 593 Q215 721 249 841 L325 820 ZM706 548 Q753 522 832 476 Q911 430 955 402 L921 338 Q871 370 797.5 412.5 Q724 455 667 486 L706 548 ZM277 396 Q411 465 502 545 L548 487 Q447 401 317 329 L277 396 ZM925 -74 Q732 -15 625 49 Q509 -22 310 -79 L273 -3 Q457 46 556 97 Q493 146 444 216 Q387 155 323 106 L276 164 Q347 220 408.5 291 Q470 362 507 431 L572 399 Q554 365 544 349 L853 349 L853 286 Q784 167 691 94 Q791 41 959 0 L925 -74 ZM493 275 Q545 191 623 136 Q704 192 763 282 L498 282 L493 275 Z" /><glyph glyph-name="uni4FCE" unicode="&#x4fce;" d="M236 615 Q213 554 177.5 496.5 Q142 439 86 371 L27 435 Q111 531 153.5 623.5 Q196 716 210 837 L287 824 Q275 747 264 704 L321 639 Q383 570 420 526 L364 463 Q329 509 236 615 ZM869 790 L869 39 L957 39 L957 -36 L350 -36 L350 39 L447 39 L447 790 L869 790 ZM792 539 L792 712 L524 712 L524 539 L792 539 ZM524 293 L792 293 L792 465 L524 465 L524 293 ZM353 73 Q321 114 241 207 Q220 136 185 70 Q150 4 94 -67 L30 -13 Q92 64 127 134.5 Q162 205 178 277 Q194 349 201 444 L277 435 Q270 350 260 291 L280 269 Q375 170 407 132 L353 73 ZM792 218 L524 218 L524 39 L792 39 L792 218 Z" /><glyph glyph-name="uni4FCF" unicode="&#x4fcf;" d="M673 841 L673 559 L897 559 L897 51 Q897 7 889 -17 Q881 -41 862 -51.5 Q843 -62 806 -63 Q748 -64 682 -58 L670 18 Q733 11 770 11 Q796 11 807 25 Q818 39 818 74 L818 134 L448 134 L448 -63 L369 -63 L369 559 L591 559 L591 841 L673 841 ZM312 812 Q281 707 240 610 L240 -70 L162 -70 L162 453 Q119 378 75 319 L29 392 Q86 469 143 592.5 Q200 716 233 833 L312 812 ZM482 588 Q456 625 415.5 674.5 Q375 724 342 757 L399 809 Q431 777 472.5 728 Q514 679 542 641 L482 588 ZM923 759 Q893 716 854 667 Q815 618 783 586 L724 636 Q758 670 795.5 717 Q833 764 862 806 L923 759 ZM448 383 L818 383 L818 485 L448 485 L448 383 ZM448 311 L448 205 L818 205 L818 311 L448 311 Z" /><glyph glyph-name="uni4FD0" unicode="&#x4fd0;" d="M300 813 Q265 695 229 604 L229 -70 L156 -70 L156 450 Q122 389 78 330 L35 414 Q87 480 140 598 Q193 716 225 834 L300 813 ZM834 812 L906 812 L906 58 Q906 -8 885 -35 Q864 -62 808 -63 Q739 -65 683 -58 L671 17 Q736 9 788 10 Q815 11 824.5 26 Q834 41 834 80 L834 812 ZM501 477 L501 434 Q586 338 647 261 L595 205 Q548 279 501 340 L501 -67 L429 -67 L429 343 Q378 219 303 116 L253 176 Q302 241 345 319 Q388 397 418 477 L287 477 L287 552 L429 552 L429 686 L404 681 Q321 667 309 665 L296 739 Q362 747 450 766 Q538 785 606 805 L620 732 Q582 721 501 702 L501 552 L632 552 L632 477 L501 477 ZM684 718 L755 718 L755 158 L684 158 L684 718 Z" /><glyph glyph-name="uni4FD1" unicode="&#x4fd1;" d="M306 820 Q273 703 235 612 L235 -71 L159 -70 L159 454 Q118 381 73 321 L24 390 Q82 468 139.5 595.5 Q197 723 230 842 L306 820 ZM897 555 L897 37 Q897 -18 878.5 -40.5 Q860 -63 811 -63 Q763 -63 728 -58 L711 18 Q755 11 785 11 Q805 11 812.5 22.5 Q820 34 820 62 L820 135 L657 135 L657 -47 L583 -47 L583 135 L423 135 L423 -63 L347 -63 L347 555 L579 555 Q500 611 442 649 L490 704 Q543 668 615 616 L672 657 Q695 674 718 690.5 Q741 707 761 723 L351 723 L351 795 L890 795 L890 724 Q860 702 753 623 Q744 616 680 568 Q681 567 696 555 L897 555 ZM583 380 L583 481 L423 481 L423 380 L583 380 ZM657 380 L820 380 L820 481 L657 481 L657 380 ZM423 307 L423 208 L583 208 L583 307 L423 307 ZM657 307 L657 208 L820 208 L820 307 L657 307 Z" /><glyph glyph-name="uni4FD7" unicode="&#x4fd7;" d="M311 804 Q275 682 238 598 L238 -69 L160 -69 L160 445 Q122 381 77 323 L26 387 Q84 464 143 587.5 Q202 711 235 826 L311 804 ZM887 559 Q847 599 774.5 665 Q702 731 659 766 L710 824 Q755 787 827 723 Q899 659 938 620 L887 559 ZM297 619 Q346 653 407.5 710.5 Q469 768 515 823 L569 769 Q523 714 462.5 655.5 Q402 597 346 554 L297 619 ZM924 256 Q881 283 850 304 L850 -75 L774 -75 L774 -18 L463 -18 L463 -75 L388 -75 L388 301 Q350 274 315 253 L271 325 Q377 388 452 460.5 Q527 533 582 622 L655 622 Q710 531 786 459.5 Q862 388 969 328 L924 256 ZM826 322 Q701 416 621 545 Q580 480 531 426 Q482 372 416 322 L826 322 ZM463 247 L463 57 L774 57 L774 247 L463 247 Z" /><glyph glyph-name="uni4FD8" unicode="&#x4fd8;" d="M304 815 Q270 704 231 613 L231 -68 L152 -68 L152 449 Q111 373 63 306 L19 387 Q79 471 134.5 593 Q190 715 226 837 L304 815 ZM916 748 Q799 727 633 711 Q467 695 332 689 L324 762 Q466 769 626 784.5 Q786 800 901 821 L916 748 ZM727 529 Q752 568 782.5 619 Q813 670 831 705 L896 669 Q878 635 846.5 581 Q815 527 791 491 L727 529 ZM619 511 Q608 539 547 657 L613 690 Q628 660 638 642 Q679 562 686 546 L619 511 ZM428 498 Q419 515 362 615 L350 636 L414 674 L435 637 Q477 567 492 537 L428 498 ZM949 261 L949 188 L662 188 L662 56 Q662 -5 638.5 -31 Q615 -57 558 -57 Q500 -57 443 -51 L427 25 Q489 15 538 15 Q563 15 571.5 28 Q580 41 580 76 L580 188 L287 188 L287 261 L580 261 L580 301 L751 402 L355 402 L355 473 L884 473 L884 405 L662 271 L662 261 L949 261 Z" /><glyph glyph-name="uni4FDA" unicode="&#x4fda;" d="M305 814 Q271 695 234 604 L234 -73 L158 -73 L158 444 Q123 379 74 313 L24 380 Q83 464 142 592.5 Q201 721 230 836 L305 814 ZM663 145 L663 37 L959 37 L959 -34 L289 -34 L289 37 L588 37 L588 145 L342 145 L342 219 L588 219 L588 325 L361 325 L361 784 L891 784 L891 325 L663 325 L663 219 L917 219 L917 145 L663 145 ZM588 590 L588 711 L436 711 L436 590 L588 590 ZM663 590 L816 590 L816 711 L663 711 L663 590 ZM436 519 L436 397 L588 397 L588 519 L436 519 ZM663 519 L663 397 L816 397 L816 519 L663 519 Z" /><glyph glyph-name="uni4FDD" unicode="&#x4fdd;" d="M318 811 Q284 699 240 598 L240 -74 L164 -74 L164 448 Q125 381 74 315 L26 385 Q86 467 147 593.5 Q208 720 237 832 L318 811 ZM706 292 Q800 155 961 55 L917 -18 Q764 92 662 244 L662 -70 L587 -70 L587 250 Q535 169 470 103 Q405 37 321 -23 L277 46 Q360 102 423 160.5 Q486 219 537 292 L309 292 L309 365 L587 365 L587 468 L375 468 L375 786 L875 786 L875 468 L662 468 L662 365 L942 365 L942 292 L706 292 ZM796 710 L454 710 L454 543 L796 543 L796 710 Z" /><glyph glyph-name="uni4FDE" unicode="&#x4fde;" d="M547 837 Q702 674 965 581 L930 504 Q821 544 723 601 L723 543 L278 543 L278 596 Q181 539 71 495 L38 575 Q174 622 280 689.5 Q386 757 459 837 L547 837 ZM711 608 Q582 685 502 771 Q421 684 298 608 L711 608 ZM786 490 L858 490 L858 52 Q858 -14 833 -40 Q808 -66 742 -66 Q696 -66 631 -59 L618 11 Q686 0 728 0 Q763 0 774.5 16 Q786 32 786 72 L786 490 ZM141 -64 L141 471 L489 471 L489 41 Q489 -15 469 -39 Q449 -63 403 -63 Q352 -63 316 -58 L303 6 Q349 -1 381 -1 Q402 -1 410.5 11.5 Q419 24 419 54 L419 119 L211 119 L211 -64 L141 -64 ZM593 453 L663 453 L663 90 L593 90 L593 453 ZM419 326 L419 405 L211 405 L211 326 L419 326 ZM211 265 L211 181 L419 181 L419 265 L211 265 Z" /><glyph glyph-name="uni4FDF" unicode="&#x4fdf;" d="M671 202 Q711 131 782 83 Q853 35 962 7 L924 -72 Q718 -8 625 127 Q590 63 514 15 Q438 -33 308 -76 L265 2 Q401 40 473.5 86.5 Q546 133 570 202 L300 202 L300 278 L584 278 L584 285 L585 393 L443 393 Q412 341 382 300 L316 343 Q391 439 436 558 L420 556 Q358 550 346 548 L330 626 Q349 628 360 631.5 Q371 635 381 643 Q416 675 468 736.5 Q520 798 559 854 L622 817 Q590 766 549.5 714 Q509 662 474 627 L764 656 L686 745 L741 792 Q840 682 928 574 L874 522 L819 591 Q751 584 531 566 L448 559 L511 536 Q502 512 482 468 L892 468 L892 393 L666 393 L665 358 Q664 338 664 317.5 Q664 297 663 282 L663 278 L937 278 L937 202 L671 202 ZM316 819 Q283 706 243 610 L243 -73 L163 -73 L163 451 Q125 388 80 332 L30 399 Q90 480 147.5 600.5 Q205 721 238 839 L316 819 Z" /><glyph glyph-name="uni4FE1" unicode="&#x4fe1;" d="M960 722 L960 648 L310 648 L310 722 L607 722 Q601 736 597 743 Q566 809 557 824 L633 847 Q644 826 690 722 L960 722 ZM311 817 Q279 701 238 603 L238 -74 L161 -74 L161 448 Q123 384 79 324 L29 396 Q91 481 147.5 602 Q204 723 235 838 L311 817 ZM878 499 L371 499 L371 568 L878 568 L878 499 ZM878 348 L371 348 L371 419 L878 419 L878 348 ZM451 -71 L373 -71 L373 264 L878 264 L878 -71 L800 -71 L800 -16 L451 -16 L451 -71 ZM800 55 L800 191 L451 191 L451 55 L800 55 Z" /><glyph glyph-name="uni4FE6" unicode="&#x4fe6;" d="M955 366 L826 366 L826 284 L948 284 L948 213 L826 213 L826 54 Q826 -11 800.5 -38.5 Q775 -66 711 -66 Q669 -66 609 -59 L594 17 Q653 8 693 8 Q726 8 738.5 23.5 Q751 39 751 73 L751 213 L458 213 Q395 116 301 28 L244 84 Q377 205 453 366 L292 366 L292 437 L483 437 Q501 489 508 515 L342 515 L342 583 L525 583 Q529 600 535 634 Q536 642 540 663 L331 663 L331 734 L549 734 Q552 762 559 841 L637 834 Q631 768 627 734 L933 734 L933 663 L618 663 Q615 637 605 583 L900 583 L900 515 L590 515 Q576 463 567 437 L955 437 L955 366 ZM319 815 Q281 688 243 600 L243 -71 L166 -71 L166 450 Q123 380 77 325 L26 391 Q169 570 240 837 L319 815 ZM751 284 L751 366 L540 366 Q522 322 501 284 L751 284 ZM515 195 Q565 149 631 83 L575 27 Q500 109 462 144 L515 195 Z" /><glyph glyph-name="uni4FE8" unicode="&#x4fe8;" d="M319 816 Q284 696 238 591 L238 -77 L162 -77 L162 443 Q116 365 68 306 L23 382 Q86 459 146.5 585.5 Q207 712 242 834 L319 816 ZM955 777 L955 705 L760 705 L760 436 L953 436 L953 365 L433 365 L433 277 Q433 193 424 136 Q415 79 392.5 28 Q370 -23 327 -85 L256 -47 Q298 11 319.5 57 Q341 103 349.5 157.5 Q358 212 358 299 L358 436 L520 436 L520 705 L342 705 L342 777 L955 777 ZM592 436 L687 436 L687 705 L592 705 L592 436 ZM447 468 Q430 499 394 555 Q358 611 340 635 L397 676 Q415 653 450.5 598.5 Q486 544 504 511 L447 468 ZM772 508 Q798 539 831 589 Q864 639 881 672 L942 634 Q922 598 888 547 Q854 496 830 467 L772 508 Z" /><glyph glyph-name="uni4FE9" unicode="&#x4fe9;" d="M291 819 Q260 695 225 602 L225 -67 L152 -67 L152 440 Q123 386 78 321 L26 382 Q78 458 132 588.5 Q186 719 215 836 L291 819 ZM952 711 L747 711 Q747 621 746 578 L910 578 L910 52 Q910 4 899.5 -20.5 Q889 -45 864.5 -54 Q840 -63 793 -63 Q766 -63 712 -59 L697 17 Q759 9 790 9 Q816 9 826.5 24.5 Q837 40 837 77 L837 172 L798 143 Q765 201 718 275 Q703 220 679 166 Q655 112 617 49 L552 86 Q612 183 639 256 L592 220 L541 304 Q515 187 449 78 L400 112 L400 -66 L327 -66 L327 578 L490 578 L491 711 L309 711 L309 786 L952 786 L952 711 ZM677 578 L678 711 L564 711 L563 578 L677 578 ZM400 146 Q449 231 467 308 Q485 385 487 503 L400 503 L400 146 ZM585 362 Q620 306 644 270 Q660 320 668 376 Q676 432 677 503 L561 503 Q559 438 556 407 L585 362 ZM837 503 L745 503 Q743 423 737 373 L837 214 L837 503 Z" /><glyph glyph-name="uni4FEA" unicode="&#x4fea;" d="M282 828 Q255 712 214 598 L214 -78 L144 -78 L144 436 Q109 370 69 310 L29 395 Q78 473 127 599.5 Q176 726 203 843 L282 828 ZM295 706 L295 784 L955 784 L955 706 L295 706 ZM314 -62 L314 599 L576 599 L576 19 Q576 -26 560 -44.5 Q544 -63 508 -63 Q469 -63 442 -58 L427 16 Q457 9 479 9 Q495 9 501.5 19.5 Q508 30 508 57 L508 215 L465 195 L436 264 Q390 373 382 390 L382 -62 L314 -62 ZM645 -62 L645 599 L914 599 L914 19 Q914 -26 896.5 -44.5 Q879 -63 837 -63 Q800 -63 774 -58 L760 16 Q788 9 808 9 Q828 9 835.5 19.5 Q843 30 843 57 L843 217 L801 196 Q760 294 713 392 L713 -62 L645 -62 ZM508 520 L382 520 L382 409 L428 432 Q466 355 508 257 L508 520 ZM843 520 L713 520 L713 410 L762 434 Q815 322 843 260 L843 520 Z" /><glyph glyph-name="uni4FED" unicode="&#x4fed;" d="M326 821 Q291 708 236 587 L236 -70 L156 -70 L156 435 Q114 366 69 306 L35 405 Q98 483 152.5 599.5 Q207 716 244 843 L326 821 ZM406 515 Q358 475 305 439 L257 504 Q367 577 442 658 Q517 739 571 839 L647 839 Q699 740 776 659 Q853 578 964 505 L920 436 Q859 477 812 518 L812 453 L406 453 L406 515 ZM610 755 Q532 626 424 531 L797 531 Q685 629 610 755 ZM607 129 Q595 186 571 265 Q547 344 528 390 L598 414 Q615 370 640.5 288.5 Q666 207 679 151 L607 129 ZM874 379 Q851 309 813.5 210.5 Q776 112 744 40 L933 40 L933 -36 L288 -36 L288 40 L660 40 Q696 121 735.5 224.5 Q775 328 800 406 L874 379 ZM429 95 Q416 152 388.5 239.5 Q361 327 340 378 L410 401 Q430 351 458 264.5 Q486 178 502 119 L429 95 Z" /><glyph glyph-name="uni4FEE" unicode="&#x4fee;" d="M515 637 Q476 595 421 548 L377 606 Q509 716 571 849 L639 823 Q629 801 607 761 L892 761 L892 697 Q833 597 747 527 Q838 479 965 446 L938 376 Q781 422 683 483 Q580 420 410 366 L380 434 Q528 476 620 527 Q562 574 515 637 ZM295 821 Q260 690 215 582 L215 -74 L144 -74 L144 431 Q106 363 76 318 L35 395 Q83 465 138.5 594 Q194 723 223 838 L295 821 ZM362 96 L292 96 L292 699 L362 699 L362 96 ZM563 695 L559 690 Q610 617 682 567 Q753 619 803 695 L563 695 ZM793 377 Q628 272 466 219 L435 285 Q519 311 603.5 350.5 Q688 390 760 435 L793 377 ZM418 134 Q534 169 641 219.5 Q748 270 836 331 L874 276 Q789 214 680.5 162 Q572 110 452 74 L418 134 ZM374 -14 Q532 24 671.5 85.5 Q811 147 919 226 L956 172 Q750 10 403 -79 L374 -14 Z" /><glyph glyph-name="uni4FEF" unicode="&#x4fef;" d="M619 625 Q587 528 566 480 L566 -66 L496 -66 L496 350 Q481 328 449 288 L405 345 Q401 214 383 127.5 Q365 41 325 -57 L252 -25 Q286 48 303 109.5 Q320 171 326.5 242 Q333 313 333 423 L333 730 L620 730 Q605 763 571 831 L651 852 L709 730 L948 730 L948 656 L406 656 L406 441 Q406 376 405 347 Q450 401 487.5 479 Q525 557 549 645 L619 625 ZM300 810 Q270 700 228 598 L228 -72 L154 -72 L154 444 Q112 369 69 310 L25 387 Q82 462 136 584 Q190 706 221 828 L300 810 ZM959 491 L959 420 L869 420 L869 60 Q869 -7 844.5 -35 Q820 -63 760 -63 Q715 -63 670 -57 L654 18 Q662 17 690 13 Q718 9 743 9 Q775 9 787.5 25.5 Q800 42 800 82 L800 420 L623 420 L623 491 L800 491 L800 629 L869 629 L869 491 L959 491 ZM700 142 Q631 289 603 336 L664 369 L761 175 L700 142 Z" /><glyph glyph-name="uni4FF1" unicode="&#x4ff1;" d="M320 810 Q295 705 251 597 L251 -74 L175 -74 L175 440 Q136 373 97 321 L48 390 Q105 467 158 585.5 Q211 704 244 826 L320 810 ZM309 150 L309 223 L406 223 L406 787 L856 787 L856 223 L958 223 L958 150 L309 150 ZM780 642 L780 716 L482 716 L482 642 L780 642 ZM482 503 L780 503 L780 575 L482 575 L482 503 ZM780 364 L780 435 L482 435 L482 364 L780 364 ZM780 296 L482 296 L482 223 L780 223 L780 296 ZM758 118 Q868 59 966 -4 L924 -71 Q806 5 718 57 L758 118 ZM306 -8 Q420 49 503 117 L550 59 Q454 -24 343 -78 L306 -8 Z" /><glyph glyph-name="uni4FF8" unicode="&#x4ff8;" d="M791 203 L640 203 L640 128 L896 128 L896 61 L640 61 L640 -84 L566 -84 L566 61 L311 61 L311 128 L566 128 L566 203 L421 203 L421 264 Q362 202 278 148 L236 213 Q371 305 438 400 L276 400 L276 467 L479 467 Q497 505 509 538 L330 538 L330 602 L529 602 Q536 631 545 675 L313 675 L313 742 L556 742 Q566 821 567 838 L645 837 Q638 778 632 742 L915 742 L915 675 L621 675 Q617 650 605 602 L888 602 L888 538 L586 538 Q573 500 559 467 L943 467 L943 400 L766 400 Q838 282 967 219 L930 153 Q853 196 791 258 L791 203 ZM296 816 Q255 680 215 584 L215 -75 L141 -75 L141 433 Q102 365 57 305 L24 392 Q82 480 132.5 593.5 Q183 707 217 833 L296 816 ZM566 268 L566 362 L640 362 L640 268 L782 268 Q728 325 685 400 L524 400 Q485 331 425 268 L566 268 Z" /><glyph glyph-name="uni4FFA" unicode="&#x4ffa;" d="M885 70 Q889 122 889 160 L959 145 Q959 105 954 52 Q951 10 939.5 -12 Q928 -34 903.5 -43 Q879 -52 834 -54 Q780 -56 753 -56 Q726 -56 672 -54 Q613 -52 588.5 -29.5 Q564 -7 564 46 L564 114 L345 114 L345 428 Q326 414 274 378 L242 446 Q392 540 470 655 L301 655 L301 726 L511 726 Q539 783 557 850 L636 835 Q620 778 597 726 L928 726 L928 655 L729 655 Q770 592 831.5 539 Q893 486 970 449 L933 382 Q893 404 857 429 L857 114 L637 114 L637 62 Q637 32 649.5 21.5 Q662 11 697 9 Q718 8 760 8 Q802 8 823 9 Q859 11 871.5 22 Q884 33 885 70 ZM304 818 Q268 693 222 588 L222 -72 L148 -72 L148 442 Q113 382 69 326 L25 395 Q81 471 138 596.5 Q195 722 227 839 L304 818 ZM560 655 Q502 560 406 477 L564 477 L564 586 L637 586 L637 477 L796 477 Q703 558 645 655 L560 655 ZM419 326 L564 326 L564 412 L419 412 L419 326 ZM784 412 L637 412 L637 326 L784 326 L784 412 ZM419 264 L419 178 L564 178 L564 264 L419 264 ZM637 264 L637 178 L784 178 L784 264 L637 264 Z" /><glyph glyph-name="uni4FFE" unicode="&#x4ffe;" d="M955 167 L955 96 L705 96 L705 -76 L626 -76 L626 96 L285 96 L285 167 L406 167 L376 210 Q469 258 513 305 L365 305 L365 741 L542 741 Q568 800 585 852 L671 833 Q665 814 635 741 L889 741 L889 305 L606 305 Q554 227 443 167 L626 167 L626 273 L705 273 L705 167 L955 167 ZM326 817 Q292 708 245 604 L245 -73 L167 -73 L167 455 Q121 380 73 321 L23 388 Q85 463 147.5 592 Q210 721 245 839 L326 817 ZM589 670 L441 670 L441 558 L589 558 L589 670 ZM665 558 L813 558 L813 670 L665 670 L665 558 ZM441 375 L561 375 Q582 421 587 489 L441 489 L441 375 ZM813 375 L813 489 L663 489 Q659 428 640 375 L813 375 Z" /><glyph glyph-name="uni500C" unicode="&#x500c;" d="M861 320 L468 320 L468 229 L881 229 L881 -75 L802 -75 L802 -26 L468 -26 L468 -79 L391 -79 L391 547 L327 547 L327 731 L609 731 Q574 803 560 827 L640 853 Q683 767 699 731 L936 731 L936 547 L861 547 L861 320 ZM307 814 Q277 705 233 601 L233 -75 L155 -75 L155 442 Q120 378 78 320 L25 387 Q83 472 139.5 597 Q196 722 226 836 L307 814 ZM854 559 L854 656 L408 656 L408 559 L854 559 ZM468 390 L783 390 L783 490 L468 490 L468 390 ZM802 42 L802 158 L468 158 L468 42 L802 42 Z" /><glyph glyph-name="uni500D" unicode="&#x500d;" d="M956 469 L956 392 L306 392 L306 469 L475 469 Q460 549 437 648 L350 648 L350 722 L597 722 Q567 794 550 830 L627 849 Q641 819 665 759 L680 722 L922 722 L922 648 L825 648 Q809 572 800 534 L786 469 L956 469 ZM328 809 Q292 704 245 601 L245 -76 L167 -76 L167 449 Q124 376 84 320 L35 402 Q103 489 154.5 593.5 Q206 698 247 832 L328 809 ZM519 648 Q543 528 554 469 L707 469 Q727 556 746 648 L519 648 ZM468 -77 L385 -77 L385 287 L874 287 L874 -77 L794 -77 L794 -24 L468 -24 L468 -77 ZM794 48 L794 215 L468 215 L468 48 L794 48 Z" /><glyph glyph-name="uni500F" unicode="&#x500f;" d="M389 433 Q528 473 616 525 Q556 572 518 621 Q478 573 436 537 L391 595 Q443 642 495 713.5 Q547 785 579 855 L646 828 Q630 791 613 760 L886 760 L886 693 Q825 592 744 526 Q837 477 967 446 L941 376 Q787 418 682 480 Q580 414 420 364 L389 433 ZM293 824 Q253 685 215 586 L215 -74 L142 -74 L142 426 Q108 364 77 318 L24 381 Q77 458 131 588 Q185 718 218 841 L293 824 ZM295 700 L366 700 L366 100 L295 100 L295 700 ZM562 678 Q606 617 678 566 Q746 617 796 694 L573 694 L562 678 ZM819 276 L943 276 L943 204 L679 204 L675 185 Q730 148 814 86.5 Q898 25 940 -9 L894 -73 Q831 -15 647 117 Q615 59 551.5 13.5 Q488 -32 381 -77 L343 -6 Q471 40 528 88 Q585 136 601 204 L412 204 L412 276 L611 276 L611 283 Q614 352 614 402 L690 402 Q690 330 688 284 L688 276 L815 276 Q801 294 795 303 L741 373 L795 408 L846 345 L873 310 L819 276 Z" /><glyph glyph-name="uni5012" unicode="&#x5012;" d="M266 817 Q241 715 201 607 L201 -75 L129 -75 L129 446 Q94 380 64 332 L19 402 Q69 482 115 598 Q161 714 190 833 L266 817 ZM829 819 L901 819 L901 55 Q901 -13 883.5 -39.5 Q866 -66 817 -66 Q756 -66 712 -61 L697 12 Q751 5 790 5 Q811 5 820 22 Q829 39 829 77 L829 819 ZM485 428 L485 304 L618 304 L618 230 L485 230 L485 79 Q583 95 619 101 L642 105 L647 29 L257 -37 L250 39 L413 66 L413 230 L272 230 L272 304 L413 304 L413 418 Q373 411 304 402 L275 398 L256 464 Q264 466 272.5 472 Q281 478 285 484 Q323 541 385 685 L278 685 L278 760 L630 760 L630 685 L461 685 Q401 550 360 473 Q421 481 543 499 Q511 570 484 614 L543 639 Q566 602 598.5 534 Q631 466 650 416 L590 388 L570 440 L485 428 ZM685 710 L753 710 L753 148 L685 148 L685 710 Z" /><glyph glyph-name="uni5014" unicode="&#x5014;" d="M300 817 Q267 702 230 611 L230 -71 L155 -71 L155 446 Q119 375 80 317 L35 394 Q89 473 138 588 Q187 703 220 835 L300 817 ZM913 540 L419 540 L419 483 Q419 302 398.5 189.5 Q378 77 327 -51 L252 -15 Q289 65 307.5 129 Q326 193 333.5 274 Q341 355 341 485 L341 788 L913 788 L913 540 ZM837 610 L837 717 L419 717 L419 610 L837 610 ZM848 44 L848 206 L917 206 L917 -73 L848 -73 L848 -28 L459 -28 L459 207 L526 207 L526 44 L654 44 L654 266 L482 266 L482 472 L545 472 L545 335 L654 335 L654 514 L722 514 L722 335 L830 335 L830 471 L895 471 L895 266 L722 266 L722 44 L848 44 Z" /><glyph glyph-name="uni5018" unicode="&#x5018;" d="M659 833 L659 555 L903 555 L903 58 Q903 9 894 -16 Q885 -41 860 -52 Q835 -63 786 -63 Q731 -63 692 -58 L677 17 Q730 10 766 10 Q795 10 808 16 Q821 22 824 35 Q827 48 827 77 L827 480 L410 480 L410 -63 L335 -63 L335 555 L577 555 L577 833 L659 833 ZM294 811 Q264 702 225 604 L225 -71 L150 -71 L150 444 Q113 376 70 316 L34 403 Q87 475 134.5 586.5 Q182 698 216 829 L294 811 ZM464 587 Q436 622 394.5 670.5 Q353 719 326 747 L382 799 Q405 776 446.5 728 Q488 680 522 639 L464 587 ZM910 747 Q888 718 845.5 668 Q803 618 771 584 L712 637 Q741 664 784 713.5 Q827 763 851 795 L910 747 ZM496 385 L741 385 L741 83 L496 83 L496 385 ZM558 157 L678 157 L678 312 L558 312 L558 157 Z" /><glyph glyph-name="uni5019" unicode="&#x5019;" d="M291 819 Q260 705 219 598 L219 -72 L147 -72 L147 438 Q108 363 76 313 L35 395 Q82 470 135 597 Q188 724 218 838 L291 819 ZM832 611 L942 611 L942 542 L416 542 L416 611 L755 611 L764 718 L464 718 L464 787 L846 787 L832 611 ZM302 693 L373 693 L373 79 L302 79 L302 693 ZM717 196 Q774 54 959 -1 L916 -70 Q827 -38 767.5 9 Q708 56 673 121 Q640 61 574 13 Q508 -35 400 -76 L357 -9 Q579 71 622 196 L411 196 L411 265 L633 265 Q634 287 634 373 L519 373 Q491 323 467 287 L408 327 Q466 407 509 526 L575 505 L551 442 L900 442 L900 373 L715 373 L711 276 Q711 269 710 265 L938 265 L938 196 L717 196 Z" /><glyph glyph-name="uni501A" unicode="&#x501a;" d="M310 818 Q284 722 238 613 L238 -73 L161 -73 L161 452 Q118 374 72 310 L24 379 Q81 456 139.5 586.5 Q198 717 230 836 L310 818 ZM336 534 Q443 567 490.5 595 Q538 623 557 669 L347 669 L347 740 L572 740 L573 749 L577 836 L657 836 Q657 790 653 740 L910 740 L910 669 L643 669 L638 652 L689 628 Q710 618 781 584.5 Q852 551 884 533 L845 472 Q792 503 606 596 Q576 560 520 530.5 Q464 501 369 470 L336 534 ZM955 464 L955 391 L861 391 L861 58 Q861 -11 836.5 -38.5 Q812 -66 750 -66 Q704 -66 641 -59 L627 14 Q686 5 726 5 Q759 5 771 21 Q783 37 783 79 L783 391 L294 391 L294 464 L955 464 ZM353 313 L665 313 L665 58 L353 58 L353 313 ZM420 122 L600 122 L600 251 L420 251 L420 122 Z" /><glyph glyph-name="uni501C" unicode="&#x501c;" d="M287 818 Q258 704 223 609 L223 -76 L149 -76 L149 442 Q118 383 77 321 L26 380 Q80 457 132.5 587.5 Q185 718 210 834 L287 818 ZM350 786 L917 786 L917 55 Q917 -11 891.5 -38 Q866 -65 805 -65 Q755 -65 719 -60 L704 13 Q757 6 794 6 Q821 6 831.5 21 Q842 36 842 72 L842 714 L424 714 L424 420 Q424 227 408 122.5 Q392 18 345 -79 L271 -40 Q306 31 322.5 92 Q339 153 344.5 232 Q350 311 350 449 L350 786 ZM452 378 L452 445 L593 445 L593 541 L475 541 L475 606 L593 606 L593 691 L666 691 L666 606 L790 606 L790 541 L666 541 L666 445 L815 445 L815 378 L452 378 ZM494 300 L761 300 L761 57 L494 57 L494 300 ZM558 120 L697 120 L697 237 L558 237 L558 120 Z" /><glyph glyph-name="uni501F" unicode="&#x501f;" d="M308 819 Q277 712 237 613 L237 -73 L161 -73 L161 452 Q126 389 78 319 L27 385 Q85 468 142 594 Q199 720 229 836 L308 819 ZM783 642 L783 520 L954 520 L954 448 L287 448 L287 520 L450 520 L450 642 L326 642 L326 715 L450 715 L450 833 L528 833 L528 715 L705 715 L705 833 L783 833 L783 715 L923 715 L923 642 L783 642 ZM705 642 L528 642 L528 520 L705 520 L705 642 ZM453 -72 L372 -72 L372 366 L862 366 L862 -70 L782 -70 L782 -23 L453 -23 L453 -72 ZM782 204 L782 295 L453 295 L453 204 L782 204 ZM453 135 L453 45 L782 45 L782 135 L453 135 Z" /><glyph glyph-name="uni5021" unicode="&#x5021;" d="M328 813 Q289 693 245 599 L245 -74 L168 -74 L168 449 Q133 386 79 309 L31 385 Q93 462 153.5 588.5 Q214 715 248 835 L328 813 ZM387 782 L864 782 L864 431 L387 431 L387 782 ZM786 639 L786 715 L464 715 L464 639 L786 639 ZM464 575 L464 497 L786 497 L786 575 L464 575 ZM350 -70 L350 349 L901 349 L901 -68 L823 -68 L823 -22 L428 -22 L428 -70 L350 -70 ZM823 195 L823 281 L428 281 L428 195 L823 195 ZM428 130 L428 45 L823 45 L823 130 L428 130 Z" /><glyph glyph-name="uni5026" unicode="&#x5026;" d="M672 170 Q695 170 703 179.5 Q711 189 714 221 Q717 254 717 262 L482 262 L482 85 Q482 47 495 31.5 Q508 16 543 13 Q609 9 642 9 Q675 9 741 13 Q783 16 797.5 29 Q812 42 814 77 Q817 113 817 141 L892 123 Q891 101 885 46 Q882 -10 854 -31.5 Q826 -53 760 -58 Q708 -62 644 -62 Q579 -62 527 -58 Q466 -54 438 -26 Q410 2 410 63 L410 260 Q363 218 293 170 L253 236 Q391 323 464 426 L296 426 L296 495 L506 495 Q525 535 538 576 L327 576 L327 644 L449 644 Q387 728 354 769 L412 810 Q449 766 513 680 L466 644 L555 644 Q577 744 589 845 L661 835 Q653 756 630 644 L763 644 L712 679 Q769 743 816 809 L875 773 Q824 702 774 644 L910 644 L910 576 L614 576 Q606 542 587 495 L938 495 L938 426 L763 426 Q835 329 971 259 L934 187 Q855 233 791 291 Q790 251 784 200 Q779 161 768.5 141.5 Q758 122 736.5 114 Q715 106 675 106 Q630 106 583 112 L572 179 Q622 170 672 170 ZM303 821 Q274 714 232 611 L232 -74 L155 -74 L155 454 Q123 396 72 325 L35 411 Q87 479 142 601.5 Q197 724 227 838 L303 821 ZM748 332 Q705 378 675 426 L552 426 Q524 378 484 332 L748 332 Z" /><glyph glyph-name="uni5028" unicode="&#x5028;" d="M308 824 Q278 707 229 591 L229 -74 L152 -74 L152 437 Q115 372 66 308 L19 381 Q81 465 137.5 589 Q194 713 229 839 L308 824 ZM960 365 L723 365 L723 258 L893 258 L893 -75 L815 -75 L815 -25 L548 -25 L548 -76 L469 -76 L469 258 L643 258 L643 365 L436 365 Q430 227 408 128 Q386 29 340 -68 L266 -21 Q304 55 323 124 Q342 193 349 278.5 Q356 364 356 503 L356 791 L913 791 L913 538 L723 538 L723 434 L960 434 L960 365 ZM831 607 L831 722 L438 722 L438 607 L831 607 ZM438 434 L643 434 L643 538 L438 538 L438 434 ZM548 43 L815 43 L815 187 L548 187 L548 43 Z" /><glyph glyph-name="uni5029" unicode="&#x5029;" d="M658 569 L658 509 L956 509 L956 447 L291 447 L291 509 L582 509 L582 569 L347 569 L347 630 L582 630 L582 688 L327 688 L327 752 L582 752 L582 835 L658 835 L658 752 L923 752 L923 688 L658 688 L658 630 L899 630 L899 569 L658 569 ZM307 818 Q276 707 235 607 L235 -73 L162 -73 L162 454 Q127 388 79 321 L27 385 Q85 462 142.5 588.5 Q200 715 231 833 L307 818 ZM366 -64 L366 386 L869 386 L869 34 Q869 -20 848.5 -43.5 Q828 -67 780 -67 Q724 -67 667 -61 L655 1 Q717 -7 748 -7 Q794 -7 794 50 L794 77 L440 77 L440 -64 L366 -64 ZM794 263 L794 323 L440 323 L440 263 L794 263 ZM440 200 L440 140 L794 140 L794 200 L440 200 Z" /><glyph glyph-name="uni502A" unicode="&#x502a;" d="M314 831 Q274 698 237 611 L237 -66 L161 -66 L161 456 Q119 382 69 317 L26 395 Q91 480 144.5 597.5 Q198 715 237 847 L314 831 ZM950 166 L946 49 Q945 0 922 -19 Q899 -38 843 -42 Q815 -44 800 -44 Q786 -44 756 -42 Q720 -39 700.5 -30.5 Q681 -22 671.5 -2 Q662 18 662 56 L662 302 L549 302 L548 274 Q542 182 522 125.5 Q502 69 453.5 22.5 Q405 -24 310 -75 L262 -5 Q343 35 386 72 Q429 109 448 155.5 Q467 202 470 274 L471 302 L353 302 L353 763 Q405 773 464 792 Q523 811 571 833 L594 756 Q518 717 433 694 L433 578 L588 578 L588 509 L433 509 L433 379 L801 379 L801 509 L642 509 L642 578 L801 578 L801 705 L641 705 L641 781 L879 781 L879 302 L739 302 L739 82 Q739 53 747 44.5 Q755 36 781 34 L806 33 Q838 33 852 36 Q866 39 872 49.5 Q878 60 879 83 Q881 119 881 180 L950 166 Z" /><glyph glyph-name="uni502C" unicode="&#x502c;" d="M654 155 L956 155 L956 85 L654 85 L654 -71 L574 -71 L574 85 L289 85 L289 155 L574 155 L574 245 L352 245 L352 595 L566 595 L566 839 L646 839 L646 748 L937 748 L937 679 L646 679 L646 595 L885 595 L885 245 L654 245 L654 155 ZM330 811 Q290 689 246 593 L246 -67 L168 -67 L168 440 Q130 374 76 296 L33 379 Q95 462 153.5 585 Q212 708 250 834 L330 811 ZM806 454 L806 529 L432 529 L432 454 L806 454 ZM806 390 L432 390 L432 312 L806 312 L806 390 Z" /><glyph glyph-name="uni502D" unicode="&#x502d;" d="M314 817 Q279 699 237 603 L237 -77 L162 -77 L162 455 Q125 391 71 317 L26 389 Q90 467 147 590.5 Q204 714 236 834 L314 817 ZM300 408 Q370 440 422 473.5 Q474 507 521 552 L320 552 L320 617 L590 617 L590 712 Q458 701 361 698 L356 769 Q463 772 622 784.5 Q781 797 885 811 L896 740 Q796 729 663 718 L663 617 L940 617 L940 552 L729 552 Q772 511 825 479 Q878 447 959 414 L927 347 Q834 388 773.5 430 Q713 472 663 528 L663 387 L590 387 L590 529 Q539 471 481 427 Q423 383 340 341 L300 408 ZM610 357 Q600 333 583 301 L955 301 L955 236 L819 236 Q784 140 723 83 L946 -2 L905 -70 Q796 -23 656 32 Q599 -2 517 -27 Q435 -52 318 -73 L290 1 Q471 31 563 68 Q437 116 387 133 Q421 183 455 236 L292 236 L292 301 L494 301 Q521 346 535 381 L610 357 ZM544 236 L498 166 L643 113 Q674 136 695.5 165.5 Q717 195 733 236 L544 236 Z" /><glyph glyph-name="uni503A" unicode="&#x503a;" d="M664 556 L664 491 L966 491 L966 430 L293 430 L293 491 L587 491 L587 556 L351 556 L351 617 L587 617 L587 681 L339 681 L339 741 L587 741 L587 839 L664 839 L664 741 L931 741 L931 681 L664 681 L664 617 L902 617 L902 556 L664 556 ZM311 814 Q276 692 236 599 L236 -75 L160 -75 L160 445 Q124 383 80 323 L31 390 Q92 471 146.5 589.5 Q201 708 233 829 L311 814 ZM867 361 L867 95 L793 95 L793 293 L457 293 L457 93 L383 93 L383 361 L867 361 ZM652 173 Q648 149 645 137 Q840 45 946 -8 L911 -76 Q857 -46 772.5 -3 Q688 40 621 73 Q593 27 531 -4 Q469 -35 331 -77 L301 -5 Q418 25 475.5 53 Q533 81 553 109.5 Q573 138 582 185 Q589 220 591 264 L662 262 Q662 239 652 173 Z" /><glyph glyph-name="uni503C" unicode="&#x503c;" d="M295 825 Q262 704 227 613 L227 -67 L149 -67 L149 441 Q109 367 70 311 L27 397 Q85 480 132.5 596 Q180 712 213 841 L295 825 ZM868 596 L868 34 L956 34 L956 -36 L273 -36 L273 34 L363 34 L363 596 L576 596 L576 685 L322 685 L322 754 L576 754 L576 839 L656 839 L656 754 L928 754 L928 685 L656 685 L656 596 L868 596 ZM788 451 L788 528 L443 528 L443 451 L788 451 ZM443 311 L788 311 L788 389 L443 389 L443 311 ZM788 170 L788 248 L443 248 L443 170 L788 170 ZM788 109 L443 109 L443 34 L788 34 L788 109 Z" /><glyph glyph-name="uni503E" unicode="&#x503e;" d="M277 823 Q250 722 219 637 L219 -63 L147 -63 L147 462 Q110 382 69 310 L25 378 Q77 465 128.5 598.5 Q180 732 202 839 L277 823 ZM489 242 L510 163 Q412 92 375 61 L335 26 L291 90 Q308 104 316 119.5 Q324 135 324 156 L324 819 L396 819 L396 582 L496 582 L496 505 L396 505 L396 170 L489 242 ZM661 606 Q663 614 680 693 L686 722 L512 722 L512 787 L948 787 L948 722 L761 722 Q741 632 735 606 L918 606 L918 148 L851 148 L851 540 L611 540 L611 149 L544 149 L544 606 L661 606 ZM752 179 Q865 77 956 -10 L903 -66 Q841 -1 724 108 Q697 59 646 15.5 Q595 -28 512 -74 L471 -8 Q571 42 619.5 88 Q668 134 683.5 188.5 Q699 243 699 332 L699 478 L766 478 L766 316 Q766 235 752 179 Z" /><glyph glyph-name="uni5043" unicode="&#x5043;" d="M307 821 Q270 697 233 608 L233 -69 L159 -69 L159 453 Q117 378 69 313 L28 390 Q86 473 141.5 597 Q197 721 230 840 L307 821 ZM398 720 L398 34 L958 34 L958 -36 L326 -36 L326 791 L941 791 L941 720 L398 720 ZM845 284 Q813 215 770 175 Q874 135 919 117 L889 56 Q799 96 711 133 Q626 84 452 53 L434 112 Q569 135 636 162 Q552 195 494 215 Q509 236 539 284 L433 284 L433 340 L571 340 Q588 369 600 395 L481 395 L481 664 L885 664 L885 395 L676 395 L667 377 L647 340 L940 340 L940 284 L845 284 ZM817 559 L817 606 L550 606 L550 559 L817 559 ZM817 501 L550 501 L550 453 L817 453 L817 501 ZM588 242 Q653 220 705 200 Q747 233 772 284 L616 284 Q600 258 588 242 Z" /><glyph glyph-name="uni5046" unicode="&#x5046;" d="M929 155 Q865 192 818 234 L818 -68 L744 -68 L744 -21 L479 -21 L479 -70 L406 -70 L406 219 Q368 185 308 140 L263 199 Q339 251 391.5 302 Q444 353 479 410 L316 410 L316 472 L511 472 Q527 509 537 546 L362 546 L362 607 L552 607 Q559 649 563 681 L346 681 L346 744 L569 744 Q576 797 578 839 L657 839 Q655 801 650 744 L897 744 L897 681 L642 681 L630 607 L871 607 L871 546 L615 546 Q605 511 591 472 L921 472 L921 410 L755 410 Q789 353 838.5 307.5 Q888 262 962 221 L929 155 ZM325 817 Q283 689 236 587 L236 -74 L161 -74 L161 446 Q119 377 73 318 L35 403 Q96 483 151.5 598 Q207 713 245 833 L325 817 ZM562 410 Q536 363 503 321 L736 321 Q706 360 678 410 L562 410 ZM479 181 L744 181 L744 258 L479 258 L479 181 ZM479 118 L479 43 L744 43 L744 118 L479 118 Z" /><glyph glyph-name="uni5047" unicode="&#x5047;" d="M293 819 Q257 692 224 607 L224 -75 L149 -75 L149 447 Q119 392 74 328 L29 401 Q86 483 134.5 597 Q183 711 215 834 L293 819 ZM587 204 L587 130 L397 130 L397 -69 L323 -69 L323 791 L590 791 L590 509 L397 509 L397 395 L570 395 L570 322 L397 322 L397 204 L587 204 ZM631 790 L894 790 L894 510 L630 510 L630 586 L821 586 L821 716 L631 716 L631 790 ZM517 582 L517 717 L397 717 L397 582 L517 582 ZM810 133 Q870 69 965 10 L924 -66 Q826 1 763 76 Q691 1 576 -72 L533 -5 Q652 71 717 137 Q658 224 621 343 L599 343 L599 415 L905 415 L905 340 Q873 219 810 133 ZM693 343 Q720 257 764 192 Q811 259 833 343 L693 343 Z" /><glyph glyph-name="uni5048" unicode="&#x5048;" d="M322 816 Q278 685 232 584 L232 -74 L157 -74 L157 444 Q116 377 69 318 L35 400 Q96 480 151.5 595 Q207 710 245 830 L322 816 ZM916 391 Q910 184 897 45 Q891 -18 865.5 -43.5 Q840 -69 785 -69 Q737 -69 689 -63 L675 2 Q725 -4 751 -4 Q778 -4 792 2 Q806 8 812.5 22.5 Q819 37 823 67 Q835 162 839 326 L676 326 Q665 300 650 274 Q727 224 791 177 L749 123 Q701 163 613 225 Q560 161 492 124 L457 179 Q502 203 540 242 Q578 281 603 326 L431 326 Q405 298 390 284 L425 284 L425 90 L738 90 L738 25 L352 25 L352 249 Q318 221 300 208 L260 273 Q310 310 359.5 360.5 Q409 411 445 462 L376 462 L376 795 L862 795 L862 462 L531 462 Q507 420 485 391 L916 391 ZM782 658 L782 732 L455 732 L455 658 L782 658 ZM455 597 L455 523 L782 523 L782 597 L455 597 Z" /><glyph glyph-name="uni504C" unicode="&#x504c;" d="M313 818 Q279 701 234 596 L234 -71 L157 -71 L157 440 Q116 368 67 302 L28 396 Q91 484 146 600 Q201 716 234 836 L313 818 ZM533 572 L455 572 L455 654 L318 654 L318 732 L455 732 L455 833 L533 833 L533 732 L723 732 L723 833 L799 833 L799 732 L955 732 L955 654 L799 654 L799 573 L723 573 L723 654 L533 654 L533 572 ZM956 423 L579 423 Q550 360 512 308 L880 308 L880 -67 L805 -67 L805 -9 L502 -9 L502 -67 L425 -67 L425 210 Q379 167 302 111 L260 180 Q342 237 397.5 295 Q453 353 490 423 L309 423 L309 499 L525 499 Q542 544 555 593 L634 574 L610 499 L956 499 L956 423 ZM502 65 L805 65 L805 233 L502 233 L502 65 Z" /><glyph glyph-name="uni504E" unicode="&#x504e;" d="M305 814 Q272 702 232 608 L232 -78 L156 -78 L156 453 Q111 374 62 309 L25 394 Q83 475 136 590.5 Q189 706 228 833 L305 814 ZM345 792 L872 792 L872 419 L345 419 L345 792 ZM574 635 L574 728 L424 728 L424 635 L574 635 ZM643 635 L794 635 L794 728 L643 728 L643 635 ZM574 573 L424 573 L424 481 L574 481 L574 573 ZM643 573 L643 481 L794 481 L794 573 L643 573 ZM739 107 Q779 77 833 53.5 Q887 30 961 9 L921 -58 Q810 -21 739 21.5 Q668 64 620 124 Q572 184 535 277 L443 277 L443 26 L616 91 L621 16 Q479 -30 423 -53 Q394 -66 368 -80 L334 -12 Q352 -1 359.5 10.5 Q367 22 367 38 L367 277 L267 277 L267 346 L941 346 L941 277 L610 277 Q641 204 687 154 Q771 198 843 251 L886 197 Q825 154 739 107 Z" /><glyph glyph-name="uni504F" unicode="&#x504f;" d="M907 417 L907 7 Q907 -31 894 -46.5 Q881 -62 845 -62 Q819 -62 781 -58 L765 9 Q795 5 810 5 Q825 5 831 10.5 Q837 16 837 30 L837 155 L754 155 L754 -19 L689 -19 L689 155 L607 155 L607 -18 L542 -18 L542 155 L460 155 L460 -63 L392 -63 L392 323 Q379 211 353 112.5 Q327 14 288 -54 L228 -5 Q283 89 306.5 216.5 Q330 344 330 530 L330 742 L582 742 L544 832 L624 850 L667 742 L894 742 L894 507 L403 507 Q403 462 400 417 L907 417 ZM293 808 Q256 678 222 590 L222 -69 L148 -69 L148 435 Q120 386 79 326 L32 394 Q90 479 139 595.5 Q188 712 218 831 L293 808 ZM819 575 L819 674 L403 674 L403 575 L819 575 ZM460 352 L460 220 L542 220 L542 352 L460 352 ZM607 352 L607 220 L689 220 L689 352 L607 352 ZM754 352 L754 220 L837 220 L837 352 L754 352 Z" /><glyph glyph-name="uni5055" unicode="&#x5055;" d="M312 819 Q285 726 243 622 L243 -75 L166 -75 L166 456 Q123 374 74 304 L31 381 Q89 466 145.5 592.5 Q202 719 237 839 L312 819 ZM951 621 Q950 576 945 522 Q941 472 916.5 453 Q892 434 831 432 L786 431 L741 432 Q684 434 662.5 454 Q641 474 641 527 L641 838 L711 838 L711 688 Q759 711 810 739.5 Q861 768 893 790 L928 725 Q892 703 828.5 669.5 Q765 636 711 609 L711 551 Q711 520 721 510.5 Q731 501 763 499 L794 498 L825 499 Q857 500 867.5 511 Q878 522 880 554 Q883 605 883 635 L951 621 ZM600 487 Q495 460 400 426 L359 411 L331 477 Q350 487 357 497 Q364 507 364 528 L364 835 L435 835 L435 716 L598 716 L598 645 L435 645 L435 514 L589 559 L600 487 ZM648 433 Q638 398 619 351 L875 351 L875 -72 L803 -72 L803 -24 L445 -24 L445 -73 L373 -73 L373 351 L537 351 Q560 413 568 444 L648 433 ZM445 196 L803 196 L803 284 L445 284 L445 196 ZM445 132 L445 41 L803 41 L803 132 L445 132 Z" /><glyph glyph-name="uni505A" unicode="&#x505a;" d="M795 190 Q858 87 969 -8 L919 -75 Q813 21 753 117 Q691 24 578 -78 L527 -14 Q652 91 712 190 Q659 301 636 462 Q610 418 596 397 L545 456 Q593 536 632 642 Q671 748 686 845 L759 832 Q747 759 722 672 L959 672 L959 596 L889 596 Q877 460 856 365 Q835 270 795 190 ZM267 818 Q244 722 208 619 L208 -72 L134 -72 L134 445 Q98 374 69 330 L24 403 Q74 492 120 609 Q166 726 191 838 L267 818 ZM289 30 L289 404 L385 404 L385 581 L257 581 L257 656 L385 656 L385 836 L458 836 L458 656 L586 656 L586 581 L458 581 L458 404 L553 404 L553 30 L289 30 ZM685 566 Q699 394 753 269 Q780 334 796.5 413.5 Q813 493 821 596 L696 596 L685 566 ZM356 104 L486 104 L486 329 L356 329 L356 104 Z" /><glyph glyph-name="uni505C" unicode="&#x505c;" d="M934 746 L934 677 L320 677 L320 746 L571 746 Q551 800 541 824 L620 849 Q634 814 657 746 L934 746 ZM305 823 Q267 699 231 608 L231 -67 L157 -67 L157 450 Q117 378 76 324 L35 402 Q88 479 140 595.5 Q192 712 228 839 L305 823 ZM375 442 L375 620 L859 620 L859 442 L375 442 ZM450 497 L784 497 L784 563 L450 563 L450 497 ZM376 210 L302 210 L302 383 L929 383 L929 209 L854 209 L854 314 L376 314 L376 210 ZM396 168 L396 236 L833 236 L833 168 L668 168 L668 43 Q668 -16 643.5 -41 Q619 -66 555 -66 Q510 -66 445 -59 L431 15 Q503 5 540 5 Q569 5 580.5 19.5 Q592 34 592 64 L592 168 L396 168 Z" /><glyph glyph-name="uni5065" unicode="&#x5065;" d="M727 48 L654 48 L654 147 L482 147 L482 210 L654 210 L654 282 L518 282 L518 343 L654 343 L654 410 L522 410 L522 471 L654 471 L654 548 L493 548 L493 611 L654 611 L654 688 L522 688 L522 749 L654 749 L654 837 L727 837 L727 749 L890 749 L890 611 L953 611 L953 548 L890 548 L890 410 L727 410 L727 343 L899 343 L899 282 L727 282 L727 210 L927 210 L927 147 L727 147 L727 48 ZM258 816 Q235 715 202 618 L202 -69 L132 -69 L132 445 Q101 379 66 322 L21 394 Q71 476 115 594.5 Q159 713 185 831 L258 816 ZM646 21 Q724 16 788 16 Q862 16 954 21 L940 -46 Q850 -51 777 -51 Q716 -51 639 -46 Q557 -40 493.5 -13 Q430 14 381 67 Q346 6 293 -64 L233 -16 Q296 58 334 127 Q282 209 243 339 L304 360 Q332 263 366 199 Q383 244 392.5 296.5 Q402 349 408 420 L273 420 L273 487 L397 696 L271 696 L271 763 L476 763 L476 695 L352 487 L476 487 L476 417 Q465 316 451 251 Q437 186 413 130 Q496 31 646 21 ZM821 688 L727 688 L727 611 L821 611 L821 688 ZM821 548 L727 548 L727 471 L821 471 L821 548 Z" /><glyph glyph-name="uni506C" unicode="&#x506c;" d="M269 551 Q396 686 462 853 L538 836 Q513 779 496 746 L919 746 Q917 690 907 573.5 Q897 457 887 397 Q880 357 867 334.5 Q854 312 828.5 301.5 Q803 291 759 291 Q736 291 692 295 L678 363 Q722 357 743 357 Q769 357 782 362 Q795 367 802.5 381.5 Q810 396 816 427 Q826 481 833 550 Q840 619 842 676 L760 676 Q740 559 703 482 L772 455 L746 391 Q706 408 670 421 Q620 344 535 274 L481 323 Q558 381 604 447 L522 479 Q453 388 341 306 L290 363 Q390 431 450 505 L398 524 L423 583 L490 560 Q525 615 546 676 L457 676 Q404 587 330 502 L269 551 ZM304 819 Q266 686 225 589 L225 -71 L151 -71 L151 437 Q109 363 71 309 L28 396 Q154 584 224 834 L304 819 ZM638 506 Q669 568 691 676 L620 676 Q597 598 559 535 L638 506 ZM612 284 L698 158 L641 120 Q597 191 557 246 L612 284 ZM850 255 Q908 141 964 18 L899 -14 Q831 143 787 224 L850 255 ZM243 22 Q272 72 299 134.5 Q326 197 345 254 L410 237 Q392 175 366 109.5 Q340 44 311 -10 L243 22 ZM717 157 L784 144 Q784 123 779 50 Q775 -7 749.5 -31 Q724 -55 661 -59 Q641 -61 601 -61 Q560 -61 540 -59 Q485 -55 461.5 -28.5 Q438 -2 438 60 L438 254 L510 254 L510 76 Q510 42 521 26.5 Q532 11 558 9 Q585 6 612 6 Q635 6 659 9 Q691 13 701.5 26 Q712 39 714 73 L717 157 Z" /><glyph glyph-name="uni5076" unicode="&#x5076;" d="M311 817 Q275 701 230 595 L230 -73 L155 -73 L155 447 Q110 370 59 307 L25 392 Q89 480 142 593 Q195 706 232 835 L311 817 ZM658 335 L915 335 L915 38 Q915 -16 898.5 -40.5 Q882 -65 836 -65 Q770 -65 723 -60 L709 9 Q760 2 795 2 Q822 2 831.5 14 Q841 26 841 59 L841 270 L658 270 L658 151 L726 157 L706 220 L764 237 Q794 149 819 58 L760 43 L746 91 Q504 71 455 65 L448 137 L541 143 L585 146 L585 270 L409 270 L409 -62 L336 -62 L336 335 L585 335 L585 416 L367 416 L367 791 L881 791 L881 416 L658 416 L658 335 ZM585 637 L585 725 L442 725 L442 637 L585 637 ZM658 637 L806 637 L806 725 L658 725 L658 637 ZM442 571 L442 483 L585 483 L585 571 L442 571 ZM658 571 L658 483 L806 483 L806 571 L658 571 Z" /><glyph glyph-name="uni5077" unicode="&#x5077;" d="M658 836 Q711 760 790 695 Q869 630 966 586 L930 514 Q857 549 784 601 L784 546 L439 546 L439 593 Q374 546 291 499 L253 571 Q363 629 439.5 693 Q516 757 571 836 L658 836 ZM311 818 Q272 691 224 586 L224 -75 L151 -75 L151 446 Q115 385 70 319 L31 405 Q91 486 144.5 601.5 Q198 717 231 834 L311 818 ZM774 609 Q678 680 615 768 Q550 680 460 609 L774 609 ZM819 497 L887 497 L887 41 Q887 -15 866.5 -41 Q846 -67 796 -67 Q742 -67 680 -59 L666 8 Q738 -2 774 -2 Q799 -2 809 13.5 Q819 29 819 62 L819 497 ZM325 -66 L325 479 L604 479 L604 22 Q604 -24 588 -44 Q572 -64 537 -64 Q502 -64 457 -59 L442 12 Q479 5 505 5 Q522 5 529 15.5 Q536 26 536 47 L536 125 L393 125 L393 -66 L325 -66 ZM679 102 L679 465 L744 465 L744 102 L679 102 ZM536 332 L536 418 L393 418 L393 332 L536 332 ZM393 271 L393 185 L536 185 L536 271 L393 271 Z" /><glyph glyph-name="uni507F" unicode="&#x507f;" d="M859 559 L383 559 L383 429 L308 429 L308 632 L585 632 L585 836 L661 836 L661 632 L937 632 L937 428 L859 428 L859 559 ZM307 812 Q277 712 231 604 L231 -72 L155 -72 L155 449 Q109 366 60 302 L26 384 Q98 499 144.5 601 Q191 703 231 832 L307 812 ZM455 636 Q438 667 412 708.5 Q386 750 365 779 L422 812 Q469 746 513 672 L455 636 ZM882 775 Q867 745 839.5 703 Q812 661 792 634 L734 671 Q756 699 781.5 739 Q807 779 823 808 L882 775 ZM827 456 L827 387 L417 387 L417 456 L827 456 ZM594 212 Q566 166 527.5 113.5 Q489 61 460 28 L767 61 Q722 124 694 158 L755 194 Q789 154 842 84 Q895 14 927 -33 L861 -80 Q831 -31 813 -5 Q734 -12 555 -31 L426 -44 L344 -52 L328 22 Q347 30 358.5 37 Q370 44 380 56 Q454 140 500 212 L296 212 L296 284 L947 284 L947 212 L594 212 Z" /><glyph glyph-name="uni5080" unicode="&#x5080;" d="M910 93 L954 81 L949 29 Q946 0 935 -15.5 Q924 -31 900.5 -38 Q877 -45 833 -48 Q810 -50 762 -50 Q715 -50 691 -48 Q632 -44 608 -23.5 Q584 -3 584 51 L584 203 Q545 126 475 59.5 Q405 -7 297 -73 L254 -4 Q379 68 450 145.5 Q521 223 548 322 L344 322 L344 750 L520 750 Q541 811 550 853 L637 842 Q629 813 609 750 L874 750 L874 322 L626 322 Q618 290 613 275 L656 275 L656 71 Q656 42 667.5 32 Q679 22 711 19 Q745 17 763 17 Q781 17 817 19 Q857 22 870.5 30 Q884 38 886 60 Q888 78 888 99 L903 95 L893 118 Q857 112 752 92 Q736 88 729 87 L687 77 L673 131 Q684 135 691 140 Q698 145 704 154 Q722 183 744 227.5 Q766 272 781 310 L837 291 Q799 197 767 146 L871 167 L836 238 L884 261 Q932 167 957 112 L910 93 ZM299 814 Q270 716 228 614 L228 -70 L153 -70 L153 453 Q115 379 63 304 L22 382 Q78 466 134.5 591.5 Q191 717 224 835 L299 814 ZM566 569 L566 681 L416 681 L416 569 L566 569 ZM640 569 L800 569 L800 681 L640 681 L640 569 ZM416 390 L561 390 Q566 433 566 471 L566 503 L416 503 L416 390 ZM800 390 L800 503 L640 503 L640 471 Q640 425 636 390 L800 390 Z" /><glyph glyph-name="uni5085" unicode="&#x5085;" d="M962 207 L962 141 L825 141 L825 47 Q825 -16 808 -40 Q791 -64 746 -65 Q677 -67 622 -60 L607 10 Q667 3 709 3 Q732 3 740.5 18 Q749 33 749 70 L749 141 L449 141 Q508 102 583 45 L538 -11 Q459 56 398 98 L432 141 L289 141 L289 207 L749 207 L749 265 L821 265 L821 309 L658 309 L658 252 L587 252 L587 309 L423 309 L423 256 L351 256 L351 616 L587 616 L587 682 L324 682 L324 748 L587 748 L587 839 L658 839 L658 748 L781 748 Q770 774 745 824 L805 843 Q825 803 845 748 L948 748 L948 682 L658 682 L658 616 L893 616 L893 256 L825 256 L825 207 L962 207 ZM308 815 Q281 718 236 608 L236 -76 L162 -76 L162 451 Q118 369 68 301 L35 387 Q93 473 147 593 Q201 713 233 836 L308 815 ZM587 491 L587 555 L423 555 L423 491 L587 491 ZM821 491 L821 555 L658 555 L658 491 L821 491 ZM423 433 L423 366 L587 366 L587 433 L423 433 ZM658 433 L658 366 L821 366 L821 433 L658 433 Z" /><glyph glyph-name="uni508C" unicode="&#x508c;" d="M313 810 Q276 694 233 597 L233 -73 L165 -73 L165 465 Q129 404 75 331 L30 394 Q93 479 152 596 Q211 713 247 830 L313 810 ZM913 717 L693 717 L693 638 L885 638 L885 572 L693 572 L693 496 L885 496 L885 430 L693 430 L693 351 L912 351 Q909 225 891 60 Q886 11 873 -16 Q860 -43 834 -55 Q808 -67 762 -67 Q743 -67 673 -60 Q663 -58 640 -56 L625 12 Q684 -2 739 -2 Q783 -2 802.5 16.5 Q822 35 828 81 Q843 202 841 283 L368 283 L368 785 L913 785 L913 717 ZM437 638 L624 638 L624 717 L437 717 L437 638 ZM437 496 L624 496 L624 572 L437 572 L437 496 ZM437 351 L624 351 L624 430 L437 430 L437 351 ZM760 81 Q750 110 729.5 159 Q709 208 695 236 L748 257 Q761 231 781.5 183 Q802 135 815 101 L760 81 ZM274 5 Q293 57 311.5 123.5 Q330 190 341 247 L405 236 Q395 175 377 102.5 Q359 30 343 -15 L274 5 ZM630 47 Q598 173 581 233 L638 246 Q672 144 692 61 L630 47 ZM521 240 Q533 174 549 20 L484 15 L462 235 L521 240 Z" /><glyph glyph-name="uni508D" unicode="&#x508d;" d="M450 551 L412 674 L294 674 L294 743 L582 743 L537 833 L615 855 Q638 809 668 743 L918 743 L918 674 L794 674 Q763 583 751 551 L909 551 L909 404 L833 404 L833 483 L373 483 L373 404 L299 404 L299 551 L450 551 ZM278 816 Q248 702 210 608 L210 -71 L137 -71 L137 450 Q102 386 65 328 L19 397 Q71 477 120.5 594 Q170 711 202 831 L278 816 ZM672 551 Q692 601 716 674 L490 674 Q493 667 514 600 L530 551 L672 551 ZM938 295 L521 295 L513 217 L849 217 Q848 190 843 134.5 Q838 79 833 49 Q823 -8 797.5 -34.5 Q772 -61 713 -61 Q637 -61 583 -56 L570 15 Q634 4 694 4 Q726 4 740 17 Q754 30 761 70 Q768 108 770 146 L501 146 Q483 74 433.5 20.5 Q384 -33 287 -86 L243 -21 Q310 15 348 47 Q386 79 407.5 119.5 Q429 160 438 222 Q442 248 446 295 L280 295 L280 364 L586 364 Q568 420 559 438 L633 452 Q651 406 663 364 L938 364 L938 295 Z" /><glyph glyph-name="uni509C" unicode="&#x509c;" d="M301 826 Q265 695 228 605 L228 -70 L157 -70 L157 451 Q120 381 69 308 L30 381 Q87 466 141 590 Q195 714 229 838 L301 826 ZM918 745 Q793 730 622 716 Q451 702 328 698 L322 768 Q451 770 620 783 Q789 796 905 812 L918 745 ZM725 520 Q751 555 782.5 611 Q814 667 833 711 L901 679 Q831 542 787 483 L725 520 ZM616 520 Q614 529 585.5 586.5 Q557 644 541 673 L605 700 Q608 694 642.5 626 Q677 558 681 547 L616 520 ZM415 528 Q402 551 378 593 Q354 635 339 663 L397 694 Q413 667 436.5 626.5 Q460 586 474 561 L415 528 ZM650 212 L650 44 L817 44 L817 175 L890 175 L890 -67 L817 -67 L817 -25 L331 -25 L331 173 L403 173 L403 44 L582 44 L582 212 L289 212 L289 278 L582 278 L582 401 L416 401 Q389 354 343 297 L282 337 Q361 428 398 527 L464 503 L449 467 L902 467 L902 401 L650 401 L650 278 L941 278 L941 212 L650 212 Z" /><glyph glyph-name="uni50A3" unicode="&#x50a3;" d="M267 235 Q385 314 445 397 L286 397 L286 463 L484 463 Q500 496 515 538 L338 538 L338 605 L534 605 Q541 632 550 680 L314 680 L314 748 L562 748 L573 841 L654 839 L650 812 Q647 794 640 748 L897 748 L897 680 L629 680 Q620 632 613 605 L871 605 L871 538 L595 538 Q582 496 567 463 L922 463 L922 397 L751 397 Q788 347 838 307 Q888 267 955 233 L920 164 Q853 202 795 252 Q767 216 719 172 L671 214 Q713 251 749 296 Q703 343 669 397 L533 397 Q499 342 453 294 Q514 243 540 213 L492 167 Q458 204 406 249 Q367 214 305 170 L267 235 ZM288 816 Q253 690 214 594 L214 -75 L141 -75 L141 439 Q106 374 62 311 L24 393 Q81 479 130 591.5 Q179 704 214 833 L288 816 ZM569 347 L641 347 L641 38 Q641 -20 617.5 -42 Q594 -64 534 -64 Q512 -64 472 -60 L457 12 Q492 6 526 6 Q549 6 559 18 Q569 30 569 60 L569 98 Q473 45 319 -28 L286 39 Q472 124 569 178 L569 347 ZM688 175 Q727 155 798.5 111.5 Q870 68 923 34 L884 -27 Q839 6 767.5 50.5 Q696 95 654 116 L688 175 Z" /><glyph glyph-name="uni50A5" unicode="&#x50a5;" d="M862 586 L367 586 L367 468 L294 468 L294 659 L576 659 L576 844 L654 844 L654 659 L934 659 L934 468 L862 468 L862 586 ZM291 824 Q259 710 224 612 L224 -71 L153 -71 L153 451 Q120 387 74 319 L29 388 Q84 469 132.5 584.5 Q181 700 219 839 L291 824 ZM435 667 Q417 691 399 718 Q367 764 350 787 L406 826 Q430 800 495 710 L435 667 ZM878 787 Q822 704 789 664 L731 706 Q769 750 818 824 L878 787 ZM938 172 Q938 154 934 92 L932 46 Q930 -6 909.5 -29 Q889 -52 844 -57 Q820 -60 795 -60 Q768 -60 739 -57 Q691 -53 670.5 -27.5 Q650 -2 650 52 L650 215 L556 215 Q548 108 493.5 41.5 Q439 -25 327 -83 L280 -21 Q352 14 393 44.5 Q434 75 456 115 Q478 155 483 215 L386 215 L386 488 L832 488 L832 215 L723 215 L723 72 Q723 44 731.5 31.5 Q740 19 761 16 Q781 13 799 13 Q816 13 832 16 Q850 19 856.5 31 Q863 43 866 74 Q868 99 869.5 132.5 Q871 166 871 187 L938 172 ZM758 418 L460 418 L460 284 L758 284 L758 418 Z" /><glyph glyph-name="uni50A7" unicode="&#x50a7;" d="M404 668 L404 581 L327 581 L327 737 L589 737 Q570 780 543 831 L618 854 Q644 803 669 737 L923 737 L923 585 L845 585 L845 668 L404 668 ZM301 817 Q273 718 231 611 L231 -79 L155 -79 L155 447 Q111 367 75 318 L23 380 Q81 461 134.5 584 Q188 707 221 833 L301 817 ZM769 216 L960 216 L960 147 L282 147 L282 216 L398 216 L398 562 Q492 567 616 582 Q740 597 818 613 L829 543 Q762 529 653 515 Q544 501 474 496 L474 417 L919 417 L919 348 L769 348 L769 216 ZM696 348 L474 348 L474 216 L696 216 L696 348 ZM279 -13 Q337 13 400 52 Q463 91 509 127 L550 69 Q507 34 442 -7.5 Q377 -49 319 -78 L279 -13 ZM711 127 Q760 103 830 62.5 Q900 22 949 -11 L910 -76 Q854 -39 787 1.5 Q720 42 674 66 L711 127 Z" /><glyph glyph-name="uni50A8" unicode="&#x50a8;" d="M776 463 Q734 413 683 367 L888 367 L888 -65 L818 -65 L818 -15 L625 -15 L625 -65 L555 -65 L555 265 Q522 241 475 211 L443 278 Q586 364 681 463 L477 463 L477 532 L636 532 L636 655 L518 655 L518 724 L636 724 L636 839 L708 839 L708 724 L806 724 L806 655 L708 655 L708 532 L741 532 Q824 639 877 778 L943 751 Q887 617 828 532 L955 532 L955 463 L776 463 ZM298 821 Q263 690 219 581 L219 -69 L146 -69 L146 426 Q108 359 72 309 L33 389 Q90 471 141 594 Q192 717 222 838 L298 821 ZM416 602 Q394 643 366 691.5 Q338 740 314 780 L374 814 Q450 692 479 641 L416 602 ZM418 112 L502 183 L524 106 L499 87 Q444 46 403 11 Q378 -11 363 -27 L315 33 Q346 58 346 90 L346 458 L260 458 L260 535 L418 535 L418 112 ZM625 210 L818 210 L818 302 L625 302 L625 210 ZM625 145 L625 49 L818 49 L818 145 L625 145 Z" /><glyph glyph-name="uni50A9" unicode="&#x50a9;" d="M954 64 L954 -8 L646 -8 L646 -69 L575 -69 L575 494 Q546 431 523 390 L490 466 Q529 540 565 642 Q601 744 620 846 L690 835 Q672 754 650 686 L773 686 L731 812 L795 830 L843 686 L943 686 L943 612 L829 612 L829 478 L930 478 L930 411 L829 411 L829 273 L930 273 L930 205 L829 205 L829 64 L954 64 ZM286 819 Q254 697 216 599 L216 -72 L146 -72 L146 444 Q106 368 61 306 L17 382 Q75 461 127 585.5 Q179 710 210 834 L286 819 ZM498 662 Q477 449 438 307 L537 79 L480 26 L408 208 Q364 85 296 -38 L242 23 Q322 158 367 309 L350 350 Q277 522 263 554 L321 581 L393 413 Q418 523 431 664 L295 664 L295 739 L498 739 L498 662 ZM646 478 L762 478 L762 612 L646 612 L646 478 ZM646 273 L762 273 L762 411 L646 411 L646 273 ZM762 205 L646 205 L646 64 L762 64 L762 205 Z" /><glyph glyph-name="uni50AC" unicode="&#x50ac;" d="M835 797 L909 797 L909 606 L364 606 L364 797 L438 797 L438 678 L598 678 L598 837 L672 837 L672 678 L835 678 L835 797 ZM309 812 Q284 717 238 603 L238 -75 L162 -75 L162 443 Q113 354 66 291 L35 390 Q88 464 141.5 586 Q195 708 228 833 L309 812 ZM953 50 L953 -15 L462 -15 L462 -74 L385 -74 L385 318 Q355 274 309 222 L262 285 Q378 406 439 571 L508 551 Q496 519 483 492 L651 492 Q635 535 622 563 L688 584 L726 492 L934 492 L934 426 L724 426 L724 343 L921 343 L921 281 L724 281 L724 198 L921 198 L921 135 L724 135 L724 50 L953 50 ZM462 343 L650 343 L650 426 L462 426 L462 343 ZM462 198 L650 198 L650 281 L462 281 L462 198 ZM650 135 L462 135 L462 50 L650 50 L650 135 Z" /><glyph glyph-name="uni50AD" unicode="&#x50ad;" d="M890 386 L695 386 L695 337 L896 337 L896 26 Q896 -22 877.5 -43 Q859 -64 815 -64 Q777 -64 749 -59 L739 -3 Q771 -10 792 -10 Q814 -10 823 2.5 Q832 15 832 43 L832 73 L695 73 L695 -50 L634 -50 L634 73 L501 73 L501 -61 L437 -61 L437 337 L634 337 L634 386 L432 386 L432 441 L634 441 L634 491 L394 491 L394 414 Q394 297 386 218 Q378 139 359 71.5 Q340 4 304 -75 L235 -48 Q272 27 291 93.5 Q310 160 317 237.5 Q324 315 324 434 L324 761 L606 761 Q594 794 574 838 L652 856 Q670 820 694 761 L945 761 L945 702 L695 702 L695 652 L890 652 L890 548 L952 548 L952 491 L890 491 L890 386 ZM297 822 Q265 708 224 608 L224 -72 L152 -72 L152 454 Q118 389 68 313 L29 397 Q85 481 138 601.5 Q191 722 222 841 L297 822 ZM394 702 L394 548 L634 548 L634 598 L436 598 L436 652 L634 652 L634 702 L394 702 ZM827 548 L827 598 L695 598 L695 548 L827 548 ZM827 491 L695 491 L695 441 L827 441 L827 491 ZM634 231 L634 280 L501 280 L501 231 L634 231 ZM832 231 L832 280 L695 280 L695 231 L832 231 ZM501 178 L501 128 L634 128 L634 178 L501 178 ZM695 178 L695 128 L832 128 L832 178 L695 178 Z" /><glyph glyph-name="uni50B2" unicode="&#x50b2;" d="M916 -71 Q826 38 774 136 Q722 40 624 -76 L574 -16 Q682 110 734 218 Q687 330 661 458 Q645 423 638 409 L584 474 Q619 535 649.5 643.5 Q680 752 693 844 L767 828 Q752 749 731 673 L958 673 L958 598 L891 598 Q881 475 863 384.5 Q845 294 812 216 Q866 109 970 -6 L916 -71 ZM586 291 Q580 182 567 75 Q559 13 537.5 -12 Q516 -37 470 -37 Q433 -37 386 -32 L373 31 Q417 24 447 24 Q472 24 484 35.5 Q496 47 501 79 Q509 124 516 229 L397 229 Q386 146 359.5 78.5 Q333 11 286 -61 L231 -6 Q281 68 303 130 Q325 192 330 282 L334 366 L245 366 L245 434 L395 434 L395 523 L289 523 L289 589 L395 589 L395 667 L279 667 L279 734 L395 734 L395 840 L469 840 L469 734 L599 734 L599 667 L469 667 L469 589 L578 589 L578 523 L469 523 L469 434 L595 434 L595 366 L405 366 Q405 341 403 291 L586 291 ZM272 816 Q248 722 208 615 L208 -74 L135 -74 L135 449 Q98 377 63 322 L35 416 Q90 516 130.5 616 Q171 716 200 833 L272 816 ZM705 583 Q727 426 771 308 Q808 420 825 598 L710 598 L705 583 Z" /><glyph glyph-name="uni50BB" unicode="&#x50bb;" d="M896 770 L896 427 L351 427 L351 770 L533 770 Q557 825 564 851 L641 836 Q632 809 615 770 L896 770 ZM312 815 Q280 701 232 592 L232 -75 L156 -75 L156 443 Q118 376 79 322 L30 389 Q88 470 146 593.5 Q204 717 236 832 L312 815 ZM423 492 L824 492 L824 706 L423 706 L423 492 ZM453 562 Q501 576 561 599 Q519 619 468 641 L496 691 L581 651 L630 629 Q702 660 751 694 L784 644 Q748 621 697 597 Q757 568 784 553 L755 502 Q706 530 630 566 Q552 533 479 509 L453 562 ZM723 422 Q899 354 967 320 L940 257 Q874 292 691 363 L723 422 ZM533 359 Q445 313 283 258 L255 326 Q407 371 505 419 L533 359 ZM856 223 Q788 129 704 71 Q816 21 959 0 L932 -74 Q749 -34 629 27 Q513 -30 306 -79 L278 -11 Q438 20 554 71 Q498 108 452 159 Q400 118 313 66 L272 129 Q350 172 420.5 227.5 Q491 283 539 340 L597 306 Q575 278 577 280 L856 280 L856 223 ZM508 207 Q557 152 629 110 Q705 154 755 214 L515 214 L508 207 Z" /><glyph glyph-name="uni50CF" unicode="&#x50cf;" d="M781 268 Q815 192 857 138 Q899 84 964 36 L913 -22 Q850 30 807 90.5 Q764 151 728 238 L691 219 Q712 153 712 73 Q712 -4 678 -33 Q644 -62 581 -62 Q563 -62 505 -56 L493 11 Q502 10 527 7 Q552 4 571 4 Q599 4 614 10.5 Q629 17 635.5 39 Q642 61 640 105 Q638 140 635 157 Q573 99 493.5 52 Q414 5 312 -39 L278 23 Q498 103 619 220 Q612 239 598 265 Q535 211 466.5 173.5 Q398 136 310 106 L284 165 Q458 216 569 314 L545 346 Q505 318 450 296 Q395 274 313 249 L285 311 Q381 336 440 361.5 Q499 387 534 422 L344 422 L344 571 L292 534 L257 597 Q429 709 507 851 L581 827 Q567 802 548 775 L790 775 L790 716 Q758 668 712 627 L902 627 L902 422 L617 422 Q603 400 594 390 Q641 331 667 279 Q715 303 765.5 336 Q816 369 852 402 L895 349 Q845 307 781 268 ZM309 817 Q275 692 226 576 L226 -76 L151 -76 L151 423 Q115 359 81 313 L37 389 Q92 468 144.5 589.5 Q197 711 231 836 L309 817 ZM501 713 Q466 672 414 627 L624 627 Q671 668 701 713 L501 713 ZM415 480 L574 480 Q590 517 595 569 L415 569 L415 480 ZM830 480 L830 569 L660 569 Q655 515 643 480 L830 480 Z" /><glyph glyph-name="uni50DA" unicode="&#x50da;" d="M848 175 L646 175 L646 42 Q646 1 638.5 -21.5 Q631 -44 611 -54 Q591 -64 553 -64 Q504 -64 469 -59 L456 14 Q504 6 528 6 Q553 6 561.5 17.5 Q570 29 570 67 L570 175 L384 175 L384 411 Q343 384 284 355 L249 421 Q347 472 404 518 L309 609 L357 656 Q393 626 454 565 Q497 611 528 674 L317 674 L317 744 L555 744 Q568 783 578 841 L657 837 Q648 788 636 744 L932 744 L932 674 L691 674 Q723 613 772 564 Q806 592 874 654 L924 605 Q883 568 823 518 Q885 471 968 433 L934 365 Q890 385 848 412 L848 175 ZM307 814 Q273 695 230 595 L230 -73 L159 -73 L159 451 Q127 393 79 324 L29 390 Q86 472 142.5 593.5 Q199 715 232 832 L307 814 ZM612 674 Q568 568 490 493 L745 493 Q669 568 618 674 L612 674 ZM452 366 L776 366 L776 430 L452 430 L452 366 ZM776 302 L452 302 L452 238 L776 238 L776 302 ZM483 111 Q449 72 399 28 Q349 -16 296 -56 L247 8 Q298 42 347 83.5 Q396 125 432 164 L483 111 ZM763 161 L817 120 Q909 48 960 10 L913 -52 Q853 -2 750 79 L718 105 L763 161 Z" /><glyph glyph-name="uni50E7" unicode="&#x50e7;" d="M908 721 L908 391 L323 391 L323 721 L465 721 Q443 767 420 809 L488 839 Q510 807 550 721 L689 721 Q722 782 747 843 L818 819 Q807 793 770 721 L908 721 ZM296 814 Q263 698 230 614 L230 -73 L155 -73 L155 452 Q120 387 76 324 L28 389 Q82 469 135.5 591 Q189 713 221 832 L296 814 ZM584 652 L392 652 L392 458 L584 458 L584 652 ZM652 458 L838 458 L838 652 L652 652 L652 458 ZM674 509 Q737 600 758 636 L812 603 Q744 500 725 476 L674 509 ZM466 634 Q527 557 556 513 L504 475 Q443 562 417 595 L466 634 ZM445 -74 L370 -74 L370 322 L865 322 L865 -74 L791 -74 L791 -28 L445 -28 L445 -74 ZM791 179 L791 256 L445 256 L445 179 L791 179 ZM445 114 L445 36 L791 36 L791 114 L445 114 Z" /><glyph glyph-name="uni50EE" unicode="&#x50ee;" d="M952 598 L952 536 L288 536 L288 598 L461 598 Q452 636 435 691 L324 691 L324 752 L587 752 Q569 794 551 825 L635 848 Q654 811 675 752 L915 752 L915 691 L797 691 Q788 653 771 598 L952 598 ZM294 821 Q259 696 228 616 L228 -71 L152 -71 L152 450 Q120 390 77 332 L30 401 Q83 478 135.5 599.5 Q188 721 218 838 L294 821 ZM512 691 Q527 646 539 598 L695 598 Q705 633 720 691 L512 691 ZM895 82 L651 82 L651 19 L945 19 L945 -41 L282 -41 L282 19 L577 19 L577 82 L330 82 L330 139 L577 139 L577 203 L344 203 L344 483 L883 483 L883 203 L651 203 L651 139 L895 139 L895 82 ZM577 370 L577 426 L418 426 L418 370 L577 370 ZM651 370 L807 370 L807 426 L651 426 L651 370 ZM418 315 L418 259 L577 259 L577 315 L418 315 ZM651 315 L651 259 L807 259 L807 315 L651 315 Z" /><glyph glyph-name="uni50F3" unicode="&#x50f3;" d="M278 811 Q248 701 214 610 L214 -76 L141 -76 L141 449 Q110 391 69 329 L19 395 Q73 480 123 595 Q173 710 204 827 L278 811 ZM319 633 L492 633 L492 717 L317 717 L317 787 L928 787 L928 717 L731 717 L731 633 L897 633 L897 406 L319 406 L319 633 ZM559 633 L663 633 L663 717 L559 717 L559 633 ZM492 568 L387 568 L387 470 L492 470 L492 568 ZM663 568 L559 568 L559 470 L663 470 L663 568 ZM830 470 L830 568 L731 568 L731 470 L830 470 ZM683 190 Q732 137 799.5 94 Q867 51 962 12 L925 -54 Q832 -11 765.5 36 Q699 83 648 141 L648 -74 L577 -74 L577 146 Q527 84 464.5 36 Q402 -12 310 -63 L268 6 Q364 51 426 93.5 Q488 136 535 190 L296 190 L296 258 L431 258 Q382 317 356 342 L410 387 Q452 343 507 277 L483 258 L577 258 L577 380 L648 380 L648 258 L737 258 L714 278 Q772 332 811 382 L866 342 Q847 318 789 258 L940 258 L940 190 L683 190 Z" /><glyph glyph-name="uni50F5" unicode="&#x50f5;" d="M288 822 Q260 707 217 598 L217 -71 L142 -71 L142 438 Q114 387 72 324 L23 400 Q77 478 130 600.5 Q183 723 210 839 L288 822 ZM312 803 L931 803 L931 740 L312 740 L312 803 ZM882 690 L882 468 L340 468 L340 690 L882 690 ZM576 604 L576 645 L416 645 L416 604 L576 604 ZM647 604 L807 604 L807 645 L647 645 L647 604 ZM576 556 L416 556 L416 514 L576 514 L576 556 ZM647 556 L647 514 L807 514 L807 556 L647 556 ZM268 421 L954 421 L954 362 L268 362 L268 421 ZM887 315 L887 75 L335 75 L335 315 L887 315 ZM576 218 L576 266 L412 266 L412 218 L576 218 ZM647 218 L811 218 L811 266 L647 266 L647 218 ZM576 171 L412 171 L412 124 L576 124 L576 171 ZM647 171 L647 124 L811 124 L811 171 L647 171 ZM269 -40 L269 23 L956 23 L956 -40 L269 -40 Z" /><glyph glyph-name="uni50FB" unicode="&#x50fb;" d="M951 370 L810 370 L810 237 L940 237 L940 163 L810 163 L810 -74 L739 -74 L739 163 L616 163 L616 237 L739 237 L739 370 L605 370 L605 444 L686 444 Q665 579 652 657 L607 657 L607 731 L744 731 Q728 797 717 830 L782 847 Q797 798 812 731 L945 731 L945 657 L896 657 Q887 574 865 444 L951 444 L951 370 ZM288 827 Q255 697 214 595 L214 -67 L141 -67 L141 440 Q107 379 66 320 L23 394 Q76 471 129 597 Q182 723 212 843 L288 827 ZM385 472 Q383 405 375 351 L577 351 L577 -7 L345 -7 L345 215 Q324 147 282 49 L224 100 Q260 180 278.5 235 Q297 290 306.5 360 Q316 430 316 535 L316 782 L573 782 L573 472 L385 472 ZM504 545 L504 709 L385 709 L385 545 L504 545 ZM715 657 Q733 552 748 444 L806 444 Q825 569 835 657 L715 657 ZM512 279 L409 279 L409 65 L512 65 L512 279 Z" /><glyph glyph-name="uni5106" unicode="&#x5106;" d="M269 828 Q244 720 210 616 L210 -72 L139 -72 L139 435 Q108 368 68 297 L28 376 Q79 466 125 591 Q171 716 197 842 L269 828 ZM922 -69 Q842 13 793 100 Q746 18 661 -75 L605 -22 Q656 31 691.5 79.5 Q727 128 753 183 Q706 298 686 455 Q680 440 655 388 L614 444 Q614 270 604 60 Q602 11 591 -14 Q580 -39 553.5 -49.5 Q527 -60 475 -60 Q451 -60 399 -56 L385 13 Q428 7 472 7 Q499 7 512 13 Q525 19 530 33.5 Q535 48 537 78 Q546 242 546 413 L546 462 L351 462 Q325 413 298 374 L485 374 L485 80 L293 80 L293 367 Q280 348 263 328 L214 373 Q295 466 329 586 L394 568 Q390 555 380 529 L614 529 L614 464 Q656 546 687.5 644.5 Q719 743 735 840 L806 827 Q791 748 769 674 L961 674 L961 598 L909 598 Q899 451 881.5 353.5 Q864 256 831 177 Q885 73 973 -9 L922 -69 ZM267 660 L267 730 L344 730 L344 830 L409 830 L409 730 L504 730 L504 830 L567 830 L567 730 L663 730 L663 660 L567 660 L567 591 L504 591 L504 660 L409 660 L409 596 L344 596 L344 660 L267 660 ZM732 565 Q753 392 789 280 Q824 395 839 598 L744 598 L732 565 ZM431 313 L346 313 L346 140 L431 140 L431 313 Z" /><glyph glyph-name="uni5112" unicode="&#x5112;" d="M290 825 Q256 695 216 595 L216 -70 L143 -70 L143 438 Q109 376 64 313 L30 397 Q81 478 133.5 601.5 Q186 725 215 840 L290 825 ZM572 612 L364 612 L364 486 L297 486 L297 675 L572 675 L572 737 L340 737 L340 799 L882 799 L882 737 L644 737 L644 675 L921 675 L921 486 L853 486 L853 612 L644 612 L644 409 L572 409 L572 612 ZM396 567 L535 567 L535 524 L396 524 L396 567 ZM683 567 L819 567 L819 524 L683 524 L683 567 ZM535 432 L396 432 L396 476 L535 476 L535 432 ZM819 432 L683 432 L683 476 L819 476 L819 432 ZM938 317 L641 317 L617 244 L892 244 L892 12 Q892 -28 877.5 -46 Q863 -64 834 -66 Q822 -67 804 -67 Q781 -67 763 -64 L749 0 Q767 -5 795 -5 Q810 -5 816.5 4 Q823 13 823 32 L823 180 L719 180 L719 -39 L659 -39 L659 180 L558 180 L558 -40 L498 -40 L498 180 L395 180 L395 -65 L327 -65 L327 244 L533 244 Q539 262 556 317 L280 317 L280 377 L938 377 L938 317 Z" /><glyph glyph-name="uni5121" unicode="&#x5121;" d="M294 825 Q257 687 211 578 L211 -71 L141 -71 L141 432 Q100 358 61 303 L25 390 Q77 465 131.5 593 Q186 721 217 841 L294 825 ZM336 800 L866 800 L866 452 L336 452 L336 800 ZM568 656 L568 735 L412 735 L412 656 L568 656 ZM635 656 L791 656 L791 735 L635 735 L635 656 ZM568 596 L412 596 L412 517 L568 517 L568 596 ZM635 596 L635 517 L791 517 L791 596 L635 596 ZM340 -61 L278 -61 L278 384 L578 384 L578 -60 L520 -60 L520 -21 L340 -21 L340 -61 ZM624 -61 L624 384 L929 384 L929 -60 L868 -60 L868 -21 L683 -21 L683 -61 L624 -61 ZM404 214 L404 316 L340 316 L340 214 L404 214 ZM457 214 L520 214 L520 316 L457 316 L457 214 ZM749 214 L749 316 L683 316 L683 214 L749 214 ZM802 214 L868 214 L868 316 L802 316 L802 214 ZM404 153 L340 153 L340 45 L404 45 L404 153 ZM457 153 L457 45 L520 45 L520 153 L457 153 ZM749 153 L683 153 L683 45 L749 45 L749 153 ZM802 153 L802 45 L868 45 L868 153 L802 153 Z" /><glyph glyph-name="uni5138" unicode="&#x5138;" d="M293 823 Q258 693 209 575 L209 -68 L143 -68 L143 438 Q101 362 60 306 L25 381 Q79 460 136 591 Q193 722 221 839 L293 823 ZM317 794 L910 794 L910 587 L317 587 L317 794 ZM498 737 L381 737 L381 642 L498 642 L498 737 ZM667 642 L667 737 L558 737 L558 642 L667 642 ZM728 642 L846 642 L846 737 L728 737 L728 642 ZM509 165 L495 200 Q440 194 358 184 Q315 178 293 172 L278 234 Q301 240 311 253 Q342 287 396 368 Q377 367 348 363 Q306 358 286 353 L270 413 Q280 416 287 419.5 Q294 423 299 429 Q325 459 394 584 L446 553 Q388 452 359 414 L432 423 Q471 484 495 527 L548 496 Q503 424 451 347 Q399 270 372 239 L473 253 Q462 277 461 281 L444 317 L495 339 Q543 231 561 186 L509 165 ZM955 42 L955 -13 L649 -13 L649 -71 L591 -71 L591 340 Q565 299 545 275 L514 328 Q548 375 580.5 441 Q613 507 631 572 L687 558 Q676 522 659 477 L774 477 Q771 486 743 562 L798 576 L834 477 L941 477 L941 420 L817 420 L817 331 L930 331 L930 276 L817 276 L817 191 L930 191 L930 134 L817 134 L817 42 L955 42 ZM649 331 L759 331 L759 420 L649 420 L649 331 ZM649 191 L759 191 L759 276 L649 276 L649 191 ZM519 150 L560 32 Q563 20 566.5 11.5 Q570 3 572 -4 L515 -20 Q500 37 465 132 L519 150 ZM240 -42 Q254 -3 272 53.5 Q290 110 299 147 L354 134 Q347 98 328.5 36.5 Q310 -25 296 -60 L240 -42 ZM439 137 Q443 98 453 -39 L393 -42 Q392 -3 389 45 Q386 93 382 132 L439 137 ZM759 134 L649 134 L649 42 L759 42 L759 134 Z" /><glyph glyph-name="uni513F" unicode="&#x513f;" d="M60 0 Q152 67 195 123.5 Q238 180 252.5 257.5 Q267 335 267 478 L267 823 L349 823 L349 478 Q349 318 332 227 Q315 136 268.5 69.5 Q222 3 126 -71 L60 0 ZM652 115 Q652 70 664 53.5 Q676 37 712 34 Q724 33 748 33 Q772 33 784 34 Q813 37 827.5 44 Q842 51 848 66.5 Q854 82 856 113 Q858 143 859 183 Q860 223 860 252 L939 238 Q939 205 937 160.5 Q935 116 933 83 Q930 35 916 8.5 Q902 -18 873.5 -30.5 Q845 -43 795 -46 Q763 -48 747 -48 Q730 -48 698 -46 Q650 -43 622 -29.5 Q594 -16 580.5 14.5 Q567 45 567 99 L567 822 L652 822 L652 115 Z" /><glyph glyph-name="uni5140" unicode="&#x5140;" d="M943 235 Q943 202 941.5 158.5 Q940 115 938 83 Q935 35 922.5 9 Q910 -17 882.5 -28 Q855 -39 806 -42 Q770 -44 753 -44 Q735 -44 699 -42 Q631 -38 601.5 -8.5 Q572 21 572 96 L572 686 L371 686 L371 478 Q371 318 350.5 227.5 Q330 137 274 68 Q218 -1 100 -82 L41 -16 Q148 53 198.5 112.5 Q249 172 267.5 252.5 Q286 333 286 477 L286 686 L61 686 L61 763 L930 763 L930 686 L657 686 L657 109 Q657 70 670 53.5 Q683 37 715 35 Q728 34 754 34 Q779 34 792 35 Q820 37 834 43 Q848 49 853.5 63.5 Q859 78 860 108 Q862 138 864 179 Q866 220 866 249 L943 235 Z" /><glyph glyph-name="uni5141" unicode="&#x5141;" d="M942 218 Q939 144 935 84 Q933 19 903 -7 Q873 -33 799 -38 Q779 -40 740 -40 Q700 -40 680 -38 Q616 -34 587 -3.5 Q558 27 558 100 L558 433 L385 428 Q385 379 384 362 Q381 250 357 179.5 Q333 109 277 52.5 Q221 -4 110 -73 L44 -4 Q147 51 199.5 98.5 Q252 146 274 206 Q296 266 299 362 L300 424 L236 421 Q137 415 95 409 L68 496 Q96 503 111.5 510.5 Q127 518 143 531 Q215 589 297.5 681.5 Q380 774 440 861 L519 817 Q461 738 382.5 650 Q304 562 234 496 Q359 501 485 506 Q611 511 736 516 Q656 621 602 684 L663 734 Q706 683 781 589 Q856 495 908 425 L843 371 L793 440 Q742 438 642 436 L642 119 Q642 77 656.5 59 Q671 41 705 37 Q731 35 743 35 Q756 35 780 37 Q810 41 825 48 Q840 55 847 71 Q854 87 856 118 Q859 187 859 234 L942 218 Z" /><glyph glyph-name="uni5143" unicode="&#x5143;" d="M139 776 L864 776 L864 694 L139 694 L139 776 ZM944 432 L648 432 L648 117 Q648 74 661.5 57 Q675 40 709 36 Q735 34 747 34 Q761 34 785 36 Q814 40 828.5 47 Q843 54 849 69.5 Q855 85 857 116 Q861 208 861 234 L943 216 Q943 187 941.5 148.5 Q940 110 938 81 Q935 35 921.5 9.5 Q908 -16 880 -28.5 Q852 -41 802 -45 Q783 -47 743 -47 Q704 -47 684 -45 Q620 -40 591 -8 Q562 24 562 98 L562 432 L381 432 Q381 357 380 334 Q377 240 352.5 172.5 Q328 105 270 45 Q212 -15 106 -81 L47 -10 Q147 43 199.5 93.5 Q252 144 271.5 199 Q291 254 293 334 Q294 356 294 432 L58 432 L58 514 L944 514 L944 432 Z" /><glyph glyph-name="uni5144" unicode="&#x5144;" d="M936 202 Q935 177 933 136 Q931 95 928 62 Q924 -1 896.5 -27 Q869 -53 800 -57 Q779 -59 735 -59 Q692 -59 670 -57 Q611 -53 586 -22.5 Q561 8 561 75 L561 366 L395 366 L393 338 Q385 222 356.5 148 Q328 74 265.5 19.5 Q203 -35 90 -87 L45 -12 Q151 34 205.5 77.5 Q260 121 283.5 180.5 Q307 240 313 339 Q313 355 314 366 L150 366 L150 787 L838 787 L838 366 L641 366 L641 99 Q641 59 653.5 43 Q666 27 699 23 Q729 21 742 21 Q757 21 785 23 Q826 27 840 42 Q854 57 856 96 L860 219 L936 202 ZM759 709 L229 709 L229 445 L759 445 L759 709 Z" /><glyph glyph-name="uni5145" unicode="&#x5145;" d="M935 191 Q935 165 933.5 130.5 Q932 96 929 68 Q925 4 895.5 -23 Q866 -50 792 -55 Q771 -57 729 -57 Q687 -57 666 -55 Q604 -50 578 -23.5 Q552 3 552 71 L552 353 Q444 349 400 348 L397 302 Q389 201 359 134.5 Q329 68 265.5 17 Q202 -34 88 -87 L41 -13 Q142 32 197 73 Q252 114 278 167.5 Q304 221 312 304 Q314 314 316 344 L236 340 Q163 335 120 331 L100 410 Q117 413 136.5 422 Q156 431 170 442 Q209 475 261.5 528.5 Q314 582 362 636 L61 636 L61 716 L470 716 Q456 750 439 787 Q422 824 414 839 L491 865 Q504 840 523 795 Q558 720 560 716 L924 716 L924 636 L468 636 Q394 549 261 416 L705 436 Q637 514 599 555 L660 608 Q778 484 893 352 L830 294 L773 359 Q681 357 636 355 L636 89 Q636 53 648.5 40 Q661 27 696 23 Q724 21 739 21 Q753 21 781 23 Q822 28 836 40 Q850 52 852 87 Q854 114 855 148 Q856 182 856 205 L935 191 Z" /><glyph glyph-name="uni5146" unicode="&#x5146;" d="M944 138 Q942 98 937 47 Q933 12 922 -6.5 Q911 -25 887.5 -33.5 Q864 -42 821 -45 Q782 -48 742 -48 Q704 -48 663 -45 Q624 -42 601 -31 Q578 -20 566.5 5 Q555 30 555 75 L555 834 L635 834 L635 455 Q773 370 907 277 L856 208 Q753 288 635 367 L635 103 Q635 64 645.5 50 Q656 36 684 34 Q714 31 744 31 Q774 31 804 34 Q837 37 847 45.5 Q857 54 861 81 Q868 128 868 159 L944 138 ZM346 831 L426 831 L426 414 Q426 275 399.5 189 Q373 103 309 40.5 Q245 -22 123 -85 L68 -13 Q174 41 231 88 Q288 135 313.5 195 Q339 255 344 349 Q187 264 86 217 L54 302 Q191 363 346 442 L346 831 ZM252 467 Q222 513 171.5 578.5 Q121 644 87 682 L152 730 Q186 692 238.5 627 Q291 562 320 518 L252 467 ZM897 674 Q858 625 806.5 568 Q755 511 710 468 L650 521 Q693 558 741.5 614.5 Q790 671 830 727 L897 674 Z" /><glyph glyph-name="uni5148" unicode="&#x5148;" d="M943 344 L656 344 L656 100 Q656 63 668 49 Q680 35 710 32 Q742 30 759 30 Q775 30 807 32 Q836 35 847 48.5 Q858 62 860 97 Q863 124 863 160 L864 184 L941 167 Q941 146 936 71 Q933 24 922 0.5 Q911 -23 889.5 -32.5 Q868 -42 825 -46 Q789 -49 753 -49 Q716 -49 680 -46 Q638 -42 615.5 -32 Q593 -22 583 2.5 Q573 27 573 74 L573 344 L414 344 Q412 328 412 322 Q405 224 377.5 155 Q350 86 288 28.5 Q226 -29 117 -82 L66 -4 Q167 40 222.5 86 Q278 132 300.5 187.5 Q323 243 328 323 Q328 330 330 344 L65 344 L65 422 L476 422 L476 602 L252 602 Q222 536 180 471 L106 510 Q186 621 243 809 L323 791 Q302 723 285 679 L476 679 L476 841 L557 841 L557 679 L878 679 L878 602 L557 602 L557 422 L943 422 L943 344 Z" /><glyph glyph-name="uni5149" unicode="&#x5149;" d="M937 382 L641 382 L641 106 Q641 69 653.5 56 Q666 43 701 38 Q725 35 748 35 Q773 35 795 38 Q828 43 840.5 56.5 Q853 70 854 105 Q857 178 855 213 L934 200 Q934 142 930 78 Q928 29 915.5 4.5 Q903 -20 878.5 -30 Q854 -40 808 -44 Q774 -47 740 -47 Q706 -47 671 -44 Q626 -40 602 -29 Q578 -18 567 7.5 Q556 33 556 81 L556 382 L394 382 Q392 362 392 356 Q386 249 359.5 174.5 Q333 100 272.5 39 Q212 -22 104 -77 L38 -6 Q141 42 198 92 Q255 142 279.5 204 Q304 266 307 358 L308 382 L59 382 L59 459 L456 459 L456 836 L540 836 L540 459 L937 459 L937 382 ZM875 728 Q839 675 787 608.5 Q735 542 694 497 L629 549 Q675 597 725 661 Q775 725 807 777 L875 728 ZM298 499 Q265 548 210.5 618 Q156 688 121 725 L185 774 Q222 734 278.5 664 Q335 594 366 550 L298 499 Z" /><glyph glyph-name="uni514B" unicode="&#x514b;" d="M933 661 L538 661 L538 561 L826 561 L826 258 L639 258 L639 85 Q639 48 652.5 33 Q666 18 699 13 Q722 10 742 10 Q764 10 785 13 Q826 19 839.5 32 Q853 45 854 82 Q858 154 858 183 L933 164 Q933 136 925 52 Q922 10 910 -13 Q898 -36 872 -46.5 Q846 -57 798 -62 Q767 -65 734 -65 Q702 -65 669 -62 Q611 -57 587 -29 Q563 -1 563 63 L563 258 L415 258 L407 200 Q397 134 364 86 Q331 38 267 -2 Q203 -42 96 -82 L59 -5 Q158 28 212.5 59 Q267 90 293 128 Q319 166 329 225 Q332 238 333 258 L173 258 L173 561 L461 561 L461 661 L65 661 L65 735 L461 735 L461 839 L538 839 L538 735 L933 735 L933 661 ZM248 332 L751 332 L751 486 L248 486 L248 332 Z" /></font>
</defs>
</svg>
